<svg width="228" height="174" viewBox="0 0 228 174" fill="none" xmlns="http://www.w3.org/2000/svg">
<path d="M211.114 121.016C210.837 119.161 210.496 117.323 210.109 115.508L192.711 123.941L211.114 121.016Z" fill="#E59D33"/>
<path d="M125.114 56.4727C125.114 56.4727 73.6717 76.957 45.8642 86.8928C41.2297 94.3188 37.7106 102.385 35.4197 110.834L79.5905 91.5341L44.6388 114.4L70.0708 109.955L69.435 113.128L138.044 94.7131L38.9224 139.832L54.17 125.85L32.2696 134.231V134.404C32.256 145.492 34.2981 156.487 38.2924 166.83L135.495 129.665L82.1105 157.628L177.434 123.307L152.002 129.029L187.596 111.232H167.926L204.514 98.2158C203.307 95.48 201.974 92.8192 200.514 90.2336L127.252 115.047L195.526 82.3728C187.599 71.1979 177.223 61.9825 165.19 55.4305C153.158 48.8786 139.787 45.1635 126.099 44.569C112.411 43.9746 98.768 46.5165 86.2126 52.0005C73.6572 57.4846 62.5213 65.7657 53.6556 76.2114L125.114 56.4727Z" fill="#E59D33"/>
<path d="M187.629 158.901C186.01 158.901 200.582 151.19 211.407 145.578C212.321 138.2 212.321 130.737 211.407 123.359L120.263 161.432L144.4 143.006L60.8789 173.507H203.171C206.031 167.587 208.226 161.368 209.714 154.964C202.067 156.461 189.386 158.901 187.629 158.901Z" fill="#E59D33"/>
<g opacity="0.3">
<path d="M211.114 121.016C210.837 119.161 210.496 117.323 210.109 115.508L192.711 123.941L211.114 121.016Z" fill="white"/>
<path d="M125.114 56.4727C125.114 56.4727 73.6717 76.957 45.8642 86.8928C41.2297 94.3188 37.7106 102.385 35.4197 110.834L79.5905 91.5341L44.6388 114.4L70.0708 109.955L69.435 113.128L138.044 94.7131L38.9224 139.832L54.17 125.85L32.2696 134.231V134.404C32.256 145.492 34.2981 156.487 38.2924 166.83L135.495 129.665L82.1105 157.628L177.434 123.307L152.002 129.029L187.596 111.232H167.926L204.514 98.2158C203.307 95.48 201.974 92.8192 200.514 90.2336L127.252 115.047L195.526 82.3728C187.599 71.1979 177.223 61.9825 165.19 55.4305C153.158 48.8786 139.787 45.1635 126.099 44.569C112.411 43.9746 98.768 46.5165 86.2126 52.0005C73.6572 57.4846 62.5213 65.7657 53.6556 76.2114L125.114 56.4727Z" fill="white"/>
<path d="M187.63 158.908C186.012 158.908 200.583 151.198 211.409 145.586C212.323 138.208 212.323 130.745 211.409 123.367L120.265 161.44L144.402 143.013L60.8809 173.514H203.173C206.033 167.595 208.228 161.376 209.716 154.972C202.069 156.469 189.388 158.908 187.63 158.908Z" fill="white"/>
</g>
<path d="M98.2311 30.7434C106.69 30.7434 113.548 23.8857 113.548 15.4264C113.548 6.96703 106.69 0.109375 98.2311 0.109375C89.7717 0.109375 82.9141 6.96703 82.9141 15.4264C82.9141 23.8857 89.7717 30.7434 98.2311 30.7434Z" fill="white"/>
<path d="M222.211 173.508H227.991" stroke="#2E353A" stroke-miterlimit="10"/>
<path d="M32.0488 173.508H217.587" stroke="#2E353A" stroke-miterlimit="10"/>
<path d="M35.084 173.507L65.8856 148.219C66.0658 148.092 66.2701 148.003 66.4859 147.957C66.7018 147.911 66.9247 147.91 67.141 147.953C67.3574 147.997 67.5626 148.084 67.7443 148.209C67.926 148.334 68.0802 148.495 68.1976 148.682C69.1166 150.057 67.2786 159.716 67.2786 159.716L72.3361 160.178L73.2551 163.392L76.4746 166.611L76.9312 173.507H35.084Z" fill="#2E353A" stroke="#2E353A" stroke-miterlimit="10"/>
<path d="M9.79041 172.44L29.5638 158.186C29.5638 158.186 32.7832 157.73 32.3208 160.943C31.8584 164.157 27.2633 167.845 27.2633 167.845L27.7258 171.521L28.4425 173.509H5.19531L9.79041 172.44Z" fill="#2E353A" stroke="#2E353A" stroke-miterlimit="10"/>
</svg>
