<svg width="289" height="289" viewBox="0 0 289 289" fill="none" xmlns="http://www.w3.org/2000/svg">
<path d="M54.8754 99.0556C55.4412 91.7782 57.4992 84.6951 60.9213 78.2476C70.0942 61.029 91.2143 45.2669 111.612 49.1164C130.247 52.6306 144.437 67.098 163.794 69.514C196.162 73.56 206.566 49.862 236.622 63.156C248.87 68.5719 257.389 78.8372 258.782 92.3161C260.441 108.413 251.182 119.702 247.61 134.539C243.488 151.648 252.679 167.236 255.389 183.669C256.95 193.154 255.788 203.13 250.563 211.355C243.454 222.557 229.674 227.285 218.126 232.481H57.4417C57.4417 232.481 47.6157 230.747 35.4777 206.471C23.3397 182.195 33.1657 164.277 48.1937 146.359C55.9447 137.111 56.5054 126.592 55.2338 115.112C54.5909 109.785 54.4708 104.407 54.8754 99.0556Z" fill="#E59D33"/>
<path opacity="0.7" d="M54.8754 99.0556C55.4412 91.7782 57.4992 84.6951 60.9213 78.2476C70.0942 61.029 91.2143 45.2669 111.612 49.1164C130.247 52.6306 144.437 67.098 163.794 69.514C196.162 73.56 206.566 49.862 236.622 63.156C248.87 68.5719 257.389 78.8372 258.782 92.3161C260.441 108.413 251.182 119.702 247.61 134.539C243.488 151.648 252.679 167.236 255.389 183.669C256.95 193.154 255.788 203.13 250.563 211.355C243.454 222.557 229.674 227.285 218.126 232.481H57.4417C57.4417 232.481 47.6157 230.747 35.4777 206.471C23.3397 182.195 33.1657 164.277 48.1937 146.359C55.9447 137.111 56.5054 126.592 55.2338 115.112C54.5909 109.785 54.4708 104.407 54.8754 99.0556Z" fill="white"/>
<path d="M240.114 180.016C239.837 178.161 239.496 176.323 239.109 174.508L221.711 182.941L240.114 180.016Z" fill="#E59D33"/>
<path d="M154.114 115.473C154.114 115.473 102.672 135.957 74.8642 145.893C70.2297 153.319 66.7106 161.385 64.4197 169.834L108.59 150.534L73.6388 173.4L99.0708 168.955L98.435 172.128L167.044 153.713L67.9224 198.832L83.17 184.85L61.2696 193.231V193.404C61.256 204.492 63.2981 215.487 67.2924 225.83L164.495 188.665L111.111 216.628L206.434 182.307L181.002 188.029L216.596 170.232H196.926L233.514 157.216C232.307 154.48 230.974 151.819 229.514 149.234L156.252 174.047L224.526 141.373C216.599 130.198 206.223 120.982 194.19 114.431C182.158 107.879 168.787 104.164 155.099 103.569C141.411 102.975 127.768 105.516 115.213 111.001C102.657 116.485 91.5213 124.766 82.6556 135.211L154.114 115.473Z" fill="#E59D33"/>
<path d="M216.629 217.901C215.01 217.901 229.581 210.19 240.407 204.578C241.321 197.2 241.321 189.737 240.407 182.359L149.263 220.432L173.4 202.006L89.8789 232.507H232.171C235.031 226.587 237.226 220.368 238.714 213.964C231.067 215.461 218.386 217.901 216.629 217.901Z" fill="#E59D33"/>
<g opacity="0.3">
<path d="M240.114 180.016C239.837 178.161 239.496 176.323 239.109 174.508L221.711 182.941L240.114 180.016Z" fill="white"/>
<path d="M154.114 115.473C154.114 115.473 102.672 135.957 74.8642 145.893C70.2297 153.319 66.7106 161.385 64.4197 169.834L108.59 150.534L73.6388 173.4L99.0708 168.955L98.435 172.128L167.044 153.713L67.9224 198.832L83.17 184.85L61.2696 193.231V193.404C61.256 204.492 63.2981 215.487 67.2924 225.83L164.495 188.665L111.111 216.628L206.434 182.307L181.002 188.029L216.596 170.232H196.926L233.514 157.216C232.307 154.48 230.974 151.819 229.514 149.234L156.252 174.047L224.526 141.373C216.599 130.198 206.223 120.982 194.19 114.431C182.158 107.879 168.787 104.164 155.099 103.569C141.411 102.975 127.768 105.516 115.213 111.001C102.657 116.485 91.5213 124.766 82.6556 135.211L154.114 115.473Z" fill="white"/>
<path d="M216.63 217.908C215.012 217.908 229.583 210.198 240.409 204.586C241.323 197.208 241.323 189.745 240.409 182.367L149.265 220.44L173.402 202.013L89.8809 232.514H232.173C235.033 226.595 237.228 220.376 238.716 213.972C231.069 215.469 218.388 217.908 216.63 217.908Z" fill="white"/>
</g>
<path d="M127.231 89.7434C135.69 89.7434 142.548 82.8857 142.548 74.4264C142.548 65.967 135.69 59.1094 127.231 59.1094C118.772 59.1094 111.914 65.967 111.914 74.4264C111.914 82.8857 118.772 89.7434 127.231 89.7434Z" fill="white"/>
<path d="M251.211 232.508H256.991" stroke="#2E353A" stroke-miterlimit="10"/>
<path d="M61.0488 232.508H246.587" stroke="#2E353A" stroke-miterlimit="10"/>
<path d="M64.084 232.507L94.8856 207.219C95.0658 207.092 95.2701 207.003 95.4859 206.957C95.7018 206.911 95.9247 206.91 96.141 206.953C96.3574 206.997 96.5626 207.084 96.7443 207.209C96.926 207.334 97.0802 207.495 97.1976 207.682C98.1166 209.057 96.2786 218.716 96.2786 218.716L101.336 219.178L102.255 222.392L105.475 225.611L105.931 232.507H64.084Z" fill="#2E353A" stroke="#2E353A" stroke-miterlimit="10"/>
<path d="M38.7904 231.44L58.5638 217.186C58.5638 217.186 61.7832 216.73 61.3208 219.943C60.8584 223.157 56.2633 226.845 56.2633 226.845L56.7257 230.521L57.4425 232.509H34.1953L38.7904 231.44Z" fill="#2E353A" stroke="#2E353A" stroke-miterlimit="10"/>
<path d="M202.61 88.8886L159.727 86.2807C156.964 86.1128 154.588 88.216 154.42 90.9786L151.544 138.281C151.376 141.044 153.479 143.42 156.242 143.588L199.125 146.195C201.888 146.363 204.263 144.26 204.431 141.498L207.308 94.1948C207.476 91.4323 205.373 89.0566 202.61 88.8886Z" fill="#E59D33" stroke="#2E353A" stroke-miterlimit="10"/>
<path d="M149.655 111.226C149.655 111.226 146.378 115.272 136.748 118.162C127.119 121.052 124.801 122.595 124.801 122.595C124.801 122.595 119.212 124.52 117.287 129.334C115.362 134.149 116.518 136.658 127.691 135.889C138.864 135.12 161.984 126.063 161.984 126.063C161.984 126.063 166.226 118.352 165.261 111.804C164.296 105.255 151.58 108.526 149.655 111.226Z" fill="white"/>
<mask id="mask0_6787_1271" style="mask-type:luminance" maskUnits="userSpaceOnUse" x="116" y="107" width="50" height="30">
<path d="M149.655 111.226C149.655 111.226 146.378 115.272 136.748 118.162C127.119 121.052 124.801 122.595 124.801 122.595C124.801 122.595 119.212 124.52 117.287 129.334C115.362 134.149 116.518 136.658 127.691 135.889C138.864 135.12 161.984 126.063 161.984 126.063C161.984 126.063 166.226 118.352 165.261 111.804C164.296 105.255 151.58 108.526 149.655 111.226Z" fill="white"/>
</mask>
<g mask="url(#mask0_6787_1271)">
<g style="mix-blend-mode:multiply" opacity="0.49">
<path d="M123.883 131.591C123.883 131.591 124.108 133.793 124.311 136.024C125.322 136.024 126.438 135.978 127.692 135.891C138.865 135.117 161.985 126.065 161.985 126.065C163.629 122.926 164.736 119.535 165.262 116.031L163.961 112.32C163.961 112.32 157.407 119.644 151.245 123.88C145.084 128.117 123.883 131.591 123.883 131.591Z" fill="#E59D33"/>
</g>
</g>
<path d="M149.655 111.226C149.655 111.226 146.378 115.272 136.748 118.162C127.119 121.052 124.801 122.595 124.801 122.595C124.801 122.595 119.212 124.52 117.287 129.334C115.362 134.149 116.518 136.658 127.691 135.889C138.864 135.12 161.984 126.063 161.984 126.063C161.984 126.063 166.226 118.352 165.261 111.804C164.296 105.255 151.58 108.526 149.655 111.226Z" stroke="#2E353A" stroke-miterlimit="10"/>
<path d="M125.199 132.794C125.199 132.794 148.209 129.222 159.602 122.742" stroke="#2E353A" stroke-width="0.5" stroke-miterlimit="10"/>
<path d="M144.564 132.105C145.246 129.874 145.974 125.949 144.454 122.019C143.655 119.891 142.128 118.115 140.142 117.008C139.108 117.407 137.981 117.794 136.749 118.164L135.854 118.435C137.877 119.678 141.108 122.354 141.373 126.834C141.539 128.915 141.502 131.008 141.264 133.082C142.368 132.764 143.472 132.44 144.564 132.105Z" fill="#2E353A" stroke="#2E353A" stroke-miterlimit="10"/>
<path d="M165.308 101.771C164.363 100.842 163.243 100.109 162.013 99.6154C153.742 96.4711 149.297 105.921 147.76 112.383C147.76 112.383 149.684 113.927 154.499 113.152C159.314 112.378 166.25 109.106 167.025 106.407C167.475 104.725 166.585 103.066 165.308 101.771Z" fill="#2E353A" stroke="#2E353A" stroke-miterlimit="10"/>
<path d="M126.344 124.714C126.344 124.714 126.344 129.147 123.257 130.303C120.171 131.459 117.287 129.338 117.287 129.338C117.287 129.338 116.709 120.864 117.477 119.321C118.246 117.778 124.991 121.055 126.344 124.714Z" fill="white" stroke="#2E353A" stroke-miterlimit="10"/>
<path d="M170.406 100.127C170.406 100.127 165.204 100.844 163.932 102.439C162.66 104.035 155.661 141.998 155.303 143.078C154.944 144.159 156.378 147.575 160.874 152.43C165.371 157.286 170.943 158.725 176.336 159.083C181.729 159.442 194.497 156.771 197.554 153.881C200.612 150.991 200.254 143.448 200.254 139.316C200.254 135.183 201.872 106.768 200.791 104.254C199.71 101.74 192.699 99.5781 191.624 99.5781C190.549 99.5781 171.666 99.948 170.406 100.127Z" fill="white"/>
<mask id="mask1_6787_1271" style="mask-type:luminance" maskUnits="userSpaceOnUse" x="155" y="99" width="47" height="61">
<path d="M170.406 100.127C170.406 100.127 165.204 100.844 163.932 102.439C162.66 104.035 155.661 141.998 155.303 143.078C154.944 144.159 156.378 147.575 160.874 152.43C165.371 157.286 170.943 158.725 176.336 159.083C181.729 159.442 194.497 156.771 197.554 153.881C200.612 150.991 200.254 143.448 200.254 139.316C200.254 135.183 201.872 106.768 200.791 104.254C199.71 101.74 192.699 99.5781 191.624 99.5781C190.549 99.5781 171.666 99.948 170.406 100.127Z" fill="white"/>
</mask>
<g mask="url(#mask1_6787_1271)">
<g style="mix-blend-mode:multiply" opacity="0.49">
<path d="M200.255 139.323C200.255 135.185 201.873 106.776 200.792 104.256C199.711 101.736 192.7 99.5859 191.625 99.5859C190.55 99.5859 171.661 99.9443 170.407 100.123C169.459 100.267 168.519 100.46 167.592 100.701C169.904 104.747 174.967 110.666 184.77 111.169C188.597 111.41 192.438 111 196.128 109.955L194.018 133.515L177.672 131.977L189.775 138.526L190.55 148.543L199.278 150.941C200.451 147.387 200.255 142.41 200.255 139.323Z" fill="#E59D33"/>
</g>
</g>
<path d="M170.406 100.127C170.406 100.127 165.204 100.844 163.932 102.439C162.66 104.035 155.661 141.998 155.303 143.078C154.944 144.159 156.378 147.575 160.874 152.43C165.371 157.286 170.943 158.725 176.336 159.083C181.729 159.442 194.497 156.771 197.554 153.881C200.612 150.991 200.254 143.448 200.254 139.316C200.254 135.183 201.872 106.768 200.791 104.254C199.71 101.74 192.699 99.5781 191.624 99.5781C190.549 99.5781 171.666 99.948 170.406 100.127Z" stroke="#2E353A" stroke-miterlimit="10"/>
<path d="M178.746 140.03C170.521 140.03 160.383 127.314 159.955 126.794L161.313 125.719C161.417 125.846 171.359 138.296 178.746 138.296C180.89 138.296 182.324 137.782 183.006 136.764C184.046 135.215 183.116 132.828 183.104 132.805L184.711 132.146C184.763 132.279 186.011 135.4 184.445 137.735C183.422 139.256 181.491 140.03 178.746 140.03Z" fill="#2E353A" stroke="#2E353A" stroke-miterlimit="10"/>
<path d="M152.481 144.189C152.984 143.744 153.637 143.172 154.215 142.727C153.753 142.669 151.267 142.299 150.574 140.56C149.88 138.82 150.967 136.265 153.631 132.941C161.764 122.815 174.723 120.682 174.855 120.665L174.595 118.867C174.017 118.954 160.868 121.11 152.302 131.78C149.14 135.716 148.025 138.906 148.978 141.265C149.31 141.98 149.796 142.614 150.402 143.119C151.008 143.625 151.718 143.991 152.481 144.189Z" fill="#2E353A" stroke="#2E353A" stroke-miterlimit="10"/>
<path d="M176.799 117.833L174.104 117.688L173.881 121.82L176.577 121.965L176.799 117.833Z" fill="white" stroke="#2E353A" stroke-miterlimit="10"/>
<path d="M181.915 130.993L181.752 133.688L185.883 133.937L186.046 131.243L181.915 130.993Z" fill="white" stroke="#2E353A" stroke-miterlimit="10"/>
<path d="M176.341 113.803L175.26 129.184C175.214 129.873 175.44 130.553 175.891 131.077C176.342 131.6 176.981 131.925 177.67 131.982L192.819 133.178C193.174 133.206 193.531 133.161 193.868 133.046C194.205 132.931 194.516 132.749 194.78 132.51C195.044 132.272 195.258 131.982 195.406 131.659C195.555 131.335 195.637 130.985 195.646 130.629L196.05 114.584C196.068 113.894 195.812 113.226 195.339 112.723C194.866 112.221 194.214 111.926 193.525 111.902L179.075 111.37C178.391 111.338 177.723 111.575 177.212 112.03C176.701 112.484 176.388 113.121 176.341 113.803Z" fill="white" stroke="#2E353A" stroke-miterlimit="10"/>
<path d="M183.259 111.516L182.809 121.342L187.664 121.7L188.288 111.701L183.259 111.516Z" fill="#E59D33" stroke="#2E353A" stroke-miterlimit="10"/>
<path d="M194.676 126.198C194.676 126.803 194.496 127.395 194.16 127.898C193.824 128.401 193.346 128.792 192.787 129.024C192.228 129.255 191.613 129.315 191.02 129.197C190.426 129.078 189.881 128.786 189.454 128.358C189.027 127.93 188.736 127.385 188.619 126.791C188.501 126.198 188.563 125.583 188.795 125.024C189.027 124.466 189.42 123.988 189.924 123.653C190.427 123.318 191.019 123.139 191.624 123.141C192.025 123.141 192.423 123.22 192.793 123.373C193.164 123.527 193.5 123.753 193.784 124.037C194.067 124.321 194.292 124.658 194.445 125.029C194.598 125.4 194.677 125.797 194.676 126.198Z" fill="#E59D33" stroke="#2E353A" stroke-miterlimit="10"/>
<path d="M116.42 138.109C116.42 138.109 120.755 138.878 123.743 136.664C126.732 134.45 125.09 130.497 122.391 128.283C119.691 126.069 114.206 125.393 111.987 126.451C109.767 127.508 110.929 131.653 111.605 133.872C112.282 136.092 113.432 137.722 116.42 138.109Z" fill="white" stroke="#2E353A" stroke-miterlimit="10"/>
<path d="M94.5256 66.8281C94.5256 66.8281 97.2479 75.3941 87.6185 80.4053C77.989 85.4166 73.3592 85.0293 62.1865 92.3468C51.0137 99.6643 48.3145 115.854 48.3145 115.854C48.3145 115.854 51.0079 108.918 63.7239 108.149C76.4399 107.381 89.1559 106.872 94.1672 106.606C101.49 106.219 105.34 101.982 105.34 101.982L94.5256 66.8281Z" fill="#E59D33" stroke="#2E353A" stroke-miterlimit="10"/>
<path d="M138.251 209.136L94.5252 66.8262C94.4691 66.6448 94.4494 66.4541 94.4674 66.2651C94.4853 66.0761 94.5404 65.8924 94.6296 65.7248C94.7188 65.5572 94.8402 65.4089 94.987 65.2884C95.1338 65.1679 95.3029 65.0777 95.4847 65.0229C95.8503 64.9125 96.2447 64.9507 96.5823 65.1292C96.9199 65.3078 97.1735 65.6122 97.2881 65.9766L141.031 208.298L138.251 209.136Z" fill="#2E353A" stroke="#2E353A" stroke-miterlimit="10"/>
<path d="M111.605 138.103C111.605 138.103 111.119 139.837 113.24 140.317C115.362 140.797 119.02 139.739 118.83 137.913C118.639 136.086 117.188 135.693 115.651 135.89C114.113 136.086 111.605 137.236 111.605 138.103Z" fill="white" stroke="#2E353A" stroke-miterlimit="10"/>
<path d="M113.431 132.133C113.431 132.133 108.062 132.977 107.836 134.133C107.611 135.289 108.033 137.983 109.466 138.387C110.9 138.792 115.645 138.318 116.501 136.786C117.356 135.255 116.177 132.33 115.073 132.012C114.809 131.904 114.523 131.859 114.238 131.88C113.953 131.901 113.677 131.988 113.431 132.133Z" fill="white" stroke="#2E353A" stroke-miterlimit="10"/>
<path d="M111.923 128.434C111.923 128.434 106.548 129.278 106.323 130.44C106.097 131.601 106.519 134.283 107.958 134.688C109.398 135.093 114.131 134.624 114.993 133.093C115.854 131.561 114.663 128.636 113.565 128.318C113.301 128.21 113.015 128.164 112.731 128.184C112.446 128.204 112.17 128.29 111.923 128.434Z" fill="white" stroke="#2E353A" stroke-miterlimit="10"/>
<path d="M110.795 122.878C110.795 122.878 104.917 122.543 104.437 123.722C103.958 124.901 103.761 127.832 105.189 128.589C106.616 129.346 111.737 129.936 112.997 128.508C114.258 127.081 113.674 123.722 112.581 123.133C112.324 122.954 112.029 122.838 111.719 122.793C111.408 122.749 111.092 122.778 110.795 122.878Z" fill="white" stroke="#2E353A" stroke-miterlimit="10"/>
<path d="M118.947 125.28C118.947 125.28 120.392 122.326 119.357 120.124C118.322 117.922 116.057 118.39 115.097 119.089C114.478 119.56 113.975 120.167 113.629 120.864C113.629 120.864 116.057 120.812 117.097 121.841C118.137 122.869 118.947 125.28 118.947 125.28Z" fill="#2E353A" stroke="#2E353A" stroke-miterlimit="10"/>
<path d="M118.489 121.549C118.418 121.261 118.275 120.996 118.072 120.78C117.87 120.563 117.616 120.402 117.333 120.312C116.177 119.936 114.27 119.543 113.617 120.89C112.651 122.815 112.651 127.826 115.541 128.785C118.431 129.745 119.2 127.439 119.009 124.936C118.926 123.795 118.752 122.662 118.489 121.549Z" fill="white" stroke="#2E353A" stroke-miterlimit="10"/>
<path d="M200.2 145.042C196.732 142.579 190.288 140.221 184.334 143.984C178.381 147.747 178.288 156.151 178.462 159.11C184.537 158.838 194.848 156.434 197.536 153.908C199.455 152.099 200.033 148.498 200.2 145.042Z" fill="#2E353A" stroke="#2E353A" stroke-miterlimit="10"/>
<path d="M183.531 184.635C183.049 185.161 182.7 185.795 182.512 186.483C182.324 187.172 182.303 187.895 182.45 188.594C182.988 190.906 182.45 211.246 182.45 211.246C182.45 211.246 182.63 216.101 191.08 217.361C199.53 218.621 202.409 216.28 202.409 216.28C202.409 216.28 202.23 190.75 202.05 187.871C201.964 186.191 201.402 184.57 200.432 183.195L183.531 184.635Z" fill="white"/>
<mask id="mask2_6787_1271" style="mask-type:luminance" maskUnits="userSpaceOnUse" x="182" y="183" width="21" height="35">
<path d="M183.531 184.635C183.049 185.161 182.7 185.795 182.512 186.483C182.324 187.172 182.303 187.895 182.45 188.594C182.988 190.906 182.45 211.246 182.45 211.246C182.45 211.246 182.63 216.101 191.08 217.361C199.53 218.621 202.409 216.28 202.409 216.28C202.409 216.28 202.23 190.75 202.05 187.871C201.964 186.191 201.402 184.57 200.432 183.195L183.531 184.635Z" fill="white"/>
</mask>
<g mask="url(#mask2_6787_1271)">
<g style="mix-blend-mode:multiply" opacity="0.49">
<path d="M200.432 183.227L183.531 184.666C183.049 185.192 182.7 185.826 182.512 186.515C182.324 187.203 182.303 187.927 182.45 188.625C182.647 189.463 182.699 192.625 182.687 196.33L198.923 217.519C201.42 217.109 202.391 216.311 202.391 216.311C202.391 216.311 202.212 190.781 202.033 187.903C201.951 186.224 201.396 184.603 200.432 183.227Z" fill="#E59D33"/>
</g>
</g>
<path d="M183.531 184.635C183.049 185.161 182.7 185.795 182.512 186.483C182.324 187.172 182.303 187.895 182.45 188.594C182.988 190.906 182.45 211.246 182.45 211.246C182.45 211.246 182.63 216.101 191.08 217.361C199.53 218.621 202.409 216.28 202.409 216.28C202.409 216.28 202.23 190.75 202.05 187.871C201.964 186.191 201.402 184.57 200.432 183.195L183.531 184.635Z" stroke="#2E353A" stroke-miterlimit="10"/>
<path d="M200.074 147.595C200.074 147.595 198.097 145.075 190.739 145.433C183.381 145.792 180.133 154.606 180.335 156.415C180.537 158.224 181.589 182.31 182.312 184.286C183.034 186.263 191.3 188.061 197.415 186.986C203.53 185.911 204.068 180.512 203.351 176.732C202.634 172.952 201.553 150.843 201.553 150.144C201.553 149.445 200.97 148.67 200.074 147.595Z" fill="white"/>
<mask id="mask3_6787_1271" style="mask-type:luminance" maskUnits="userSpaceOnUse" x="180" y="145" width="24" height="43">
<path d="M200.074 147.595C200.074 147.595 198.097 145.075 190.739 145.433C183.381 145.792 180.133 154.606 180.335 156.415C180.537 158.224 181.589 182.31 182.312 184.286C183.034 186.263 191.3 188.061 197.415 186.986C203.53 185.911 204.068 180.512 203.351 176.732C202.634 172.952 201.553 150.843 201.553 150.144C201.553 149.445 200.97 148.67 200.074 147.595Z" fill="white"/>
</mask>
<g mask="url(#mask3_6787_1271)">
<g style="mix-blend-mode:multiply" opacity="0.49">
<path d="M203.311 176.72C202.589 172.946 201.514 150.831 201.514 150.132C201.514 149.433 200.97 148.693 200.074 147.618C199.693 147.216 199.238 146.892 198.733 146.664L197.866 147.022C197.866 147.022 198.254 150.878 198.254 155.889C198.254 160.9 197.098 177.853 197.098 177.853L180.914 159.738L180.746 164.414C181.174 172.212 181.798 183.003 182.272 184.298C182.989 186.274 191.26 188.072 197.375 186.997C203.49 185.922 204.034 180.5 203.311 176.72Z" fill="#E59D33"/>
</g>
</g>
<path d="M200.074 147.595C200.074 147.595 198.097 145.075 190.739 145.433C183.381 145.792 180.133 154.606 180.335 156.415C180.537 158.224 181.589 182.31 182.312 184.286C183.034 186.263 191.3 188.061 197.415 186.986C203.53 185.911 204.068 180.512 203.351 176.732C202.634 172.952 201.553 150.843 201.553 150.144C201.553 149.445 200.97 148.67 200.074 147.595Z" stroke="#2E353A" stroke-miterlimit="10"/>
<path d="M182.809 184.994C182.809 184.994 188.011 189.67 194.137 189.312C200.264 188.954 201.871 184.994 201.871 184.994C201.871 184.994 202.409 183.197 195.397 181.578C188.386 179.96 182.809 184.994 182.809 184.994Z" fill="#2E353A" stroke="#2E353A" stroke-miterlimit="10"/>
<path d="M180.202 106.758C189.661 106.758 197.328 98.4767 197.328 88.2616C197.328 78.0466 189.661 69.7656 180.202 69.7656C170.744 69.7656 163.076 78.0466 163.076 88.2616C163.076 98.4767 170.744 106.758 180.202 106.758Z" fill="#2E353A" stroke="#2E353A" stroke-miterlimit="10"/>
<path d="M180.203 104.695C190.89 104.695 199.554 96.4142 199.554 86.1991C199.554 75.9841 190.89 67.7031 180.203 67.7031C169.515 67.7031 160.852 75.9841 160.852 86.1991C160.852 96.4142 169.515 104.695 180.203 104.695Z" fill="white"/>
<mask id="mask4_6787_1271" style="mask-type:luminance" maskUnits="userSpaceOnUse" x="160" y="67" width="40" height="38">
<path d="M180.203 104.695C190.89 104.695 199.554 96.4142 199.554 86.1991C199.554 75.9841 190.89 67.7031 180.203 67.7031C169.515 67.7031 160.852 75.9841 160.852 86.1991C160.852 96.4142 169.515 104.695 180.203 104.695Z" fill="white"/>
</mask>
<g mask="url(#mask4_6787_1271)">
<g style="mix-blend-mode:multiply" opacity="0.49">
<path d="M187.607 69.1172C188.266 77.6022 186.15 91.8673 167.094 99.809C170.722 102.981 175.383 104.72 180.203 104.699C190.89 104.699 199.554 96.4219 199.554 86.2029C199.554 78.4981 194.618 71.8916 187.607 69.1172Z" fill="#E59D33"/>
</g>
</g>
<path d="M180.203 104.695C190.89 104.695 199.554 96.4142 199.554 86.1991C199.554 75.9841 190.89 67.7031 180.203 67.7031C169.515 67.7031 160.852 75.9841 160.852 86.1991C160.852 96.4142 169.515 104.695 180.203 104.695Z" stroke="#2E353A" stroke-miterlimit="10"/>
<path d="M160.592 85.1756C161.773 85.1756 162.73 84.2182 162.73 83.037C162.73 81.8559 161.773 80.8984 160.592 80.8984C159.411 80.8984 158.453 81.8559 158.453 83.037C158.453 84.2182 159.411 85.1756 160.592 85.1756Z" fill="white" stroke="#2E353A" stroke-miterlimit="10"/>
<path d="M160.592 84.3163C161.3 84.3163 161.875 83.7418 161.875 83.0332C161.875 82.3245 161.3 81.75 160.592 81.75C159.883 81.75 159.309 82.3245 159.309 83.0332C159.309 83.7418 159.883 84.3163 160.592 84.3163Z" fill="white" stroke="#2E353A" stroke-miterlimit="10"/>
<path d="M179.943 101.784C188.692 101.784 195.786 95.8424 195.786 88.5131C195.786 81.1838 188.692 75.2422 179.943 75.2422C171.193 75.2422 164.1 81.1838 164.1 88.5131C164.1 95.8424 171.193 101.784 179.943 101.784Z" fill="#2E353A" stroke="#2E353A" stroke-miterlimit="10"/>
<path d="M167.174 82.1413V88.3085L168.162 83.621L170.873 89.2969V82.8811L181.491 98.175L174.092 81.1529H177.56L175.092 78.9334L179.531 77.7022L173.861 77.2109C173.861 77.2109 169.393 78.4421 167.174 82.1413Z" fill="#E59D33"/>
<path d="M212.368 111.468L212.836 111.734C215.299 113.121 226.708 119.647 229.448 122.612C232.488 125.941 225.402 130.866 219.316 132.311C213.229 133.756 201.513 123.485 199.774 121.456C198.034 119.427 196.444 108.572 200.496 106.549C204.548 104.526 212.368 111.468 212.368 111.468Z" fill="white"/>
<mask id="mask5_6787_1271" style="mask-type:luminance" maskUnits="userSpaceOnUse" x="197" y="106" width="34" height="27">
<path d="M212.368 111.468L212.836 111.734C215.299 113.121 226.708 119.647 229.448 122.612C232.488 125.941 225.402 130.866 219.316 132.311C213.229 133.756 201.513 123.485 199.774 121.456C198.034 119.427 196.444 108.572 200.496 106.549C204.548 104.526 212.368 111.468 212.368 111.468Z" fill="white"/>
</mask>
<g mask="url(#mask5_6787_1271)">
<g style="mix-blend-mode:multiply" opacity="0.49">
<path d="M229.466 122.61C226.755 119.645 215.316 113.119 212.854 111.732L212.386 111.466C212.386 111.466 204.565 104.53 200.514 106.548C196.462 108.565 198.057 119.431 199.791 121.454C201.619 123.335 203.603 125.058 205.721 126.604L216.75 116.94L229.882 125.61C230.134 125.129 230.229 124.581 230.154 124.043C230.079 123.506 229.839 123.005 229.466 122.61Z" fill="#E59D33"/>
</g>
</g>
<path d="M212.368 111.468L212.836 111.734C215.299 113.121 226.708 119.647 229.448 122.612C232.488 125.941 225.402 130.866 219.316 132.311C213.229 133.756 201.513 123.485 199.774 121.456C198.034 119.427 196.444 108.572 200.496 106.549C204.548 104.526 212.368 111.468 212.368 111.468Z" stroke="#2E353A" stroke-miterlimit="10"/>
<path d="M196.184 101.771C197.13 100.843 198.249 100.11 199.479 99.6154C207.756 96.4711 212.195 105.921 213.738 112.383C213.738 112.383 211.808 113.927 206.993 113.152C202.178 112.378 195.242 109.106 194.468 106.407C193.988 104.725 194.878 103.066 196.184 101.771Z" fill="#2E353A" stroke="#2E353A" stroke-miterlimit="10"/>
<path d="M212.225 129.419C212.225 129.419 220.184 120.015 225.831 119.871C231.478 119.726 234.09 124.067 233.512 127.541C232.934 131.015 228.594 134.922 228.594 134.922C228.594 134.922 231.634 124.518 227.143 124.518C222.652 124.518 212.225 129.419 212.225 129.419Z" fill="#2E353A" stroke="#2E353A" stroke-miterlimit="10"/>
<path d="M209.328 131.591C209.328 131.591 218.882 123.776 225.685 122.765C232.488 121.753 234.933 130.001 228.575 134.903C222.217 139.804 218.004 141.839 213.518 141.261C209.033 140.683 205.421 136.226 209.328 131.591Z" fill="white"/>
<mask id="mask6_6787_1271" style="mask-type:luminance" maskUnits="userSpaceOnUse" x="207" y="122" width="26" height="20">
<path d="M209.328 131.591C209.328 131.591 218.882 123.776 225.685 122.765C232.488 121.753 234.933 130.001 228.575 134.903C222.217 139.804 218.004 141.839 213.518 141.261C209.033 140.683 205.421 136.226 209.328 131.591Z" fill="white"/>
</mask>
<g mask="url(#mask6_6787_1271)">
<g style="mix-blend-mode:multiply" opacity="0.49">
<path d="M229.54 123.328C229.638 125.01 229.135 129.316 222.141 132.356C213.28 136.212 211.5 136.223 211.5 136.223C211.763 137.655 211.518 139.133 210.807 140.402C211.65 140.863 212.571 141.163 213.523 141.287C218.009 141.865 222.193 139.842 228.58 134.929C233.51 131.096 233.141 125.27 229.54 123.328Z" fill="#E59D33"/>
</g>
</g>
<path d="M209.328 131.591C209.328 131.591 218.882 123.776 225.685 122.765C232.488 121.753 234.933 130.001 228.575 134.903C222.217 139.804 218.004 141.839 213.518 141.261C209.033 140.683 205.421 136.226 209.328 131.591Z" stroke="#2E353A" stroke-miterlimit="10"/>
<path d="M216.119 139.715C216.119 139.715 229.991 133.935 232.425 125.641" stroke="#2E353A" stroke-width="0.5" stroke-miterlimit="10"/>
<path d="M205.854 134.632C205.854 134.632 207.588 132.32 210.05 132.025C212.512 131.731 215.119 135.21 215.986 138.106C216.853 141.002 215.697 142.447 214.391 142.88C213.084 143.314 205.854 134.632 205.854 134.632Z" fill="#2E353A" stroke="#2E353A" stroke-miterlimit="10"/>
<path d="M214.391 142.879C214.391 142.879 215.264 140.133 211.501 136.226C207.739 132.319 206.432 134.492 203.103 136.37C199.774 138.249 198.618 141.572 200.063 143.884C201.508 146.196 202.092 147.647 206.421 148.37C210.75 149.092 213.224 144.607 213.224 144.607C213.806 144.187 214.22 143.575 214.391 142.879Z" fill="white"/>
<mask id="mask7_6787_1271" style="mask-type:luminance" maskUnits="userSpaceOnUse" x="199" y="134" width="16" height="15">
<path d="M214.391 142.879C214.391 142.879 215.264 140.133 211.501 136.226C207.739 132.319 206.432 134.492 203.103 136.37C199.774 138.249 198.618 141.572 200.063 143.884C201.508 146.196 202.092 147.647 206.421 148.37C210.75 149.092 213.224 144.607 213.224 144.607C213.806 144.187 214.22 143.575 214.391 142.879Z" fill="white"/>
</mask>
<g mask="url(#mask7_6787_1271)">
<g style="mix-blend-mode:multiply" opacity="0.49">
<path d="M208.269 142.379C205.672 143.239 203.005 143.875 200.299 144.28C201.588 146.372 202.333 147.702 206.431 148.384C210.772 149.106 213.234 144.621 213.234 144.621C213.813 144.198 214.223 143.584 214.39 142.887C214.39 142.887 215.263 140.142 211.5 136.234C211.5 136.229 212.512 140.841 208.269 142.379Z" fill="#E59D33"/>
</g>
</g>
<path d="M214.391 142.879C214.391 142.879 215.264 140.133 211.501 136.226C207.739 132.319 206.432 134.492 203.103 136.37C199.774 138.249 198.618 141.572 200.063 143.884C201.508 146.196 202.092 147.647 206.421 148.37C210.75 149.092 213.224 144.607 213.224 144.607C213.806 144.187 214.22 143.575 214.391 142.879Z" stroke="#2E353A" stroke-miterlimit="10"/>
<path d="M213.235 144.617C213.235 144.617 209.906 146.646 207.877 146.79L213.235 144.617Z" fill="white"/>
<path d="M213.235 144.617C213.235 144.617 209.906 146.646 207.877 146.79" stroke="#2E353A" stroke-miterlimit="10"/>
<path d="M116.901 239.156C116.901 239.156 111.508 235.307 116.519 230.295C121.53 225.284 124.993 226.44 126.923 221.816C128.854 217.192 130.773 208.719 145.032 203.707C159.291 198.696 173.545 202.939 180.481 207.944C187.417 212.95 200.133 216.423 207.069 215.655C214.005 214.886 222.484 221.816 223.64 227.983C224.796 234.151 227.108 234.919 228.264 236.075C229.42 237.231 230.576 240.312 230.576 240.312H125.767C125.767 240.312 119.6 241.087 116.901 239.156Z" fill="#2E353A" stroke="#2E353A" stroke-miterlimit="10"/>
<path d="M215.789 221.883C215.789 221.883 219.084 226.819 217.026 230.94C214.968 235.061 211.246 235.055 211.246 235.055" stroke="white" stroke-miterlimit="10"/>
<path d="M209.616 232.594C209.616 232.594 209.616 234.235 203.836 236.299" stroke="white" stroke-miterlimit="10"/>
<path d="M155.481 237.93C153.66 238.444 152.389 238.762 152.389 238.762" stroke="white" stroke-miterlimit="10"/>
<path d="M174.26 219.57C172.352 221.166 170.295 223.327 169.676 225.593C168.445 230.119 170.503 230.945 167.208 233.413C165.376 234.789 161 236.303 157.48 237.35" stroke="white" stroke-miterlimit="10"/>
<path d="M177.914 216.945C177.914 216.945 177.128 217.408 176.035 218.188" stroke="white" stroke-miterlimit="10"/>
<path d="M160.209 231.352C160.209 231.352 154.429 235.057 149.504 236.704C144.58 238.351 133.447 235.467 133.447 235.467" stroke="white" stroke-miterlimit="10"/>
<path d="M131.865 232.642C129.864 231.707 128.139 230.269 126.859 228.469" stroke="white" stroke-miterlimit="10"/>
<path d="M137.563 234.235C136.456 234.137 135.364 233.922 134.303 233.594" stroke="white" stroke-miterlimit="10"/>
<path d="M166.995 142.443C162.33 138.519 158.296 138.975 155.978 139.813C155.608 141.709 155.36 142.923 155.302 143.102C154.938 144.183 156.377 147.599 160.874 152.454C163.748 155.545 167.525 157.649 171.665 158.465C172.781 154.125 173.006 147.506 166.995 142.443Z" fill="#2E353A" stroke="#2E353A" stroke-miterlimit="10"/>
<path d="M150.279 202.434C150.279 202.434 141.812 206.919 141.609 211.786C141.407 216.653 146.465 216.641 152.013 215.202C157.562 213.763 164.776 207.826 166.036 207.289C167.296 206.751 171.608 204.231 170.712 200.636C169.816 197.041 164.932 193.625 164.932 193.625L150.279 202.434Z" fill="white" stroke="#2E353A" stroke-miterlimit="10"/>
<path d="M170.822 201C165.978 204.508 155.216 212.034 150.447 213.404C148.974 213.877 147.409 213.997 145.88 213.755C144.351 213.513 142.9 212.916 141.645 212.011C141.645 216.635 146.581 216.635 152.049 215.201C157.62 213.762 164.811 207.826 166.071 207.289C167.331 206.751 171.354 204.399 170.822 201Z" fill="#E59D33" stroke="#2E353A" stroke-miterlimit="10"/>
<path d="M140.558 182.476C140.558 182.476 146.309 200.972 148.465 202.793C150.621 204.613 159.794 203.151 159.794 203.151C159.794 203.151 161.771 206.752 163.21 208.353C164.649 209.954 168.99 208.711 169.146 204.214C169.302 199.718 166.626 193.429 166.626 193.429L160.517 176.522C160.517 176.522 153.32 175.083 146.645 176.522C139.969 177.962 140.558 182.476 140.558 182.476Z" fill="white"/>
<mask id="mask8_6787_1271" style="mask-type:luminance" maskUnits="userSpaceOnUse" x="140" y="175" width="30" height="35">
<path d="M140.558 182.476C140.558 182.476 146.309 200.972 148.465 202.793C150.621 204.613 159.794 203.151 159.794 203.151C159.794 203.151 161.771 206.752 163.21 208.353C164.649 209.954 168.99 208.711 169.146 204.214C169.302 199.718 166.626 193.429 166.626 193.429L160.517 176.522C160.517 176.522 153.32 175.083 146.645 176.522C139.969 177.962 140.558 182.476 140.558 182.476Z" fill="white"/>
</mask>
<g mask="url(#mask8_6787_1271)">
<g style="mix-blend-mode:multiply" opacity="0.49">
<path d="M169.146 204.23C169.325 199.733 166.626 193.444 166.626 193.444L160.517 176.538C156.701 175.864 152.809 175.735 148.957 176.156C147.502 176.636 146.01 176.99 144.495 177.214C143.328 177.662 142.306 178.422 141.541 179.411C143.073 179.902 144.818 180.422 146.639 180.908C152.419 182.451 154.344 180.139 155.5 184.763C156.656 189.387 157.962 198.808 159.812 203.149C159.812 203.149 161.788 206.75 163.228 208.351C164.667 209.952 168.967 208.727 169.146 204.23Z" fill="#E59D33"/>
</g>
</g>
<path d="M140.558 182.476C140.558 182.476 146.309 200.972 148.465 202.793C150.621 204.613 159.794 203.151 159.794 203.151C159.794 203.151 161.771 206.752 163.21 208.353C164.649 209.954 168.99 208.711 169.146 204.214C169.302 199.718 166.626 193.429 166.626 193.429L160.517 176.522C160.517 176.522 153.32 175.083 146.645 176.522C139.969 177.962 140.558 182.476 140.558 182.476Z" stroke="#2E353A" stroke-miterlimit="10"/>
<path d="M166.805 202.352C166.989 203.356 167.045 204.379 166.972 205.398" stroke="#2E353A" stroke-width="0.5" stroke-miterlimit="10"/>
<path d="M158.486 180.828C158.486 180.828 164.48 192.388 166.416 200.48" stroke="#2E353A" stroke-width="0.5" stroke-miterlimit="10"/>
<path d="M139.835 173.846C139.835 173.846 137.141 177.262 138.76 181.394C140.378 185.527 146.852 186.596 152.424 184.631C157.996 182.666 161.053 177.799 160.337 175.285C159.62 172.771 139.835 173.846 139.835 173.846Z" fill="#2E353A" stroke="#2E353A" stroke-miterlimit="10"/>
<path d="M171.122 157.126C171.122 157.126 163.932 173.668 159.256 177.084C154.58 180.5 144.153 180.679 140.379 176.541C136.604 172.402 141.095 162.698 145.771 155.155C150.447 147.612 152.782 141.132 157.996 141.491C163.21 141.849 171.845 148.311 171.122 157.126Z" fill="white"/>
<mask id="mask9_6787_1271" style="mask-type:luminance" maskUnits="userSpaceOnUse" x="138" y="141" width="34" height="39">
<path d="M171.122 157.126C171.122 157.126 163.932 173.668 159.256 177.084C154.58 180.5 144.153 180.679 140.379 176.541C136.604 172.402 141.095 162.698 145.771 155.155C150.447 147.612 152.782 141.132 157.996 141.491C163.21 141.849 171.845 148.311 171.122 157.126Z" fill="white"/>
</mask>
<g mask="url(#mask9_6787_1271)">
<g style="mix-blend-mode:multiply" opacity="0.49">
<path d="M155.095 172.815C151.049 176.22 145.604 177.272 141.529 177.532C145.957 180.618 154.997 180.191 159.257 177.081C163.933 173.665 171.123 157.123 171.123 157.123C171.276 155.225 171.001 153.317 170.319 151.539C168.291 155.25 161.262 167.613 155.095 172.815Z" fill="#E59D33"/>
</g>
</g>
<path d="M171.122 157.126C171.122 157.126 163.932 173.668 159.256 177.084C154.58 180.5 144.153 180.679 140.379 176.541C136.604 172.402 141.095 162.698 145.771 155.155C150.447 147.612 152.782 141.132 157.996 141.491C163.21 141.849 171.845 148.311 171.122 157.126Z" stroke="#2E353A" stroke-miterlimit="10"/>
<path d="M154.973 177.789C154.321 178.205 153.625 178.548 152.898 178.812" stroke="#2E353A" stroke-width="0.5" stroke-miterlimit="10"/>
<path d="M168.815 158.609C166.584 163.366 162.399 171.325 157.498 175.828" stroke="#2E353A" stroke-width="0.5" stroke-miterlimit="10"/>
<path d="M170.549 154.688C170.549 154.688 170.156 155.67 169.445 157.248" stroke="#2E353A" stroke-width="0.5" stroke-miterlimit="10"/>
</svg>
