<svg width="25" height="24" viewBox="0 0 25 24" fill="none" xmlns="http://www.w3.org/2000/svg">
<path d="M18.4386 15.0788C17.9463 14.6347 17.2981 14.4039 16.6359 14.4369C15.9738 14.47 15.3517 14.7641 14.9061 15.255L14.3623 15.8588C14.1314 16.1119 13.9563 16.4109 13.8486 16.7363L13.7998 16.8825L13.6573 16.8263C11.2381 15.8673 9.25963 14.0465 8.10357 11.715L8.02857 11.5613L8.19357 11.5125C8.62625 11.3795 9.01494 11.132 9.31857 10.7963L9.86232 10.1963C10.3069 9.70392 10.5376 9.05518 10.5039 8.39272C10.4701 7.73027 10.1746 7.10834 9.68232 6.66375L8.76732 5.835C8.52402 5.6142 8.23953 5.44358 7.93017 5.33292C7.62081 5.22225 7.29265 5.17371 6.9645 5.19008C6.63635 5.20646 6.31465 5.28742 6.01784 5.42833C5.72104 5.56924 5.45495 5.76733 5.23482 6.01125L4.69107 6.61125C4.61872 6.68998 4.55229 6.77396 4.49232 6.8625L4.46607 6.8925C3.95232 7.33125 3.51732 8.3925 3.76857 9.70875C4.3463 12.6848 5.87277 15.3935 8.11929 17.4291C10.3658 19.4647 13.2114 20.7175 16.2298 21C16.9753 21.0837 17.7281 20.9274 18.3786 20.5538C18.6031 20.4149 18.8054 20.243 18.9786 20.0438L19.5223 19.44C19.9664 18.9482 20.1979 18.3008 20.1662 17.639C20.1346 16.9771 19.8425 16.3547 19.3536 15.9075L18.4386 15.0788ZM12.9448 3C12.7982 3.01176 12.6615 3.0783 12.5617 3.18636C12.462 3.29442 12.4066 3.43607 12.4066 3.58313C12.4066 3.73018 12.462 3.87183 12.5617 3.97989C12.6615 4.08795 12.7982 4.15449 12.9448 4.16625C14.9095 4.16824 16.7931 4.94957 18.1823 6.33878C19.5715 7.728 20.3528 9.61161 20.3548 11.5763C20.3666 11.7228 20.4331 11.8596 20.5412 11.9593C20.6492 12.0591 20.7909 12.1145 20.938 12.1145C21.085 12.1145 21.2267 12.0591 21.3347 11.9593C21.4428 11.8596 21.5093 11.7228 21.5211 11.5763C21.5181 9.3026 20.6136 7.12293 19.0059 5.51521C17.3981 3.9075 15.2185 3.00298 12.9448 3Z" fill="white" fill-opacity="0.9"/>
<path d="M17.5008 11.6678C17.5125 11.8144 17.5791 11.9512 17.6871 12.0509C17.7952 12.1506 17.9369 12.206 18.0839 12.206C18.231 12.206 18.3726 12.1506 18.4807 12.0509C18.5887 11.9512 18.6553 11.8144 18.667 11.6678C18.665 10.1259 18.0516 8.64762 16.9613 7.55729C15.871 6.46697 14.3927 5.85355 12.8508 5.85156C12.7745 5.85156 12.6989 5.8666 12.6283 5.89581C12.5578 5.92502 12.4937 5.96783 12.4398 6.02181C12.3858 6.07578 12.343 6.13986 12.3138 6.21038C12.2846 6.2809 12.2695 6.35648 12.2695 6.43281C12.2695 6.50914 12.2846 6.58473 12.3138 6.65525C12.343 6.72577 12.3858 6.78984 12.4398 6.84382C12.4937 6.89779 12.5578 6.94061 12.6283 6.96982C12.6989 6.99903 12.7745 7.01406 12.8508 7.01406C14.0841 7.01605 15.2662 7.50711 16.138 8.37953C17.0097 9.25196 17.4998 10.4345 17.5008 11.6678Z" fill="white" fill-opacity="0.9"/>
</svg>
