<svg width="25" height="24" viewBox="0 0 25 24" fill="none" xmlns="http://www.w3.org/2000/svg">
<path d="M6.59375 1.48438C5.38579 1.48438 4.28932 2.20807 3.81348 3.31836L2.15381 7.18848C2.10222 7.30625 2.09375 7.39727 2.09375 7.49609V8.53467C2.09375 9.59291 2.71876 10.5071 3.61279 10.9487V19.7847C3.61279 21.2675 4.82967 22.4844 6.3125 22.4844H14.8437C15.258 22.4844 15.5937 22.1486 15.5937 21.7344C15.5937 21.3202 15.258 20.9844 14.8437 20.9844H6.3125C5.63473 20.9844 5.11279 20.4624 5.11279 19.7847V11.2007C5.74858 11.1226 6.32068 10.8319 6.74316 10.3877C7.23653 10.906 7.92844 11.2344 8.69434 11.2344C9.46019 11.2344 10.1511 10.906 10.644 10.3877C11.137 10.906 11.8279 11.2344 12.5937 11.2344C13.3596 11.2344 14.0505 10.906 14.5435 10.3877C15.0364 10.906 15.7273 11.2344 16.4932 11.2344C17.2591 11.2344 17.951 10.906 18.4443 10.3877C18.9373 10.906 19.6282 11.2344 20.394 11.2344C21.8767 11.2344 23.0937 10.0174 23.0937 8.53467V7.64404C23.1272 7.49085 23.1119 7.33102 23.0498 7.18701L21.377 3.31396C20.8981 2.20526 19.8014 1.48438 18.5937 1.48438H6.59375ZM3.59375 8.23438H5.99316V8.53467C5.99316 9.21258 5.47137 9.73438 4.79346 9.73438C4.11555 9.73438 3.59375 9.21258 3.59375 8.53467V8.23438ZM7.49316 8.23438H9.89404V8.53467C9.89404 9.21258 9.37224 9.73438 8.69434 9.73438C8.01643 9.73438 7.49316 9.2119 7.49316 8.53467V8.23438ZM11.394 8.23438H13.7935V8.53467C13.7935 9.21258 13.2717 9.73438 12.5937 9.73438C11.9158 9.73438 11.394 9.21258 11.394 8.53467V8.23438ZM15.2935 8.23438H17.6943V8.53467C17.6943 9.2119 17.1711 9.73438 16.4932 9.73438C15.8153 9.73438 15.2935 9.21258 15.2935 8.53467V8.23438ZM19.1943 8.23438H21.5937V8.53467C21.5937 9.21258 21.0719 9.73438 20.394 9.73438C19.7161 9.73438 19.1943 9.21258 19.1943 8.53467V8.23438Z" fill="white" fill-opacity="0.9"/>
<path d="M19.0508 12.3672C16.8178 12.3672 15.0063 14.2269 15.0063 16.4819C15.0063 20.054 18.626 22.3896 18.626 22.3896C18.751 22.4756 18.8991 22.5215 19.0508 22.5215C19.2025 22.5215 19.3506 22.4756 19.4756 22.3896C19.4756 22.3896 23.0938 20.054 23.0938 16.4819C23.0938 14.2269 21.2838 12.3672 19.0508 12.3672ZM19.02 15.3906C19.0303 15.3905 19.0405 15.3905 19.0508 15.3906C19.191 15.3906 19.3299 15.4189 19.4595 15.4737C19.5891 15.5286 19.7068 15.609 19.8059 15.7103C19.9051 15.8116 19.9838 15.9319 20.0374 16.0643C20.0911 16.1967 20.1187 16.3386 20.1187 16.4819C20.1187 16.6252 20.0911 16.7671 20.0374 16.8995C19.9838 17.0319 19.9051 17.1522 19.8059 17.2536C19.7068 17.3549 19.5891 17.4353 19.4595 17.4901C19.3299 17.545 19.191 17.5732 19.0508 17.5732C18.9105 17.5732 18.7717 17.545 18.6421 17.4901C18.5125 17.4353 18.3948 17.3549 18.2956 17.2536C18.1964 17.1522 18.1178 17.0319 18.0641 16.8995C18.0105 16.7671 17.9829 16.6252 17.9829 16.4819C17.9827 16.1979 18.091 15.925 18.2847 15.7212C18.4783 15.5174 18.7421 15.3988 19.02 15.3906ZM7.34375 13.4819C7.14484 13.482 6.95409 13.561 6.81344 13.7016C6.67279 13.8423 6.59377 14.033 6.59375 14.2319V17.9819C6.59377 18.1808 6.67279 18.3716 6.81344 18.5122C6.95409 18.6529 7.14484 18.7319 7.34375 18.7319H11.8057C12.0046 18.7319 12.1953 18.6529 12.336 18.5122C12.4766 18.3716 12.5556 18.1808 12.5557 17.9819V14.2319C12.5556 14.033 12.4766 13.8423 12.336 13.7016C12.1953 13.561 12.0046 13.482 11.8057 13.4819H7.34375Z" fill="white" fill-opacity="0.9"/>
</svg>
