<svg width="28" height="28" viewBox="0 0 28 28" fill="none" xmlns="http://www.w3.org/2000/svg">
<circle cx="14.1035" cy="14" r="13.375" fill="white"/>
<path d="M15.2181 16.7891C15.2181 16.6219 15.2738 16.5104 15.3853 16.399L18.1717 13.6125C18.3947 13.3896 18.729 13.3896 18.952 13.6125C19.1749 13.8354 19.1749 14.1698 18.952 14.3927L16.1655 17.1792C15.9426 17.4021 15.6082 17.4021 15.3853 17.1792C15.2738 17.0677 15.2181 16.9563 15.2181 16.7891Z" fill="#090707"/>
<path d="M15.2181 11.2135C15.2181 11.0464 15.2738 10.9349 15.3853 10.8234C15.6082 10.6005 15.9426 10.6005 16.1655 10.8234L18.952 13.6099C19.1749 13.8328 19.1749 14.1672 18.952 14.3901C18.729 14.613 18.3947 14.613 18.1717 14.3901L15.3853 11.6036C15.2738 11.4922 15.2181 11.3807 15.2181 11.2135Z" fill="#090707"/>
<path d="M9.08789 14.0026C9.08789 13.6682 9.31081 13.4453 9.64518 13.4453H18.5618C18.8962 13.4453 19.1191 13.6682 19.1191 14.0026C19.1191 14.337 18.8962 14.5599 18.5618 14.5599H9.64518C9.31081 14.5599 9.08789 14.337 9.08789 14.0026Z" fill="#090707"/>
</svg>
