<svg width="265" height="264" viewBox="0 0 265 264" fill="none" xmlns="http://www.w3.org/2000/svg">
<path d="M250.958 127.4C250.958 127.905 250.952 128.415 250.941 128.92C250.941 129.138 250.941 129.356 250.929 129.574C250.923 129.929 250.912 130.285 250.901 130.634C250.895 130.847 250.889 131.064 250.872 131.276C250.855 131.804 250.832 132.331 250.798 132.859C250.763 133.415 250.729 133.971 250.683 134.521C250.66 134.854 250.631 135.187 250.597 135.519C250.574 135.858 250.54 136.196 250.505 136.528C250.454 137.073 250.396 137.618 250.327 138.157C250.287 138.535 250.241 138.919 250.189 139.298C250.167 139.498 250.138 139.693 250.109 139.894C250.098 139.997 250.087 140.106 250.063 140.209C248.068 154.55 242.741 167.985 234.799 179.907C167.31 234.793 100.674 238.284 34.9588 186.164C21.9135 169.443 14.2812 149.207 14.2812 127.4C14.2812 107.055 30.956 50.815 122.932 17.2933C154.596 5.75654 217.861 56.3374 241.634 98.6666C247.495 109.097 250.958 119.023 250.958 127.4Z" fill="#DE8500"/>
<g opacity="0.7">
<path d="M250.958 127.4C250.958 127.905 250.952 128.415 250.941 128.92C250.941 129.138 250.941 129.356 250.929 129.574C250.923 129.929 250.912 130.285 250.901 130.634C250.895 130.847 250.889 131.064 250.872 131.276C250.855 131.804 250.832 132.331 250.798 132.859C250.763 133.415 250.729 133.971 250.683 134.521C250.66 134.854 250.631 135.187 250.597 135.519C250.574 135.858 250.54 136.196 250.505 136.528C250.454 137.073 250.396 137.618 250.327 138.157C250.287 138.535 250.241 138.919 250.189 139.298C250.167 139.498 250.138 139.693 250.109 139.894C250.098 139.997 250.087 140.106 250.063 140.209C248.068 154.55 242.741 167.985 234.799 179.907C167.31 234.793 100.674 238.284 34.9588 186.164C21.9135 169.443 14.2812 149.207 14.2812 127.4C14.2812 107.055 30.956 50.815 122.932 17.2933C154.596 5.75654 217.861 56.3374 241.634 98.6666C247.495 109.097 250.958 119.023 250.958 127.4Z" fill="white"/>
</g>
<path d="M172.381 93.961L205.566 95.1379C210.856 95.3253 211.124 88.5928 205.287 86.8742C205.213 86.8525 205.139 86.8314 205.064 86.8108C210.465 81.7035 193.263 70.4117 185.514 86.1767C184.553 81.8233 175.226 83.731 175.378 89.021C172.487 85.6872 168.077 91.1753 172.381 93.961Z" stroke="#515B60" stroke-miterlimit="10" stroke-linecap="round" stroke-linejoin="round"/>
<path d="M55.6426 74.6107L83.6672 74.1413C88.1346 74.0663 87.6858 68.0508 82.6049 66.7857C82.541 66.7699 82.476 66.7541 82.4111 66.7393C86.4413 61.9382 70.8447 52.6564 65.9063 67.0682C64.6629 63.2302 57.0101 65.358 57.6674 70.0683C54.9028 67.2287 51.7438 72.3239 55.6426 74.6107Z" stroke="#515B60" stroke-miterlimit="10" stroke-linecap="round" stroke-linejoin="round"/>
<path d="M166.473 53.038C166.473 53.038 166.075 52.9557 165.481 52.716C164.884 52.4831 164.116 52.0887 163.317 51.7027C162.521 51.3199 161.761 51.1225 161.197 51.0676C160.634 51.0047 160.251 51.0538 160.197 50.9197C160.144 50.8062 160.475 50.4973 161.164 50.3706C161.844 50.2365 162.823 50.3664 163.742 50.812C164.656 51.2571 165.295 51.8691 165.749 52.302C166.2 52.7424 166.473 53.038 166.473 53.038Z" fill="#515B60"/>
<path d="M169.957 50.2333C169.957 50.2333 169.675 50.3431 169.238 50.5136C168.811 50.6879 168.271 50.9329 167.67 51.1969C166.471 51.7249 165.448 52.2756 165.281 52.0369C165.203 51.9266 165.362 51.6578 165.706 51.3225C166.05 50.9899 166.589 50.5865 167.282 50.2892C167.973 49.9851 168.695 49.9534 169.183 50.0231C169.43 50.0606 169.624 50.1092 169.756 50.1583C169.887 50.2032 169.957 50.2333 169.957 50.2333Z" fill="#515B60"/>
<path d="M160.007 55.1334C160.007 55.1334 159.936 55.0901 159.81 55.0141C159.687 54.9349 159.504 54.8303 159.282 54.7094C158.836 54.465 158.22 54.1883 157.525 53.9459C156.128 53.4459 154.879 53.5552 154.841 53.3435C154.823 53.249 155.127 53.0879 155.667 53.0119C156.204 52.9343 156.976 52.9728 157.768 53.2458C158.561 53.5219 159.165 54.0135 159.515 54.4206C159.692 54.6244 159.817 54.8018 159.892 54.9322C159.966 55.0611 160.007 55.1334 160.007 55.1334Z" fill="#515B60"/>
<path d="M161.376 52.2433C161.376 52.2433 161.176 52.3626 160.875 52.5321C160.579 52.6984 160.186 52.9186 159.76 53.1578C158.917 53.6187 158.269 54.1599 158.108 54.0142C158.034 53.9455 158.108 53.7227 158.323 53.4297C158.536 53.1382 158.908 52.7797 159.404 52.5078C159.903 52.2369 160.422 52.1641 160.786 52.1725C161.153 52.1783 161.376 52.2433 161.376 52.2433Z" fill="#515B60"/>
<path d="M158.851 50.6018C158.851 50.6018 158.379 50.4355 157.654 50.1298C156.927 49.8283 155.957 49.3943 154.893 49.0426C153.83 48.6925 152.82 48.6044 152.092 48.6545C151.362 48.6962 150.898 48.8356 150.831 48.7052C150.768 48.5986 151.151 48.211 151.968 47.9676C152.774 47.7173 153.988 47.702 155.199 48.1038C156.408 48.5056 157.31 49.1957 157.914 49.7095C158.517 50.2317 158.851 50.6018 158.851 50.6018Z" fill="#515B60"/>
<path d="M162.058 46.5266C162.058 46.5266 161.961 46.554 161.789 46.6031C161.617 46.6459 161.373 46.7203 161.082 46.8127C160.496 46.9965 159.739 47.2916 158.935 47.6586C157.311 48.3841 156.268 49.4622 156.041 49.289C155.938 49.2098 156.073 48.8144 156.486 48.3006C156.894 47.789 157.604 47.1844 158.523 46.7615C159.445 46.3402 160.382 46.2631 161.029 46.3222C161.354 46.3502 161.612 46.3993 161.788 46.4495C161.96 46.4986 162.058 46.5266 162.058 46.5266Z" fill="#515B60"/>
<path d="M17.1172 147.041L37.9869 116.982L50.2502 113.303L52.9811 103.862C54.2731 99.3958 57.3735 95.6723 61.532 93.593L66.6008 78.149L82.134 74.4699L100.041 38.1462L111.895 37.7375L122.932 32.4237L132.742 28.3359L143.37 40.5993L153.18 63.8994L167.567 74.0618L182.282 103.494C194.942 108.139 205.717 116.827 212.942 128.213L226.573 149.694L90.3091 157.042L17.1172 147.041Z" fill="white"/>
<mask id="mask0_4932_11469" style="mask-type:luminance" maskUnits="userSpaceOnUse" x="17" y="28" width="210" height="130">
<path d="M17.1172 147.041L37.9869 116.982L50.2502 113.303L52.9811 103.862C54.2731 99.3958 57.3735 95.6723 61.532 93.593L66.6008 78.149L82.134 74.4699L100.041 38.1462L111.895 37.7375L122.932 32.4237L132.742 28.3359L143.37 40.5993L153.18 63.8994L167.567 74.0618L182.282 103.494C194.942 108.139 205.717 116.827 212.942 128.213L226.573 149.694L90.3091 157.042L17.1172 147.041Z" fill="white"/>
</mask>
<g mask="url(#mask0_4932_11469)">
<path d="M93.9969 67.8805C93.4182 69.56 92.811 71.2702 91.7144 72.6679C90.5317 74.1753 88.8014 75.2424 86.9238 75.6231C89.2301 76.5133 91.7598 76.8185 94.2118 76.5027C93.6685 71.4962 95.8249 66.2775 99.7431 63.1142C99.1761 57.9245 100.251 52.5669 102.775 47.9976C103.434 46.8064 104.205 45.6147 104.34 44.2604C104.419 43.4784 104.199 42.2968 103.529 41.7841C102.057 40.6584 102.429 41.7672 101.757 42.8242C100.427 44.9178 100.121 48.6259 99.4026 51.0389C97.7198 56.6895 95.9173 62.3053 93.9969 67.8805Z" fill="#DE8500"/>
</g>
<mask id="mask1_4932_11469" style="mask-type:luminance" maskUnits="userSpaceOnUse" x="17" y="28" width="210" height="130">
<path d="M17.1172 147.041L37.9869 116.982L50.2502 113.303L52.9811 103.862C54.2731 99.3958 57.3735 95.6723 61.532 93.593L66.6008 78.149L82.134 74.4699L100.041 38.1462L111.895 37.7375L122.932 32.4237L132.742 28.3359L143.37 40.5993L153.18 63.8994L167.567 74.0618L182.282 103.494C194.942 108.139 205.717 116.827 212.942 128.213L226.573 149.694L90.3091 157.042L17.1172 147.041Z" fill="white"/>
</mask>
<g mask="url(#mask1_4932_11469)">
<path opacity="0.8" d="M93.9969 67.8805C93.4182 69.56 92.811 71.2702 91.7144 72.6679C90.5317 74.1753 88.8014 75.2424 86.9238 75.6231C89.2301 76.5133 91.7598 76.8185 94.2118 76.5027C93.6685 71.4962 95.8249 66.2775 99.7431 63.1142C99.1761 57.9245 100.251 52.5669 102.775 47.9976C103.434 46.8064 104.205 45.6147 104.34 44.2604C104.419 43.4784 104.199 42.2968 103.529 41.7841C102.057 40.6584 102.429 41.7672 101.757 42.8242C100.427 44.9178 100.121 48.6259 99.4026 51.0389C97.7198 56.6895 95.9173 62.3053 93.9969 67.8805Z" fill="white"/>
</g>
<mask id="mask2_4932_11469" style="mask-type:luminance" maskUnits="userSpaceOnUse" x="17" y="28" width="210" height="130">
<path d="M17.1172 147.041L37.9869 116.982L50.2502 113.303L52.9811 103.862C54.2731 99.3958 57.3735 95.6723 61.532 93.593L66.6008 78.149L82.134 74.4699L100.041 38.1462L111.895 37.7375L122.932 32.4237L132.742 28.3359L143.37 40.5993L153.18 63.8994L167.567 74.0618L182.282 103.494C194.942 108.139 205.717 116.827 212.942 128.213L226.573 149.694L90.3091 157.042L17.1172 147.041Z" fill="white"/>
</mask>
<g mask="url(#mask2_4932_11469)">
<path d="M63.744 111.118C63.9689 110.539 63.819 109.833 63.3786 109.395C64.894 109.724 66.5746 109.097 67.5055 107.857C66.4679 104.221 67.2473 100.113 69.5446 97.1094C69.0784 98.5149 68.6058 99.9606 68.6829 101.439C68.7595 102.918 69.5108 104.458 70.8731 105.038C74.3267 106.509 78.3796 101.161 81.4864 103.267C80.2519 104.333 79.018 105.4 77.7835 106.467C81.1152 105.846 84.4463 105.224 87.7775 104.603C88.2316 103.573 88.6862 102.543 89.1403 101.512C89.6281 102.662 90.116 103.812 90.6034 104.962C91.3019 101.333 93.6932 98.0672 96.9415 96.3047C93.9266 99.2789 94.6864 105.145 91.0062 107.241C89.4513 108.126 87.5531 108.017 85.7674 108.136C80.3654 108.496 75.4239 111.125 70.3498 113.012C65.7282 114.731 59.2803 116.307 54.7754 113.465C56.0579 112.955 63.3654 112.093 63.744 111.118Z" fill="#DE8500"/>
<path opacity="0.8" d="M63.744 111.118C63.9689 110.539 63.819 109.833 63.3786 109.395C64.894 109.724 66.5746 109.097 67.5055 107.857C66.4679 104.221 67.2473 100.113 69.5446 97.1094C69.0784 98.5149 68.6058 99.9606 68.6829 101.439C68.7595 102.918 69.5108 104.458 70.8731 105.038C74.3267 106.509 78.3796 101.161 81.4864 103.267C80.2519 104.333 79.018 105.4 77.7835 106.467C81.1152 105.846 84.4463 105.224 87.7775 104.603C88.2316 103.573 88.6862 102.543 89.1403 101.512C89.6281 102.662 90.116 103.812 90.6034 104.962C91.3019 101.333 93.6932 98.0672 96.9415 96.3047C93.9266 99.2789 94.6864 105.145 91.0062 107.241C89.4513 108.126 87.5531 108.017 85.7674 108.136C80.3654 108.496 75.4239 111.125 70.3498 113.012C65.7282 114.731 59.2803 116.307 54.7754 113.465C56.0579 112.955 63.3654 112.093 63.744 111.118Z" fill="white"/>
</g>
<mask id="mask3_4932_11469" style="mask-type:luminance" maskUnits="userSpaceOnUse" x="17" y="28" width="210" height="130">
<path d="M17.1172 147.041L37.9869 116.982L50.2502 113.303L52.9811 103.862C54.2731 99.3958 57.3735 95.6723 61.532 93.593L66.6008 78.149L82.134 74.4699L100.041 38.1462L111.895 37.7375L122.932 32.4237L132.742 28.3359L143.37 40.5993L153.18 63.8994L167.567 74.0618L182.282 103.494C194.942 108.139 205.717 116.827 212.942 128.213L226.573 149.694L90.3091 157.042L17.1172 147.041Z" fill="white"/>
</mask>
<g mask="url(#mask3_4932_11469)">
<path d="M43.4229 148.652C47.0307 143.276 53.0853 138.659 54.231 132.286C54.8335 128.936 55.4359 125.585 56.0378 122.234C56.0378 122.234 51.7463 135.502 49.7388 137.259C47.7314 139.016 41.709 147.046 41.709 147.046L43.4229 148.652Z" fill="#DE8500"/>
</g>
<mask id="mask4_4932_11469" style="mask-type:luminance" maskUnits="userSpaceOnUse" x="17" y="28" width="210" height="130">
<path d="M17.1172 147.041L37.9869 116.982L50.2502 113.303L52.9811 103.862C54.2731 99.3958 57.3735 95.6723 61.532 93.593L66.6008 78.149L82.134 74.4699L100.041 38.1462L111.895 37.7375L122.932 32.4237L132.742 28.3359L143.37 40.5993L153.18 63.8994L167.567 74.0618L182.282 103.494C194.942 108.139 205.717 116.827 212.942 128.213L226.573 149.694L90.3091 157.042L17.1172 147.041Z" fill="white"/>
</mask>
<g mask="url(#mask4_4932_11469)">
<path d="M147.352 94.1669L147.285 93.6981C147.203 93.5407 147.121 93.3839 147.039 93.2266C147.143 93.5402 147.248 93.8538 147.352 94.1669Z" fill="#E4F8E9"/>
</g>
<mask id="mask5_4932_11469" style="mask-type:luminance" maskUnits="userSpaceOnUse" x="17" y="28" width="210" height="130">
<path d="M17.1172 147.041L37.9869 116.982L50.2502 113.303L52.9811 103.862C54.2731 99.3958 57.3735 95.6723 61.532 93.593L66.6008 78.149L82.134 74.4699L100.041 38.1462L111.895 37.7375L122.932 32.4237L132.742 28.3359L143.37 40.5993L153.18 63.8994L167.567 74.0618L182.282 103.494C194.942 108.139 205.717 116.827 212.942 128.213L226.573 149.694L90.3091 157.042L17.1172 147.041Z" fill="white"/>
</mask>
<g mask="url(#mask5_4932_11469)">
<path d="M76.8344 136.698C76.5968 135.786 76.3592 134.873 76.1221 133.961C75.0112 136.837 73.9003 139.714 72.7899 142.591C72.16 144.222 71.5211 145.899 71.5137 147.648C71.5063 149.397 72.7793 151.251 74.329 152.062C73.9367 149.125 74.5967 146.2 76.139 143.67C77.6807 141.139 79.6127 138.851 80.9976 136.232C83.9824 130.587 84.9788 123.783 87.1816 117.82C85.238 117.876 82.9771 124.558 82.0864 126.318C80.3355 129.779 78.5847 133.238 76.8344 136.698Z" fill="#DE8500"/>
</g>
<mask id="mask6_4932_11469" style="mask-type:luminance" maskUnits="userSpaceOnUse" x="17" y="28" width="210" height="130">
<path d="M17.1172 147.041L37.9869 116.982L50.2502 113.303L52.9811 103.862C54.2731 99.3958 57.3735 95.6723 61.532 93.593L66.6008 78.149L82.134 74.4699L100.041 38.1462L111.895 37.7375L122.932 32.4237L132.742 28.3359L143.37 40.5993L153.18 63.8994L167.567 74.0618L182.282 103.494C194.942 108.139 205.717 116.827 212.942 128.213L226.573 149.694L90.3091 157.042L17.1172 147.041Z" fill="white"/>
</mask>
<g mask="url(#mask6_4932_11469)">
<path d="M88.6651 76.156C86.4876 75.6881 84.3107 75.2209 82.1332 74.7531L66.6016 78.1481L79.5993 86.566L85.8725 85.5623L91.6441 82.049L99.4231 84.3072L101.18 86.0639L113.224 86.8168L128.531 83.304L143.587 82.5511L149.609 76.0271L159.647 76.5293L167.568 74.0609L153.182 63.8984L144.34 69.2524C144.34 69.2524 145.344 71.5106 141.83 72.5143C138.318 73.5181 134.804 74.271 134.804 74.271H128.029L122.509 75.2747L109.46 77.7838C109.46 77.7838 95.1574 75.7763 94.1537 76.2779C93.1499 76.7801 88.6651 76.156 88.6651 76.156Z" fill="#DE8500"/>
<path opacity="0.8" d="M88.6651 76.156C86.4876 75.6881 84.3107 75.2209 82.1332 74.7531L66.6016 78.1481L79.5993 86.566L85.8725 85.5623L91.6441 82.049L99.4231 84.3072L101.18 86.0639L113.224 86.8168L128.531 83.304L143.587 82.5511L149.609 76.0271L159.647 76.5293L167.568 74.0609L153.182 63.8984L144.34 69.2524C144.34 69.2524 145.344 71.5106 141.83 72.5143C138.318 73.5181 134.804 74.271 134.804 74.271H128.029L122.509 75.2747L109.46 77.7838C109.46 77.7838 95.1574 75.7763 94.1537 76.2779C93.1499 76.7801 88.6651 76.156 88.6651 76.156Z" fill="white"/>
</g>
<mask id="mask7_4932_11469" style="mask-type:luminance" maskUnits="userSpaceOnUse" x="17" y="28" width="210" height="130">
<path d="M17.1172 147.041L37.9869 116.982L50.2502 113.303L52.9811 103.862C54.2731 99.3958 57.3735 95.6723 61.532 93.593L66.6008 78.149L82.134 74.4699L100.041 38.1462L111.895 37.7375L122.932 32.4237L132.742 28.3359L143.37 40.5993L153.18 63.8994L167.567 74.0618L182.282 103.494C194.942 108.139 205.717 116.827 212.942 128.213L226.573 149.694L90.3091 157.042L17.1172 147.041Z" fill="white"/>
</mask>
<g mask="url(#mask7_4932_11469)">
<path d="M107.202 105.887C107.846 103.152 108.222 99.4694 108.866 96.7344C105.091 101.208 104.524 107.731 100.778 112.229C99.1563 114.175 97.02 115.635 95.3558 117.545C92.796 120.482 91.5072 124.285 90.278 127.982C87.5424 136.21 84.7699 144.812 86.0366 153.389C88.6037 147.318 88.6338 144.531 93.4011 138.508C96.1805 134.997 97.2318 126.915 99.4684 123.036C101.94 118.749 104.309 118.22 104.743 115.027C105.116 112.283 105.727 109.576 106.755 107.005L107.202 105.887Z" fill="#DE8500"/>
</g>
<mask id="mask8_4932_11469" style="mask-type:luminance" maskUnits="userSpaceOnUse" x="17" y="28" width="210" height="130">
<path d="M17.1172 147.041L37.9869 116.982L50.2502 113.303L52.9811 103.862C54.2731 99.3958 57.3735 95.6723 61.532 93.593L66.6008 78.149L82.134 74.4699L100.041 38.1462L111.895 37.7375L122.932 32.4237L132.742 28.3359L143.37 40.5993L153.18 63.8994L167.567 74.0618L182.282 103.494C194.942 108.139 205.717 116.827 212.942 128.213L226.573 149.694L90.3091 157.042L17.1172 147.041Z" fill="white"/>
</mask>
<g mask="url(#mask8_4932_11469)">
<path d="M144.709 89.4062C146.99 94.5004 149.861 98.8622 152.621 103.379C155.104 107.443 162.286 108.686 164.617 112.838C170.436 123.202 174.023 126.688 177.582 134.288C179.344 133.921 181.106 133.556 182.868 133.189C179.021 125.694 174.187 118.705 168.532 112.461C171.474 113.219 177.492 113.562 177.559 112.975C172.116 111.533 170.206 110.104 165.418 107.143C158.627 102.941 149.389 96.5068 144.872 89.9184" fill="#DE8500"/>
</g>
<mask id="mask9_4932_11469" style="mask-type:luminance" maskUnits="userSpaceOnUse" x="17" y="28" width="210" height="130">
<path d="M17.1172 147.041L37.9869 116.982L50.2502 113.303L52.9811 103.862C54.2731 99.3958 57.3735 95.6723 61.532 93.593L66.6008 78.149L82.134 74.4699L100.041 38.1462L111.895 37.7375L122.932 32.4237L132.742 28.3359L143.37 40.5993L153.18 63.8994L167.567 74.0618L182.282 103.494C194.942 108.139 205.717 116.827 212.942 128.213L226.573 149.694L90.3091 157.042L17.1172 147.041Z" fill="white"/>
</mask>
<g mask="url(#mask9_4932_11469)">
<path d="M175.41 107.375C175.587 107.865 175.764 108.355 175.942 108.845C173.411 108.602 170.88 108.358 168.35 108.115C171.892 109.735 175.553 111.441 178.088 114.399C179.305 115.818 180.331 117.572 182.077 118.238C182.982 118.584 183.982 118.59 184.915 118.852C187.944 119.707 189.536 122.939 190.765 125.836C192.538 124.882 194.312 123.928 196.085 122.973C194.506 123.048 193.01 122.135 191.993 120.925C190.976 119.714 190.356 118.228 189.752 116.767C189.438 116.011 189.119 115.188 189.32 114.393C189.52 113.599 190.502 112.971 191.18 113.431C191.074 112.224 189.598 111.769 188.452 111.375C187.306 110.982 186.067 109.7 186.822 108.752C187.492 107.913 188.829 108.499 189.697 109.131C186.353 106.902 179.112 105.972 175.41 107.375Z" fill="#DE8500"/>
</g>
<mask id="mask10_4932_11469" style="mask-type:luminance" maskUnits="userSpaceOnUse" x="17" y="28" width="210" height="130">
<path d="M17.1172 147.041L37.9869 116.982L50.2502 113.303L52.9811 103.862C54.2731 99.3958 57.3735 95.6723 61.532 93.593L66.6008 78.149L82.134 74.4699L100.041 38.1462L111.895 37.7375L122.932 32.4237L132.742 28.3359L143.37 40.5993L153.18 63.8994L167.567 74.0618L182.282 103.494C194.942 108.139 205.717 116.827 212.942 128.213L226.573 149.694L90.3091 157.042L17.1172 147.041Z" fill="white"/>
</mask>
<g mask="url(#mask10_4932_11469)">
<path opacity="0.8" d="M43.4229 148.652C47.0307 143.276 53.0853 138.659 54.231 132.286C54.8335 128.936 55.4359 125.585 56.0378 122.234C56.0378 122.234 51.7463 135.502 49.7388 137.259C47.7314 139.016 41.709 147.046 41.709 147.046L43.4229 148.652Z" fill="white"/>
</g>
<mask id="mask11_4932_11469" style="mask-type:luminance" maskUnits="userSpaceOnUse" x="17" y="28" width="210" height="130">
<path d="M17.1172 147.041L37.9869 116.982L50.2502 113.303L52.9811 103.862C54.2731 99.3958 57.3735 95.6723 61.532 93.593L66.6008 78.149L82.134 74.4699L100.041 38.1462L111.895 37.7375L122.932 32.4237L132.742 28.3359L143.37 40.5993L153.18 63.8994L167.567 74.0618L182.282 103.494C194.942 108.139 205.717 116.827 212.942 128.213L226.573 149.694L90.3091 157.042L17.1172 147.041Z" fill="white"/>
</mask>
<g mask="url(#mask11_4932_11469)">
<path opacity="0.8" d="M76.8344 136.698C76.5968 135.786 76.3592 134.873 76.1221 133.961C75.0112 136.837 73.9003 139.714 72.7899 142.591C72.16 144.222 71.5211 145.899 71.5137 147.648C71.5063 149.397 72.7793 151.251 74.329 152.062C73.9367 149.125 74.5967 146.2 76.139 143.67C77.6807 141.139 79.6127 138.851 80.9976 136.232C83.9824 130.587 84.9788 123.783 87.1816 117.82C85.238 117.876 82.9771 124.558 82.0864 126.318C80.3355 129.779 78.5847 133.238 76.8344 136.698Z" fill="white"/>
</g>
<mask id="mask12_4932_11469" style="mask-type:luminance" maskUnits="userSpaceOnUse" x="17" y="28" width="210" height="130">
<path d="M17.1172 147.041L37.9869 116.982L50.2502 113.303L52.9811 103.862C54.2731 99.3958 57.3735 95.6723 61.532 93.593L66.6008 78.149L82.134 74.4699L100.041 38.1462L111.895 37.7375L122.932 32.4237L132.742 28.3359L143.37 40.5993L153.18 63.8994L167.567 74.0618L182.282 103.494C194.942 108.139 205.717 116.827 212.942 128.213L226.573 149.694L90.3091 157.042L17.1172 147.041Z" fill="white"/>
</mask>
<g mask="url(#mask12_4932_11469)">
<g opacity="0.8">
<path d="M107.202 105.887C107.846 103.152 108.222 99.4694 108.866 96.7344C105.091 101.208 104.524 107.731 100.778 112.229C99.1563 114.175 97.02 115.635 95.3558 117.545C92.796 120.482 91.5072 124.285 90.278 127.982C87.5424 136.21 84.7699 144.812 86.0366 153.389C88.6037 147.318 88.6338 144.531 93.4011 138.508C96.1805 134.997 97.2318 126.915 99.4684 123.036C101.94 118.749 104.309 118.22 104.743 115.027C105.116 112.283 105.727 109.576 106.755 107.005L107.202 105.887Z" fill="white"/>
</g>
</g>
<mask id="mask13_4932_11469" style="mask-type:luminance" maskUnits="userSpaceOnUse" x="17" y="28" width="210" height="130">
<path d="M17.1172 147.041L37.9869 116.982L50.2502 113.303L52.9811 103.862C54.2731 99.3958 57.3735 95.6723 61.532 93.593L66.6008 78.149L82.134 74.4699L100.041 38.1462L111.895 37.7375L122.932 32.4237L132.742 28.3359L143.37 40.5993L153.18 63.8994L167.567 74.0618L182.282 103.494C194.942 108.139 205.717 116.827 212.942 128.213L226.573 149.694L90.3091 157.042L17.1172 147.041Z" fill="white"/>
</mask>
<g mask="url(#mask13_4932_11469)">
<path opacity="0.8" d="M144.709 89.4062C146.99 94.5004 149.861 98.8622 152.621 103.379C155.104 107.443 162.286 108.686 164.617 112.838C170.436 123.202 174.023 126.688 177.582 134.288C179.344 133.921 181.106 133.556 182.868 133.189C179.021 125.694 174.187 118.705 168.532 112.461C171.474 113.219 177.492 113.562 177.559 112.975C172.116 111.533 170.206 110.104 165.418 107.143C158.627 102.941 149.389 96.5068 144.872 89.9184" fill="white"/>
</g>
<mask id="mask14_4932_11469" style="mask-type:luminance" maskUnits="userSpaceOnUse" x="17" y="28" width="210" height="130">
<path d="M17.1172 147.041L37.9869 116.982L50.2502 113.303L52.9811 103.862C54.2731 99.3958 57.3735 95.6723 61.532 93.593L66.6008 78.149L82.134 74.4699L100.041 38.1462L111.895 37.7375L122.932 32.4237L132.742 28.3359L143.37 40.5993L153.18 63.8994L167.567 74.0618L182.282 103.494C194.942 108.139 205.717 116.827 212.942 128.213L226.573 149.694L90.3091 157.042L17.1172 147.041Z" fill="white"/>
</mask>
<g mask="url(#mask14_4932_11469)">
<path opacity="0.8" d="M175.41 107.375C175.587 107.865 175.764 108.355 175.942 108.845C173.411 108.602 170.88 108.358 168.35 108.115C171.892 109.735 175.553 111.441 178.088 114.399C179.305 115.818 180.331 117.572 182.077 118.238C182.982 118.584 183.982 118.59 184.915 118.852C187.944 119.707 189.536 122.939 190.765 125.836C192.538 124.882 194.312 123.928 196.085 122.973C194.506 123.048 193.01 122.135 191.993 120.925C190.976 119.714 190.356 118.228 189.752 116.767C189.438 116.011 189.119 115.188 189.32 114.393C189.52 113.599 190.502 112.971 191.18 113.431C191.074 112.224 189.598 111.769 188.452 111.375C187.306 110.982 186.067 109.7 186.822 108.752C187.492 107.913 188.829 108.499 189.697 109.131C186.353 106.902 179.112 105.972 175.41 107.375Z" fill="white"/>
</g>
<mask id="mask15_4932_11469" style="mask-type:luminance" maskUnits="userSpaceOnUse" x="17" y="28" width="210" height="130">
<path d="M17.1172 147.041L37.9869 116.982L50.2502 113.303L52.9811 103.862C54.2731 99.3958 57.3735 95.6723 61.532 93.593L66.6008 78.149L82.134 74.4699L100.041 38.1462L111.895 37.7375L122.932 32.4237L132.742 28.3359L143.37 40.5993L153.18 63.8994L167.567 74.0618L182.282 103.494C194.942 108.139 205.717 116.827 212.942 128.213L226.573 149.694L90.3091 157.042L17.1172 147.041Z" fill="white"/>
</mask>
<g mask="url(#mask15_4932_11469)">
<path d="M78.0682 115.751C77.687 116.304 77.3063 116.855 76.9256 117.408C78.6406 116.46 80.6401 116.036 82.5916 116.205C82.3519 116.609 82.1122 117.012 81.873 117.416C83.4633 116.534 85.0537 115.652 86.6445 114.77C86.72 115.377 86.7961 115.984 86.8716 116.591C89.1034 114.245 91.3353 111.9 93.5666 109.555C84.9961 110.726 76.0687 112.416 67.957 115.491C69.1134 115.607 77.5186 116.548 78.0682 115.751Z" fill="#DE8500"/>
<path opacity="0.8" d="M78.0682 115.751C77.687 116.304 77.3063 116.855 76.9256 117.408C78.6406 116.46 80.6401 116.036 82.5916 116.205C82.3519 116.609 82.1122 117.012 81.873 117.416C83.4633 116.534 85.0537 115.652 86.6445 114.77C86.72 115.377 86.7961 115.984 86.8716 116.591C89.1034 114.245 91.3353 111.9 93.5666 109.555C84.9961 110.726 76.0687 112.416 67.957 115.491C69.1134 115.607 77.5186 116.548 78.0682 115.751Z" fill="white"/>
</g>
<mask id="mask16_4932_11469" style="mask-type:luminance" maskUnits="userSpaceOnUse" x="17" y="28" width="210" height="130">
<path d="M17.1172 147.041L37.9869 116.982L50.2502 113.303L52.9811 103.862C54.2731 99.3958 57.3735 95.6723 61.532 93.593L66.6008 78.149L82.134 74.4699L100.041 38.1462L111.895 37.7375L122.932 32.4237L132.742 28.3359L143.37 40.5993L153.18 63.8994L167.567 74.0618L182.282 103.494C194.942 108.139 205.717 116.827 212.942 128.213L226.573 149.694L90.3091 157.042L17.1172 147.041Z" fill="white"/>
</mask>
<g mask="url(#mask16_4932_11469)">
<path d="M109.175 65.7386C110.133 64.9709 111.663 65.6404 112.258 66.7154C112.853 67.7904 112.811 69.0861 112.855 70.3137C112.9 71.5413 113.104 72.8824 114.017 73.704C113.11 71.573 114.419 69.0201 116.357 67.7519C118.296 66.4841 120.691 66.1864 122.991 65.9213C121.677 64.0564 119.522 62.8093 117.251 62.5981C116.499 62.5284 115.645 62.5268 115.131 61.9734C114.812 61.6302 114.704 61.1471 114.608 60.6888C113.886 57.2558 113.165 53.8227 112.443 50.3896C112.313 52.1394 111.912 53.8692 111.26 55.4975C112.171 53.2234 108.064 47.3109 105.699 48.5522C109.468 52.3369 109.588 60.739 109.175 65.7386Z" fill="#DE8500"/>
<path opacity="0.8" d="M109.175 65.7386C110.133 64.9709 111.663 65.6404 112.258 66.7154C112.853 67.7904 112.811 69.0861 112.855 70.3137C112.9 71.5413 113.104 72.8824 114.017 73.704C113.11 71.573 114.419 69.0201 116.357 67.7519C118.296 66.4841 120.691 66.1864 122.991 65.9213C121.677 64.0564 119.522 62.8093 117.251 62.5981C116.499 62.5284 115.645 62.5268 115.131 61.9734C114.812 61.6302 114.704 61.1471 114.608 60.6888C113.886 57.2558 113.165 53.8227 112.443 50.3896C112.313 52.1394 111.912 53.8692 111.26 55.4975C112.171 53.2234 108.064 47.3109 105.699 48.5522C109.468 52.3369 109.588 60.739 109.175 65.7386Z" fill="white"/>
</g>
<mask id="mask17_4932_11469" style="mask-type:luminance" maskUnits="userSpaceOnUse" x="17" y="28" width="210" height="130">
<path d="M17.1172 147.041L37.9869 116.982L50.2502 113.303L52.9811 103.862C54.2731 99.3958 57.3735 95.6723 61.532 93.593L66.6008 78.149L82.134 74.4699L100.041 38.1462L111.895 37.7375L122.932 32.4237L132.742 28.3359L143.37 40.5993L153.18 63.8994L167.567 74.0618L182.282 103.494C194.942 108.139 205.717 116.827 212.942 128.213L226.573 149.694L90.3091 157.042L17.1172 147.041Z" fill="white"/>
</mask>
<g mask="url(#mask17_4932_11469)">
<path d="M114.043 40.2422C117.613 43.4403 119.683 47.9425 121.656 52.3102C123.641 56.7052 125.627 61.1008 127.612 65.4959C128.886 64.0254 129.194 61.7904 128.367 60.0295C128.504 63.2989 131.783 66.0809 135.031 65.6833C134.944 63.2376 134.857 60.7919 134.77 58.3462C135.829 60.3294 136.887 62.3126 137.946 64.2958C137.982 61.142 137.554 57.984 136.68 54.9533C138.499 56.4618 139.078 58.9487 139.962 61.1399C140.847 63.3311 142.577 65.6179 144.938 65.5466C145.671 65.4199 145.976 66.6517 145.398 67.12C144.821 67.5884 143.957 67.4173 143.288 67.0905C142.62 66.7636 141.988 66.2985 141.248 66.2267C139.367 66.045 138.331 68.261 137.054 69.6534C134.867 72.0389 131.235 72.229 127.999 72.2527C127.704 67.1818 120.348 62.0238 119.998 60.7186C117.238 50.4305 118.7 45.8004 114.235 41.1028C114.651 41.5353 115.066 41.9682 115.481 42.4007" fill="#DE8500"/>
<path opacity="0.8" d="M114.043 40.2422C117.613 43.4403 119.683 47.9425 121.656 52.3102C123.641 56.7052 125.627 61.1008 127.612 65.4959C128.886 64.0254 129.194 61.7904 128.367 60.0295C128.504 63.2989 131.783 66.0809 135.031 65.6833C134.944 63.2376 134.857 60.7919 134.77 58.3462C135.829 60.3294 136.887 62.3126 137.946 64.2958C137.982 61.142 137.554 57.984 136.68 54.9533C138.499 56.4618 139.078 58.9487 139.962 61.1399C140.847 63.3311 142.577 65.6179 144.938 65.5466C145.671 65.4199 145.976 66.6517 145.398 67.12C144.821 67.5884 143.957 67.4173 143.288 67.0905C142.62 66.7636 141.988 66.2985 141.248 66.2267C139.367 66.045 138.331 68.261 137.054 69.6534C134.867 72.0389 131.235 72.229 127.999 72.2527C127.704 67.1818 120.348 62.0238 119.998 60.7186C117.238 50.4305 118.7 45.8004 114.235 41.1028C114.651 41.5353 115.066 41.9682 115.481 42.4007" fill="white"/>
</g>
<mask id="mask18_4932_11469" style="mask-type:luminance" maskUnits="userSpaceOnUse" x="17" y="28" width="210" height="130">
<path d="M17.1172 147.041L37.9869 116.982L50.2502 113.303L52.9811 103.862C54.2731 99.3958 57.3735 95.6723 61.532 93.593L66.6008 78.149L82.134 74.4699L100.041 38.1462L111.895 37.7375L122.932 32.4237L132.742 28.3359L143.37 40.5993L153.18 63.8994L167.567 74.0618L182.282 103.494C194.942 108.139 205.717 116.827 212.942 128.213L226.573 149.694L90.3091 157.042L17.1172 147.041Z" fill="white"/>
</mask>
<g mask="url(#mask18_4932_11469)">
<path d="M126.123 38.0597C127.784 38.6162 129.61 38.5444 131.259 39.1358C131.452 38.2287 131.432 37.2767 131.203 36.378C132.261 38.0243 132.896 39.9394 133.033 41.8919C128.624 41.9416 124.215 41.9907 119.806 42.0403C119.453 41.6522 119.099 41.2636 118.746 40.8755C119.512 40.3987 120.279 39.9214 121.045 39.4441C121.826 40.357 123.233 40.6664 124.325 40.167C123.541 39.0296 122.677 37.4055 123.009 36.1172C124.156 36.3696 124.847 37.632 126.123 38.0597Z" fill="#DE8500"/>
<path opacity="0.8" d="M126.123 38.0597C127.784 38.6162 129.61 38.5444 131.259 39.1358C131.452 38.2287 131.432 37.2767 131.203 36.378C132.261 38.0243 132.896 39.9394 133.033 41.8919C128.624 41.9416 124.215 41.9907 119.806 42.0403C119.453 41.6522 119.099 41.2636 118.746 40.8755C119.512 40.3987 120.279 39.9214 121.045 39.4441C121.826 40.357 123.233 40.6664 124.325 40.167C123.541 39.0296 122.677 37.4055 123.009 36.1172C124.156 36.3696 124.847 37.632 126.123 38.0597Z" fill="white"/>
</g>
<mask id="mask19_4932_11469" style="mask-type:luminance" maskUnits="userSpaceOnUse" x="17" y="28" width="210" height="130">
<path d="M17.1172 147.041L37.9869 116.982L50.2502 113.303L52.9811 103.862C54.2731 99.3958 57.3735 95.6723 61.532 93.593L66.6008 78.149L82.134 74.4699L100.041 38.1462L111.895 37.7375L122.932 32.4237L132.742 28.3359L143.37 40.5993L153.18 63.8994L167.567 74.0618L182.282 103.494C194.942 108.139 205.717 116.827 212.942 128.213L226.573 149.694L90.3091 157.042L17.1172 147.041Z" fill="white"/>
</mask>
<g mask="url(#mask19_4932_11469)">
<path d="M91.8938 83.5595C91.8938 83.5595 92.3959 87.8252 91.3917 91.0878C90.388 94.3497 92.8976 95.1027 95.6574 91.3385C98.4178 87.5744 98.9194 85.8183 96.1595 84.5633C93.3997 83.3087 91.8938 83.5595 91.8938 83.5595Z" fill="#DE8500"/>
<path opacity="0.8" d="M91.8938 83.5595C91.8938 83.5595 92.3959 87.8252 91.3917 91.0878C90.388 94.3497 92.8976 95.1027 95.6574 91.3385C98.4178 87.5744 98.9194 85.8183 96.1595 84.5633C93.3997 83.3087 91.8938 83.5595 91.8938 83.5595Z" fill="white"/>
</g>
<mask id="mask20_4932_11469" style="mask-type:luminance" maskUnits="userSpaceOnUse" x="17" y="28" width="210" height="130">
<path d="M17.1172 147.041L37.9869 116.982L50.2502 113.303L52.9811 103.862C54.2731 99.3958 57.3735 95.6723 61.532 93.593L66.6008 78.149L82.134 74.4699L100.041 38.1462L111.895 37.7375L122.932 32.4237L132.742 28.3359L143.37 40.5993L153.18 63.8994L167.567 74.0618L182.282 103.494C194.942 108.139 205.717 116.827 212.942 128.213L226.573 149.694L90.3091 157.042L17.1172 147.041Z" fill="white"/>
</mask>
<g mask="url(#mask20_4932_11469)">
<path d="M71.3184 84.5625C71.3184 84.5625 73.075 88.8282 72.8242 91.8394C72.5734 94.8506 75.0825 91.5886 75.0825 91.5886L74.3295 96.1056C74.3295 96.1056 78.0937 91.087 77.5915 88.3266C77.0894 85.5662 71.3184 84.5625 71.3184 84.5625Z" fill="#DE8500"/>
<path opacity="0.8" d="M71.3184 84.5625C71.3184 84.5625 73.075 88.8282 72.8242 91.8394C72.5734 94.8506 75.0825 91.5886 75.0825 91.5886L74.3295 96.1056C74.3295 96.1056 78.0937 91.087 77.5915 88.3266C77.0894 85.5662 71.3184 84.5625 71.3184 84.5625Z" fill="white"/>
</g>
<mask id="mask21_4932_11469" style="mask-type:luminance" maskUnits="userSpaceOnUse" x="17" y="28" width="210" height="130">
<path d="M17.1172 147.041L37.9869 116.982L50.2502 113.303L52.9811 103.862C54.2731 99.3958 57.3735 95.6723 61.532 93.593L66.6008 78.149L82.134 74.4699L100.041 38.1462L111.895 37.7375L122.932 32.4237L132.742 28.3359L143.37 40.5993L153.18 63.8994L167.567 74.0618L182.282 103.494C194.942 108.139 205.717 116.827 212.942 128.213L226.573 149.694L90.3091 157.042L17.1172 147.041Z" fill="white"/>
</mask>
<g mask="url(#mask21_4932_11469)">
<path d="M175.371 100.067C175.034 98.9055 173.095 98.7439 172.57 99.8332C173.091 98.8115 171.849 97.8532 171.043 97.0374C168.973 94.9434 169.43 91.5224 170.032 88.6406C167.613 90.2003 166.282 93.286 166.808 96.1155C166.319 95.0754 164.953 94.5511 163.894 94.9967C162.835 95.4423 162.255 96.785 162.656 97.8616C161.266 98.0897 159.847 98.3183 158.455 98.1003C157.063 97.8822 155.677 97.1367 155.052 95.8748C154.745 95.2554 154.419 94.3937 153.731 94.4634C153.265 94.5109 152.99 94.9919 152.619 95.2776C151.432 96.191 149.744 94.8758 149.202 93.4803C148.659 92.0848 148.5 90.3994 147.317 89.4823C147.244 90.4596 147.172 91.4374 147.1 92.4148L147.283 93.7026C149.109 97.2127 150.934 100.722 152.76 104.232C153.205 103.014 153.807 101.642 155.051 101.274C156.134 100.954 157.252 101.539 158.265 102.04C162.614 104.194 167.577 105.092 172.406 104.599C172.639 103.707 172.872 102.814 173.106 101.921C175.452 102.783 177.799 103.645 180.145 104.507C178.554 103.028 176.962 101.547 175.371 100.067Z" fill="#DE8500"/>
</g>
<mask id="mask22_4932_11469" style="mask-type:luminance" maskUnits="userSpaceOnUse" x="17" y="28" width="210" height="130">
<path d="M17.1172 147.041L37.9869 116.982L50.2502 113.303L52.9811 103.862C54.2731 99.3958 57.3735 95.6723 61.532 93.593L66.6008 78.149L82.134 74.4699L100.041 38.1462L111.895 37.7375L122.932 32.4237L132.742 28.3359L143.37 40.5993L153.18 63.8994L167.567 74.0618L182.282 103.494C194.942 108.139 205.717 116.827 212.942 128.213L226.573 149.694L90.3091 157.042L17.1172 147.041Z" fill="white"/>
</mask>
<g mask="url(#mask22_4932_11469)">
<path opacity="0.8" d="M175.371 100.067C175.034 98.9055 173.095 98.7439 172.57 99.8332C173.091 98.8115 171.849 97.8532 171.043 97.0374C168.973 94.9434 169.43 91.5224 170.032 88.6406C167.613 90.2003 166.282 93.286 166.808 96.1155C166.319 95.0754 164.953 94.5511 163.894 94.9967C162.835 95.4423 162.255 96.785 162.656 97.8616C161.266 98.0897 159.847 98.3183 158.455 98.1003C157.063 97.8822 155.677 97.1367 155.052 95.8748C154.745 95.2554 154.419 94.3937 153.731 94.4634C153.265 94.5109 152.99 94.9919 152.619 95.2776C151.432 96.191 149.744 94.8758 149.202 93.4803C148.659 92.0848 148.5 90.3994 147.317 89.4823C147.244 90.4596 147.172 91.4374 147.1 92.4148L147.283 93.7026C149.109 97.2127 150.934 100.722 152.76 104.232C153.205 103.014 153.807 101.642 155.051 101.274C156.134 100.954 157.252 101.539 158.265 102.04C162.614 104.194 167.577 105.092 172.406 104.599C172.639 103.707 172.872 102.814 173.106 101.921C175.452 102.783 177.799 103.645 180.145 104.507C178.554 103.028 176.962 101.547 175.371 100.067Z" fill="white"/>
</g>
<path d="M17.1172 147.041L37.9869 116.982L50.2502 113.303L52.9811 103.862C54.2731 99.3958 57.3735 95.6723 61.532 93.593L66.6008 78.149L82.134 74.4699L100.041 38.1462L111.895 37.7375L122.932 32.4237L132.742 28.3359L143.37 40.5993L153.18 63.8994L167.567 74.0618L182.282 103.494C194.942 108.139 205.717 116.827 212.942 128.213L226.573 149.694L90.3091 157.042L17.1172 147.041Z" stroke="#DE8500" stroke-miterlimit="10" stroke-linecap="round" stroke-linejoin="round"/>
<path d="M75.5077 134.945C74.0372 140.267 72.5662 145.589 71.0957 150.91" stroke="#DE8500" stroke-miterlimit="10" stroke-linecap="round" stroke-linejoin="round"/>
<path d="M141.803 75.8929C144.908 74.2904 148.014 72.6884 151.119 71.0859" stroke="#DE8500" stroke-miterlimit="10" stroke-linecap="round" stroke-linejoin="round"/>
<path d="M148.889 83.7952C150.811 81.9974 153.03 80.5179 155.429 79.435C157.499 78.5004 159.972 79.2871 162.243 79.2692" stroke="#DE8500" stroke-miterlimit="10" stroke-linecap="round" stroke-linejoin="round"/>
<path d="M43.4219 148.652C47.0297 143.276 53.0843 138.659 54.23 132.286C54.8325 128.936 55.4349 125.585 56.0369 122.234" stroke="#DE8500" stroke-miterlimit="10" stroke-linecap="round" stroke-linejoin="round"/>
<path d="M101.931 40.3984L104.692 45.1663C104.692 45.1663 101.43 46.9229 100.677 50.9378C99.9239 54.9528 99.6731 63.7355 99.6731 63.7355C99.6731 63.7355 96.9127 64.7392 95.909 67.2483C94.9053 69.7579 94.1523 76.2818 94.1523 76.2818L109.459 77.7877L119.998 75.7803" stroke="#DE8500" stroke-miterlimit="10" stroke-linecap="round" stroke-linejoin="round"/>
<path d="M112.721 40.1484L115.983 43.6612L119.747 60.7246L124.515 63.9866L127.526 72.2672L137.061 71.0127C137.061 71.0127 137.563 67.4999 140.072 66.9978C142.581 66.4956 143.836 68.2523 143.836 68.2523L146.346 66.7464" stroke="#DE8500" stroke-miterlimit="10" stroke-linecap="round" stroke-linejoin="round"/>
<path d="M120.25 42.6608H132.044L134.804 41.4062C134.804 41.4062 137.063 42.6608 138.568 42.1592C140.074 41.6576 142.082 41.657 142.082 41.657" fill="white"/>
<path d="M120.25 42.6608H132.044L134.804 41.4062C134.804 41.4062 137.063 42.6608 138.568 42.1592C140.074 41.6576 142.082 41.657 142.082 41.657" stroke="#DE8500" stroke-miterlimit="10" stroke-linecap="round" stroke-linejoin="round"/>
<path d="M165.416 75.0312L159.645 76.5371C159.645 76.5371 151.615 76.035 149.608 76.035C147.6 76.035 143.585 82.5589 143.585 82.5589L128.529 83.3119L113.223 86.8247C113.223 86.8247 101.68 87.0755 99.9234 85.3193C98.1667 83.5627 91.6427 82.0573 91.6427 82.0573L85.8712 85.5707L79.598 86.5744L70.5645 81.8065" stroke="#DE8500" stroke-miterlimit="10" stroke-linecap="round" stroke-linejoin="round"/>
<path d="M52.498 113.669L65.7973 114.924L76.0854 110.407C76.0854 110.407 81.857 108.65 91.1413 108.148" stroke="#DE8500" stroke-miterlimit="10" stroke-linecap="round" stroke-linejoin="round"/>
<path d="M158.641 102.378C158.641 102.378 168.427 104.636 172.442 104.135C172.442 104.135 171.94 101.625 173.948 101.625C175.955 101.625 177.712 104.135 177.712 104.135L180.723 103.884" stroke="#DE8500" stroke-miterlimit="10" stroke-linecap="round" stroke-linejoin="round"/>
<path d="M144.59 89.3281L152.62 103.38L164.664 112.414L174.45 129.226L176.96 133.743" stroke="#DE8500" stroke-miterlimit="10" stroke-linecap="round" stroke-linejoin="round"/>
<path d="M191.011 125.467C191.011 125.467 189.505 122.707 187.749 120.198C185.992 117.688 181.977 118.441 181.977 118.441L177.963 113.172L164.914 106.898" stroke="#DE8500" stroke-miterlimit="10" stroke-linecap="round" stroke-linejoin="round"/>
<path d="M89.8856 113.422C89.8856 113.422 85.8707 120.448 84.3654 126.47C82.8595 132.493 81.1034 137.009 81.1034 137.009C81.1034 137.009 77.8414 140.271 76.3356 142.781C74.8303 145.29 74.3281 151.061 74.3281 151.061" stroke="#DE8500" stroke-miterlimit="10" stroke-linecap="round" stroke-linejoin="round"/>
<path d="M86.7422 153.54C87.3673 147.92 89.7814 142.531 93.4969 138.275L97.8703 124.204C99.0182 120.51 101.422 118.918 104.665 116.81V115.226L107.426 104.938" stroke="#DE8500" stroke-miterlimit="10" stroke-linecap="round" stroke-linejoin="round"/>
<path d="M250.798 132.867C250.654 135.344 250.408 137.793 250.07 140.219C249.622 143.424 249.009 146.589 248.235 149.697C246.423 157.003 243.728 164.027 240.264 170.673C238.642 173.804 236.841 176.848 234.88 179.796C195.228 181 113.488 181.963 87.8274 170.684H87.8216C87.5634 170.57 87.3168 170.455 87.0702 170.34C86.8295 170.225 86.5887 170.105 86.3537 169.99C86.0269 169.824 85.7117 169.658 85.4076 169.486C85.4076 169.486 85.4076 169.486 85.4018 169.486C85.0976 169.313 84.8056 169.141 84.5242 168.97C84.5068 168.964 84.4899 168.952 84.4725 168.941C84.2085 168.769 83.9566 168.603 83.7153 168.436C83.2053 168.075 82.7348 167.703 82.3219 167.324C82.219 167.226 82.1213 167.129 82.0236 167.037C81.9259 166.945 81.8404 166.854 81.7485 166.756C81.7485 166.756 81.7427 166.751 81.7427 166.745C81.559 166.55 81.3874 166.349 81.238 166.149C81.1577 166.046 81.0832 165.948 81.0141 165.844C80.871 165.638 80.7448 165.432 80.6297 165.225C80.5663 165.116 80.5151 165.002 80.4576 164.893C80.446 164.864 80.4291 164.83 80.4116 164.795C80.3599 164.669 80.3087 164.548 80.2627 164.422C80.2168 164.29 80.1709 164.153 80.1307 164.015C80.0964 163.877 80.0621 163.74 80.0331 163.602C80.0045 163.436 79.9755 163.269 79.9586 163.097C79.8783 162.312 79.976 161.486 80.268 160.626C80.3139 160.488 80.3657 160.356 80.4169 160.219C80.5774 159.806 80.7781 159.387 81.0304 158.957C81.1968 158.676 81.3805 158.39 81.5811 158.103C81.6788 157.959 81.7876 157.81 81.9022 157.662C82.2348 157.22 82.6076 156.773 83.0374 156.314V156.308C83.1863 156.154 83.3299 156.004 83.4788 155.849C83.4788 155.849 83.4788 155.849 83.4846 155.844C83.5131 155.826 83.605 155.775 83.7597 155.695C83.8114 155.666 83.8743 155.631 83.9487 155.592C84.5564 155.277 85.7777 154.686 87.7218 153.889C87.8364 153.837 87.9509 153.791 88.0713 153.745C88.3464 153.631 88.6389 153.516 88.9431 153.39C88.9431 153.39 88.9431 153.39 88.9489 153.39C90.0841 152.943 91.4204 152.45 92.9627 151.911C93.1407 151.847 93.3181 151.784 93.5018 151.722C94.7864 151.28 96.2141 150.815 97.7855 150.328C98.0088 150.26 98.2327 150.185 98.4676 150.116C98.7544 150.03 99.0469 149.938 99.3452 149.852C99.9471 149.668 100.566 149.485 101.209 149.301C103.549 148.625 106.146 147.919 109.03 147.197C109.655 147.036 110.297 146.881 110.951 146.721C111.599 146.566 112.264 146.406 112.946 146.245C115.326 145.683 117.872 145.116 120.596 144.548C121.37 144.387 122.167 144.221 122.97 144.06C123.377 143.98 123.778 143.894 124.191 143.814C124.77 143.699 125.355 143.585 125.952 143.469C126.623 143.337 127.299 143.211 127.987 143.079C129.289 142.833 130.619 142.592 131.984 142.345C133.165 142.139 134.375 141.927 135.608 141.714C136.594 141.554 137.592 141.382 138.613 141.221C139.278 141.112 139.96 141.003 140.642 140.894C141.227 140.802 141.812 140.711 142.403 140.619C143.331 140.476 144.272 140.333 145.229 140.189C145.757 140.109 146.284 140.029 146.818 139.955C148.423 139.72 150.057 139.49 151.738 139.261C152.827 139.112 153.928 138.962 155.052 138.814C155.654 138.739 156.262 138.659 156.876 138.579C157.461 138.504 158.045 138.43 158.636 138.355C161.044 138.056 163.521 137.759 166.073 137.466C167.283 137.328 168.511 137.191 169.755 137.059C170.001 137.036 170.248 137.007 170.494 136.979C170.494 136.979 170.494 136.979 170.5 136.979C170.896 136.939 171.297 136.898 171.699 136.853C173 136.715 174.325 136.577 175.667 136.445C175.976 136.417 176.286 136.388 176.595 136.354C177.633 136.251 178.677 136.147 179.737 136.049C181.096 135.917 182.478 135.791 183.872 135.671C184.646 135.602 185.426 135.533 186.211 135.464C187.312 135.373 188.425 135.275 189.549 135.184C192.748 134.925 196.034 134.673 199.411 134.426C200.179 134.375 200.953 134.318 201.733 134.266C202.513 134.214 203.299 134.157 204.09 134.105C205.73 134.002 207.388 133.893 209.068 133.79C210.622 133.692 212.199 133.601 213.787 133.515C214.619 133.469 215.45 133.417 216.287 133.377C217.245 133.325 218.208 133.274 219.177 133.223C220.754 133.142 222.342 133.062 223.954 132.988C224.82 132.947 225.691 132.907 226.568 132.867H250.798Z" fill="#DE8500"/>
<path opacity="0.2" d="M250.798 132.867C250.654 135.344 250.408 137.793 250.07 140.219C249.622 143.424 249.009 146.589 248.235 149.697C246.423 157.003 243.728 164.027 240.264 170.673C238.642 173.804 236.841 176.848 234.88 179.796C195.228 181 113.488 181.963 87.8274 170.684H87.8216C87.5634 170.57 87.3168 170.455 87.0702 170.34C86.8295 170.225 86.5887 170.105 86.3537 169.99C86.0269 169.824 85.7117 169.658 85.4076 169.486C85.4076 169.486 85.4076 169.486 85.4018 169.486C85.0976 169.313 84.8056 169.141 84.5242 168.97C84.5068 168.964 84.4899 168.952 84.4725 168.941C84.2085 168.769 83.9566 168.603 83.7153 168.436C83.2053 168.075 82.7348 167.703 82.3219 167.324C82.219 167.226 82.1213 167.129 82.0236 167.037C81.9259 166.945 81.8404 166.854 81.7485 166.756C81.7485 166.756 81.7427 166.751 81.7427 166.745C81.559 166.55 81.3874 166.349 81.238 166.149C81.1577 166.046 81.0832 165.948 81.0141 165.844C80.871 165.638 80.7448 165.432 80.6297 165.225C80.5663 165.116 80.5151 165.002 80.4576 164.893C80.446 164.864 80.4291 164.83 80.4116 164.795C80.3599 164.669 80.3087 164.548 80.2627 164.422C80.2168 164.29 80.1709 164.153 80.1307 164.015C80.0964 163.877 80.0621 163.74 80.0331 163.602C80.0045 163.436 79.9755 163.269 79.9586 163.097C79.8783 162.312 79.976 161.486 80.268 160.626C80.3139 160.488 80.3657 160.356 80.4169 160.219C80.5774 159.806 80.7781 159.387 81.0304 158.957C81.1968 158.676 81.3805 158.39 81.5811 158.103C81.6788 157.959 81.7876 157.81 81.9022 157.662C82.2348 157.22 82.6076 156.773 83.0374 156.314V156.308C83.1863 156.154 83.3299 156.004 83.4788 155.849C83.4788 155.849 83.4788 155.849 83.4846 155.844C83.5131 155.826 83.605 155.775 83.7597 155.695C83.8114 155.666 83.8743 155.631 83.9487 155.592C84.5564 155.277 85.7777 154.686 87.7218 153.889C87.8364 153.837 87.9509 153.791 88.0713 153.745C88.3464 153.631 88.6389 153.516 88.9431 153.39C88.9431 153.39 88.9431 153.39 88.9489 153.39C90.0841 152.943 91.4204 152.45 92.9627 151.911C93.1407 151.847 93.3181 151.784 93.5018 151.722C94.7864 151.28 96.2141 150.815 97.7855 150.328C98.0088 150.26 98.2327 150.185 98.4676 150.116C98.7544 150.03 99.0469 149.938 99.3452 149.852C99.9471 149.668 100.566 149.485 101.209 149.301C103.549 148.625 106.146 147.919 109.03 147.197C109.655 147.036 110.297 146.881 110.951 146.721C111.599 146.566 112.264 146.406 112.946 146.245C115.326 145.683 117.872 145.116 120.596 144.548C121.37 144.387 122.167 144.221 122.97 144.06C123.377 143.98 123.778 143.894 124.191 143.814C124.77 143.699 125.355 143.585 125.952 143.469C126.623 143.337 127.299 143.211 127.987 143.079C129.289 142.833 130.619 142.592 131.984 142.345C133.165 142.139 134.375 141.927 135.608 141.714C136.594 141.554 137.592 141.382 138.613 141.221C139.278 141.112 139.96 141.003 140.642 140.894C141.227 140.802 141.812 140.711 142.403 140.619C143.331 140.476 144.272 140.333 145.229 140.189C145.757 140.109 146.284 140.029 146.818 139.955C148.423 139.72 150.057 139.49 151.738 139.261C152.827 139.112 153.928 138.962 155.052 138.814C155.654 138.739 156.262 138.659 156.876 138.579C157.461 138.504 158.045 138.43 158.636 138.355C161.044 138.056 163.521 137.759 166.073 137.466C167.283 137.328 168.511 137.191 169.755 137.059C170.001 137.036 170.248 137.007 170.494 136.979C170.494 136.979 170.494 136.979 170.5 136.979C170.896 136.939 171.297 136.898 171.699 136.853C173 136.715 174.325 136.577 175.667 136.445C175.976 136.417 176.286 136.388 176.595 136.354C177.633 136.251 178.677 136.147 179.737 136.049C181.096 135.917 182.478 135.791 183.872 135.671C184.646 135.602 185.426 135.533 186.211 135.464C187.312 135.373 188.425 135.275 189.549 135.184C192.748 134.925 196.034 134.673 199.411 134.426C200.179 134.375 200.953 134.318 201.733 134.266C202.513 134.214 203.299 134.157 204.09 134.105C205.73 134.002 207.388 133.893 209.068 133.79C210.622 133.692 212.199 133.601 213.787 133.515C214.619 133.469 215.45 133.417 216.287 133.377C217.245 133.325 218.208 133.274 219.177 133.223C220.754 133.142 222.342 133.062 223.954 132.988C224.82 132.947 225.691 132.907 226.568 132.867H250.798Z" fill="white"/>
<path d="M250.799 132.867C250.656 135.344 250.409 137.793 250.071 140.219C249.624 143.424 249.01 146.589 248.236 149.697H226.572C186.319 151.503 156.535 154.967 134.884 158.677H134.878C108.581 163.178 94.2857 168.035 87.8293 170.684H87.8235C87.5653 170.57 87.3188 170.455 87.0722 170.34C86.8314 170.225 86.5907 170.105 86.3557 169.99C86.0289 169.824 85.7136 169.658 85.4095 169.486C85.4095 169.486 85.4095 169.486 85.4037 169.486C85.0996 169.313 84.8076 169.141 84.5262 168.97C84.5087 168.964 84.4919 168.952 84.4744 168.941C84.2104 168.769 83.9586 168.603 83.7173 168.436C83.2014 168.081 82.7368 167.708 82.3239 167.324C82.2209 167.226 82.1232 167.129 82.0256 167.037C81.9279 166.945 81.8423 166.854 81.7505 166.756C81.7505 166.756 81.7447 166.751 81.7447 166.745C81.5609 166.55 81.3893 166.349 81.2399 166.149C81.1596 166.046 81.0852 165.948 81.016 165.844C80.8729 165.644 80.7409 165.437 80.6316 165.225C80.5683 165.116 80.5171 165.002 80.4595 164.893C80.4479 164.864 80.431 164.83 80.4136 164.795C80.3618 164.669 80.3106 164.548 80.2647 164.422C80.2187 164.29 80.1728 164.153 80.1327 164.015C80.0984 163.877 80.064 163.74 80.035 163.602C80.0065 163.436 79.9775 163.269 79.9606 163.097C79.8803 162.312 79.978 161.486 80.27 160.626C80.3159 160.488 80.3676 160.356 80.4189 160.219C80.5794 159.806 80.78 159.387 81.0324 158.957C81.1929 158.676 81.3767 158.39 81.5831 158.103C81.6808 157.959 81.7895 157.81 81.9041 157.662C82.2368 157.22 82.6095 156.773 83.0393 156.314V156.308C83.1771 156.159 83.326 156.004 83.4749 155.849C83.4749 155.849 83.4749 155.849 83.4807 155.849C83.4807 155.849 83.4807 155.849 83.4865 155.844C83.5151 155.826 83.6069 155.775 83.7616 155.695C83.8134 155.666 83.8762 155.631 83.9506 155.592C84.5584 155.277 85.7796 154.686 87.7237 153.889C87.8383 153.837 87.9529 153.791 88.0733 153.745C88.3484 153.631 88.6409 153.516 88.945 153.39C88.945 153.39 88.945 153.39 88.9508 153.39C90.086 152.943 91.4224 152.45 92.9647 151.911C93.1426 151.847 93.32 151.784 93.5038 151.722C94.7884 151.28 96.2161 150.815 97.7874 150.328C98.0108 150.26 98.2346 150.185 98.4696 150.116C98.7563 150.03 99.0488 149.938 99.3471 149.852C99.9491 149.668 100.568 149.485 101.211 149.301C103.551 148.625 106.148 147.919 109.032 147.197C109.657 147.036 110.299 146.881 110.953 146.721C111.601 146.566 112.266 146.406 112.948 146.245C115.328 145.683 117.874 145.116 120.598 144.548C121.372 144.387 122.169 144.221 122.972 144.06C123.379 143.98 123.78 143.894 124.193 143.814C124.772 143.699 125.357 143.585 125.954 143.469C126.625 143.337 127.301 143.211 127.989 143.079C129.291 142.833 130.621 142.592 131.985 142.345C133.167 142.139 134.377 141.927 135.61 141.714C136.596 141.554 137.594 141.382 138.614 141.221C139.28 141.112 139.962 141.003 140.644 140.894C141.229 140.802 141.814 140.711 142.404 140.619C143.333 140.476 144.274 140.333 145.231 140.189C145.759 140.109 146.286 140.029 146.82 139.955C148.425 139.72 150.059 139.49 151.74 139.261C152.829 139.112 153.93 138.962 155.054 138.814C155.656 138.739 156.264 138.659 156.877 138.579C157.463 138.504 158.047 138.43 158.638 138.355C161.046 138.056 163.523 137.759 166.075 137.466C167.285 137.334 168.512 137.197 169.756 137.059C170.003 137.036 170.25 137.007 170.496 136.979C170.496 136.979 170.496 136.979 170.502 136.979C170.897 136.939 171.299 136.898 171.701 136.853C173.002 136.715 174.327 136.583 175.668 136.445C175.978 136.417 176.288 136.388 176.597 136.354C177.635 136.251 178.679 136.153 179.739 136.049C181.098 135.923 182.474 135.797 183.874 135.671C184.648 135.602 185.428 135.533 186.213 135.464C187.314 135.373 188.427 135.275 189.551 135.184C192.75 134.925 196.036 134.673 199.413 134.426C200.181 134.375 200.955 134.318 201.735 134.266C202.515 134.214 203.301 134.157 204.092 134.105C205.732 134.002 207.39 133.893 209.07 133.79C210.624 133.692 212.201 133.601 213.789 133.515C214.621 133.469 215.452 133.417 216.289 133.377C217.247 133.325 218.21 133.274 219.179 133.223C220.756 133.142 222.344 133.062 223.956 132.988C224.822 132.947 225.693 132.907 226.57 132.867H250.799Z" fill="#DE8500"/>
<path opacity="0.3" d="M250.799 132.867C250.656 135.344 250.409 137.793 250.071 140.219C249.624 143.424 249.01 146.589 248.236 149.697H226.572C186.319 151.503 156.535 154.967 134.884 158.677H134.878C108.581 163.178 94.2857 168.035 87.8293 170.684H87.8235C87.5653 170.57 87.3188 170.455 87.0722 170.34C86.8314 170.225 86.5907 170.105 86.3557 169.99C86.0289 169.824 85.7136 169.658 85.4095 169.486C85.4095 169.486 85.4095 169.486 85.4037 169.486C85.0996 169.313 84.8076 169.141 84.5262 168.97C84.5087 168.964 84.4919 168.952 84.4744 168.941C84.2104 168.769 83.9586 168.603 83.7173 168.436C83.2014 168.081 82.7368 167.708 82.3239 167.324C82.2209 167.226 82.1232 167.129 82.0256 167.037C81.9279 166.945 81.8423 166.854 81.7505 166.756C81.7505 166.756 81.7447 166.751 81.7447 166.745C81.5609 166.55 81.3893 166.349 81.2399 166.149C81.1596 166.046 81.0852 165.948 81.016 165.844C80.8729 165.644 80.7409 165.437 80.6316 165.225C80.5683 165.116 80.5171 165.002 80.4595 164.893C80.4479 164.864 80.431 164.83 80.4136 164.795C80.3618 164.669 80.3106 164.548 80.2647 164.422C80.2187 164.29 80.1728 164.153 80.1327 164.015C80.0984 163.877 80.064 163.74 80.035 163.602C80.0065 163.436 79.9775 163.269 79.9606 163.097C79.8803 162.312 79.978 161.486 80.27 160.626C80.3159 160.488 80.3676 160.356 80.4189 160.219C80.5794 159.806 80.78 159.387 81.0324 158.957C81.1929 158.676 81.3767 158.39 81.5831 158.103C81.6808 157.959 81.7895 157.81 81.9041 157.662C82.2368 157.22 82.6095 156.773 83.0393 156.314V156.308C83.1771 156.159 83.326 156.004 83.4749 155.849C83.4749 155.849 83.4749 155.849 83.4807 155.849C83.4807 155.849 83.4807 155.849 83.4865 155.844C83.5151 155.826 83.6069 155.775 83.7616 155.695C83.8134 155.666 83.8762 155.631 83.9506 155.592C84.5584 155.277 85.7796 154.686 87.7237 153.889C87.8383 153.837 87.9529 153.791 88.0733 153.745C88.3484 153.631 88.6409 153.516 88.945 153.39C88.945 153.39 88.945 153.39 88.9508 153.39C90.086 152.943 91.4224 152.45 92.9647 151.911C93.1426 151.847 93.32 151.784 93.5038 151.722C94.7884 151.28 96.2161 150.815 97.7874 150.328C98.0108 150.26 98.2346 150.185 98.4696 150.116C98.7563 150.03 99.0488 149.938 99.3471 149.852C99.9491 149.668 100.568 149.485 101.211 149.301C103.551 148.625 106.148 147.919 109.032 147.197C109.657 147.036 110.299 146.881 110.953 146.721C111.601 146.566 112.266 146.406 112.948 146.245C115.328 145.683 117.874 145.116 120.598 144.548C121.372 144.387 122.169 144.221 122.972 144.06C123.379 143.98 123.78 143.894 124.193 143.814C124.772 143.699 125.357 143.585 125.954 143.469C126.625 143.337 127.301 143.211 127.989 143.079C129.291 142.833 130.621 142.592 131.985 142.345C133.167 142.139 134.377 141.927 135.61 141.714C136.596 141.554 137.594 141.382 138.614 141.221C139.28 141.112 139.962 141.003 140.644 140.894C141.229 140.802 141.814 140.711 142.404 140.619C143.333 140.476 144.274 140.333 145.231 140.189C145.759 140.109 146.286 140.029 146.82 139.955C148.425 139.72 150.059 139.49 151.74 139.261C152.829 139.112 153.93 138.962 155.054 138.814C155.656 138.739 156.264 138.659 156.877 138.579C157.463 138.504 158.047 138.43 158.638 138.355C161.046 138.056 163.523 137.759 166.075 137.466C167.285 137.334 168.512 137.197 169.756 137.059C170.003 137.036 170.25 137.007 170.496 136.979C170.496 136.979 170.496 136.979 170.502 136.979C170.897 136.939 171.299 136.898 171.701 136.853C173.002 136.715 174.327 136.583 175.668 136.445C175.978 136.417 176.288 136.388 176.597 136.354C177.635 136.251 178.679 136.153 179.739 136.049C181.098 135.923 182.474 135.797 183.874 135.671C184.648 135.602 185.428 135.533 186.213 135.464C187.314 135.373 188.427 135.275 189.551 135.184C192.75 134.925 196.036 134.673 199.413 134.426C200.181 134.375 200.955 134.318 201.735 134.266C202.515 134.214 203.301 134.157 204.092 134.105C205.732 134.002 207.39 133.893 209.07 133.79C210.624 133.692 212.201 133.601 213.789 133.515C214.621 133.469 215.452 133.417 216.289 133.377C217.247 133.325 218.21 133.274 219.179 133.223C220.756 133.142 222.344 133.062 223.956 132.988C224.822 132.947 225.693 132.907 226.57 132.867H250.799Z" fill="white"/>
<path d="M248.237 149.695H226.573C186.32 151.502 156.536 154.965 134.884 158.675H134.879C108.582 163.176 94.2865 168.033 87.8301 170.682" stroke="#515B60" stroke-miterlimit="10"/>
<path d="M234.823 179.879L118.277 183.56L34.9595 186.169C25.4582 173.995 18.8297 159.953 15.9336 144.797C17.5678 144.992 33.6406 146.907 56.5083 149.596C61.6404 150.198 67.1163 150.841 72.8446 151.511C78.0227 152.113 83.4125 152.744 88.946 153.386C88.946 153.386 88.946 153.386 88.9518 153.386C103.637 155.095 119.349 156.901 134.882 158.673C171.862 162.876 207.867 166.833 226.795 168.53C232.14 169.012 236.583 169.769 240.264 170.669C238.642 173.8 236.841 176.845 234.88 179.793L234.823 179.879Z" fill="#DE8500"/>
<path opacity="0.1" d="M234.823 179.879L118.277 183.56L34.9595 186.169C25.4582 173.995 18.8297 159.953 15.9336 144.797C17.5678 144.992 33.6406 146.907 56.5083 149.596C61.6404 150.198 67.1163 150.841 72.8446 151.511C78.0227 152.113 83.4125 152.744 88.946 153.386C88.946 153.386 88.946 153.386 88.9518 153.386C103.637 155.095 119.349 156.901 134.882 158.673C171.862 162.876 207.867 166.833 226.795 168.53C232.14 169.012 236.583 169.769 240.264 170.669C238.642 173.8 236.841 176.845 234.88 179.793L234.823 179.879Z" fill="#263238"/>
<path d="M15.9355 144.797C17.5697 144.992 33.6426 146.907 56.5102 149.596C61.6424 150.198 67.1183 150.841 72.8466 151.511C78.0246 152.113 83.4145 152.744 88.9479 153.386C88.9479 153.386 88.9479 153.386 88.9537 153.386C103.639 155.095 119.351 156.901 134.884 158.673C171.864 162.876 207.869 166.833 226.797 168.53C232.142 169.012 236.585 169.769 240.266 170.669" stroke="#515B60" stroke-miterlimit="10"/>
<path d="M181.332 165.876L186.274 157.18L191.334 165.808L181.332 165.876Z" fill="white"/>
<path d="M182.707 165.775L186.264 159.516L189.906 165.725L182.707 165.775Z" fill="#263238"/>
<path d="M186.264 159.516L186.306 165.843" stroke="#3C464C" stroke-miterlimit="10" stroke-linecap="round" stroke-linejoin="round"/>
<path d="M186.273 157.181L191.334 165.809L201.813 165.738L196.753 157.109L186.273 157.181Z" fill="#263238"/>
<path d="M191 159.388L193.003 162.802L197.149 162.774L195.147 159.359L191 159.388Z" fill="#263238"/>
<path d="M250.959 127.405C250.959 127.91 250.954 128.42 250.942 128.925C250.942 129.143 250.942 129.36 250.93 129.578C250.925 129.934 250.913 130.289 250.902 130.639C250.896 130.851 250.89 131.069 250.873 131.281C250.856 131.809 250.833 132.336 250.799 132.863C250.765 133.419 250.73 133.976 250.684 134.526C250.662 134.859 250.633 135.191 250.598 135.524C250.576 135.862 250.541 136.2 250.506 136.533C250.455 137.078 250.398 137.623 250.328 138.161C250.288 138.54 250.242 138.924 250.191 139.302C250.168 139.503 250.139 139.698 250.11 139.899C250.099 140.001 250.088 140.111 250.07 140.214H250.064C240.443 143.27 218.033 146.132 168.33 137.708C168.33 137.708 169.104 137.49 170.498 136.974C170.498 136.974 170.498 136.974 170.503 136.974C177.206 134.502 198.159 125.236 214.914 101.119C224.295 87.6144 233.963 91.0723 241.635 98.6702C247.496 109.101 250.959 119.027 250.959 127.405Z" fill="#DE8500"/>
<g opacity="0.2">
<path d="M250.959 127.405C250.959 127.91 250.954 128.42 250.942 128.925C250.942 129.143 250.942 129.36 250.93 129.578C250.925 129.934 250.913 130.289 250.902 130.639C250.896 130.851 250.89 131.069 250.873 131.281C250.856 131.809 250.833 132.336 250.799 132.863C250.765 133.419 250.73 133.976 250.684 134.526C250.662 134.859 250.633 135.191 250.598 135.524C250.576 135.862 250.541 136.2 250.506 136.533C250.455 137.078 250.398 137.623 250.328 138.161C250.288 138.54 250.242 138.924 250.191 139.302C250.168 139.503 250.139 139.698 250.11 139.899C250.099 140.001 250.088 140.111 250.07 140.214H250.064C240.443 143.27 218.033 146.132 168.33 137.708C168.33 137.708 169.104 137.49 170.498 136.974C170.498 136.974 170.498 136.974 170.503 136.974C177.206 134.502 198.159 125.236 214.914 101.119C224.295 87.6144 233.963 91.0723 241.635 98.6702C247.496 109.101 250.959 119.027 250.959 127.405Z" fill="white"/>
</g>
<path d="M250.064 140.217C240.443 143.273 218.033 146.135 168.33 137.711" stroke="#515B60" stroke-miterlimit="10"/>
<path d="M13.6738 161.753L21.5822 139.352H15.9194L22.7047 120.13H18.165L29.4901 88.0469L40.8151 120.13H36.2754L43.0607 139.352H37.3985L45.3063 161.753H13.6738Z" fill="#DE8500"/>
<path d="M30.5388 175.844L29.2621 110.164L28.9453 175.447L30.5388 175.844Z" fill="#515B60"/>
<path d="M29.104 110.68C29.104 110.68 26.5907 115 22.0742 116.309C22.0742 116.309 26.841 115.232 29.227 111.513L29.104 110.68Z" fill="#515B60"/>
<path d="M29.82 145.984C29.82 145.984 25.3351 153.558 17.8359 155.744C17.8359 155.744 25.8277 153.666 29.7899 147.49L29.82 145.984Z" fill="#515B60"/>
<path d="M29.1576 126.484C29.1576 126.484 25.2325 133.159 18.4746 135.116C18.4746 135.116 25.6079 133.505 29.1782 127.939L29.1576 126.484Z" fill="#515B60"/>
<path d="M29.5465 131.195C29.5465 131.195 33.1713 137.655 39.6973 139.632C39.6973 139.632 32.8096 138.013 29.3691 132.455L29.5465 131.195Z" fill="#515B60"/>
<path d="M30.1227 149.508C30.1227 149.508 34.145 156.676 41.3871 158.87C41.3871 158.87 33.7437 157.074 29.9258 150.905L30.1227 149.508Z" fill="#515B60"/>
<path d="M29.4723 112.438C29.4723 112.438 31.8948 116.754 36.2555 118.075C36.2555 118.075 31.653 116.994 29.3535 113.279L29.4723 112.438Z" fill="#515B60"/>
<path d="M200.027 161.735L202.918 153.548H200.848L203.328 146.523H201.668L205.808 134.797L209.947 146.523H208.288L210.768 153.548H208.698L211.588 161.735H200.027Z" fill="#DE8500"/>
<path d="M206.192 166.888L205.725 142.883L205.609 166.743L206.192 166.888Z" fill="#515B60"/>
<path d="M205.667 143.07C205.667 143.07 204.748 144.65 203.098 145.127C203.098 145.127 204.84 144.734 205.712 143.374L205.667 143.07Z" fill="#515B60"/>
<path d="M205.929 155.977C205.929 155.977 204.29 158.745 201.549 159.544C201.549 159.544 204.47 158.784 205.918 156.527L205.929 155.977Z" fill="#515B60"/>
<path d="M205.688 148.844C205.688 148.844 204.253 151.283 201.783 151.999C201.783 151.999 204.39 151.409 205.695 149.375L205.688 148.844Z" fill="#515B60"/>
<path d="M205.83 150.57C205.83 150.57 207.155 152.931 209.54 153.654C209.54 153.654 207.023 153.062 205.766 151.031L205.83 150.57Z" fill="#515B60"/>
<path d="M206.039 157.266C206.039 157.266 207.509 159.886 210.156 160.687C210.156 160.687 207.362 160.031 205.967 157.776L206.039 157.266Z" fill="#515B60"/>
<path d="M205.803 143.711C205.803 143.711 206.689 145.289 208.282 145.771C208.282 145.771 206.6 145.376 205.76 144.018L205.803 143.711Z" fill="#515B60"/>
<path d="M51.0371 169.736L58.1049 149.714H53.044L59.1081 132.534H55.051L65.1727 103.859L75.295 132.534H71.2373L77.3019 149.714H72.2411L79.3089 169.736H51.0371Z" fill="#DE8500"/>
<path d="M66.1101 182.328L64.9691 123.625L64.6855 181.973L66.1101 182.328Z" fill="#515B60"/>
<path d="M64.8276 124.086C64.8276 124.086 62.581 127.948 58.5449 129.117C58.5449 129.117 62.8054 128.154 64.9379 124.83L64.8276 124.086Z" fill="#515B60"/>
<path d="M65.4688 155.641C65.4688 155.641 61.4608 162.41 54.7578 164.364C54.7578 164.364 61.9011 162.507 65.4419 156.987L65.4688 155.641Z" fill="#515B60"/>
<path d="M64.8784 138.211C64.8784 138.211 61.3704 144.176 55.3301 145.926C55.3301 145.926 61.7057 144.486 64.8969 139.511L64.8784 138.211Z" fill="#515B60"/>
<path d="M65.2248 142.422C65.2248 142.422 68.4646 148.195 74.2974 149.962C74.2974 149.962 68.1415 148.516 65.0664 143.547L65.2248 142.422Z" fill="#515B60"/>
<path d="M65.7389 158.789C65.7389 158.789 69.334 165.196 75.8068 167.157C75.8068 167.157 68.975 165.552 65.5625 160.038L65.7389 158.789Z" fill="#515B60"/>
<path d="M65.1589 125.656C65.1589 125.656 67.3237 129.514 71.2214 130.695C71.2214 130.695 67.1077 129.729 65.0527 126.409L65.1589 125.656Z" fill="#515B60"/>
<path d="M210.932 158.861L217.048 141.534H212.668L217.917 126.667H214.405L223.165 101.852L231.924 126.667H228.413L233.662 141.534H229.282L235.398 158.861H210.932Z" fill="#DE8500"/>
<path d="M223.977 169.762L222.99 118.961L222.744 169.456L223.977 169.762Z" fill="#515B60"/>
<path d="M222.867 119.352C222.867 119.352 220.923 122.694 217.43 123.705C217.43 123.705 221.117 122.872 222.962 119.996L222.867 119.352Z" fill="#515B60"/>
<path d="M223.42 146.656C223.42 146.656 219.951 152.514 214.15 154.206C214.15 154.206 220.332 152.598 223.397 147.821L223.42 146.656Z" fill="#515B60"/>
<path d="M222.908 131.57C222.908 131.57 219.872 136.733 214.645 138.247C214.645 138.247 220.162 137 222.924 132.695L222.908 131.57Z" fill="#515B60"/>
<path d="M223.21 135.219C223.21 135.219 226.013 140.215 231.061 141.744C231.061 141.744 225.733 140.492 223.072 136.192L223.21 135.219Z" fill="#515B60"/>
<path d="M223.654 149.383C223.654 149.383 226.766 154.927 232.367 156.624C232.367 156.624 226.455 155.236 223.502 150.464L223.654 149.383Z" fill="#515B60"/>
<path d="M223.152 120.711C223.152 120.711 225.026 124.049 228.399 125.071C228.399 125.071 224.839 124.235 223.061 121.361L223.152 120.711Z" fill="#515B60"/>
<path d="M233.573 180.156C213.033 210.983 174.965 231.683 131.391 231.683C90.8388 231.683 55.052 213.752 33.7324 186.412L233.573 180.156Z" fill="#757575"/>
<path d="M85.4375 180.382C86.2131 181.056 86.9893 181.73 87.7655 182.404C87.2438 180.301 86.7216 178.199 86.1999 176.097C87.1778 178.104 88.1551 180.11 89.133 182.117C89.0026 179.94 88.8721 177.762 88.7417 175.585C89.3135 177.882 89.8854 180.18 90.4572 182.478C91.0417 180.111 91.6262 177.743 92.2102 175.375C92.2402 179.362 92.2703 183.349 92.3004 187.335C90.5116 187.398 88.2 188.134 87.2411 186.429C86.2475 184.664 86.7564 182.291 85.4375 180.382Z" fill="#DE8500"/>
<path d="M181.111 177.573C182.143 178.47 183.175 179.366 184.208 180.262C183.514 177.466 182.819 174.67 182.125 171.874C183.426 174.543 184.726 177.212 186.026 179.881C185.853 176.985 185.679 174.089 185.506 171.193C186.266 174.249 187.027 177.306 187.787 180.362C188.565 177.213 189.342 174.064 190.119 170.914C190.159 176.217 190.199 181.519 190.239 186.822C187.859 186.906 184.785 187.885 183.51 185.617C182.189 183.269 182.866 180.112 181.111 177.573Z" fill="#DE8500"/>
<path d="M224.031 168.949C225.333 170.08 226.636 171.212 227.938 172.343C227.063 168.814 226.187 165.286 225.311 161.757C226.952 165.125 228.593 168.494 230.234 171.862C230.015 168.207 229.795 164.553 229.576 160.898C230.536 164.755 231.496 168.612 232.455 172.469C233.437 168.494 234.417 164.521 235.398 160.547C235.448 167.238 235.499 173.93 235.549 180.621C232.546 180.727 228.667 181.963 227.058 179.101C225.391 176.137 226.245 172.153 224.031 168.949Z" fill="#DE8500"/>
<path d="M92.6953 225.704L100.272 211.924L113.39 209.679L120.016 204.333C120.016 204.333 127.407 202.269 134.759 202.658C142.112 203.047 146.173 204.747 146.173 204.747L149.127 207.519L156.19 208.994C156.19 208.994 162.912 214.824 163.733 214.564C164.555 214.305 174.896 215.286 174.896 215.286L179.68 222.993C179.68 222.993 142.362 256.198 92.6953 225.704Z" fill="#263238"/>
<path d="M119.716 209.592C122.496 206.924 127.076 206.367 130.414 208.29C130.532 207.487 130.651 206.683 130.77 205.879C132.027 206.217 133.284 206.556 134.54 206.895C134.686 207.694 134.831 208.492 134.976 209.291C139.096 208.943 143.314 209.856 146.921 211.877C146.877 212.874 146.833 213.871 146.789 214.869C147.442 213.398 149.165 212.488 150.748 212.778C152.33 213.069 153.619 214.531 153.707 216.137C154.99 215.716 156.495 216.063 157.462 217.005C158.665 216.265 159.869 215.524 161.072 214.783C158.423 211.763 154.115 211.017 150.357 209.6C144.534 207.404 138.979 203.165 132.816 204.028C133.197 204.427 133.576 204.827 133.956 205.226C132.81 206.162 130.774 205.473 130.43 204.033C126.976 204.402 123.522 204.771 120.067 205.141C120.074 205.64 120.1 206.129 120.048 206.618C119.822 206.462 119.535 206.285 119.334 206.125C119.331 206.794 120.335 208.998 119.716 209.592Z" fill="#5C5C5C"/>
<path d="M110.037 220.426C108.962 218.574 107.886 216.722 106.811 214.871C110.712 214.762 114.209 217.096 117.406 219.334C116.151 217.171 114.896 215.006 113.641 212.842C113.404 212.433 113.132 211.995 112.687 211.834C112.352 211.714 111.982 211.776 111.632 211.84C109.362 212.256 103.809 212.285 102.312 213.962C103.227 215.327 104.82 216.458 106.099 217.499C107.091 218.307 109.42 219.378 110.037 220.426Z" fill="#5C5C5C"/>
<path d="M161.739 219.717C162.439 219.954 163.185 220.262 163.549 220.904C163.914 221.546 163.59 222.582 162.852 222.615C165.757 221.626 168.663 220.638 171.568 219.649C170.807 221.156 169.516 222.388 167.975 223.078C169.163 222.603 170.351 222.127 171.539 221.652C172.042 222.689 172.545 223.727 173.048 224.765C172.993 222.79 173.453 220.803 174.372 219.055C174.606 220.877 175.582 222.593 177.028 223.726C176.7 222.191 176.362 220.629 175.592 219.26C174.821 217.892 173.536 216.724 171.983 216.492C170.588 216.283 169.204 216.837 167.807 217.035C165.764 217.325 163.685 216.848 161.628 216.997C159.95 217.119 157.812 217.874 157.199 219.563C158.643 219.778 160.036 219.14 161.739 219.717Z" fill="#5C5C5C"/>
<path d="M31.9501 173.641C31.9501 173.641 18.6777 174.278 18.6777 180.284C18.6777 186.29 18.6777 186.29 18.6777 186.29L30.101 187.476L31.9501 173.641Z" fill="white" stroke="#676F74" stroke-linecap="round" stroke-linejoin="round"/>
<path d="M35.0769 165.054C33.7896 166.843 33.193 169.023 32.6206 171.151C31.1644 176.564 29.7082 181.977 28.252 187.39C39.9683 190.576 52.522 190.628 64.2642 187.538C66.2938 187.004 68.5927 186.095 69.173 184.078C69.8203 181.827 67.9407 179.705 66.2225 178.112C63.9284 175.985 61.6348 173.858 59.3406 171.731C54.3705 167.122 41.199 156.547 35.0769 165.054Z" fill="white" stroke="#676F74" stroke-linecap="round" stroke-linejoin="round"/>
<path d="M67.1612 174.46C66.3629 175.57 65.9928 176.922 65.6374 178.242C64.734 181.599 63.8311 184.958 62.9277 188.315C70.1957 190.292 77.9821 190.324 85.2658 188.407C86.5251 188.076 87.9512 187.512 88.3108 186.261C88.7126 184.864 87.5463 183.548 86.4808 182.56C85.0578 181.24 83.6348 179.92 82.2119 178.601C79.1294 175.742 70.9591 169.184 67.1612 174.46Z" fill="white" stroke="#676F74" stroke-linecap="round" stroke-linejoin="round"/>
<path d="M215.051 168.827C211.096 169.028 206.99 170.043 204.096 172.746C201.202 175.448 199.95 180.164 202.074 183.506C203.294 185.425 205.412 186.634 207.61 187.219C209.807 187.804 212.109 187.835 214.383 187.863C218.374 187.911 222.366 187.96 226.358 188.008C228.352 188.033 230.377 188.053 232.303 187.535C234.229 187.017 236.079 185.882 237.005 184.116C238.586 181.104 236.741 179.637 234.772 177.88C232.833 176.151 232.162 174.992 230.603 173.138C227.141 169.019 220.313 168.56 215.051 168.827Z" fill="white" stroke="#676F74" stroke-linecap="round" stroke-linejoin="round"/>
<path d="M189.849 187.287C191.283 189.636 194.564 189.818 197.314 189.73C202.115 189.577 206.917 189.424 211.717 189.271C213.8 189.205 216.289 188.889 217.2 187.016C218.22 184.919 216.45 182.533 214.576 181.143C210.173 177.876 204.887 176.533 199.595 177.709C195.818 178.548 186.341 181.538 189.849 187.287Z" fill="white" stroke="#676F74" stroke-linecap="round" stroke-linejoin="round"/>
<path d="M169.911 229.074H167.793L166.467 106.133H171.237L169.911 229.074Z" fill="#263238"/>
<path d="M173.772 105.454C173.51 104.964 172.955 105.038 172.32 103.984C171.685 102.931 170.433 103.363 170.035 103.237C169.636 103.112 169.616 102.946 169.719 102.406C169.823 101.867 170.021 100.09 169.192 100.2C168.362 100.311 167.989 102.198 167.872 102.652C167.485 103.492 167.044 104.311 166.553 105.103C166.173 105.247 165.78 105.357 165.379 105.433C164.921 105.494 164.494 106.429 164.473 106.865C164.454 107.142 165.036 107.957 165.477 108.525C165.711 109.015 165.975 109.492 166.268 109.953C166.268 109.953 166.819 110.492 168.181 110.137C169.544 109.782 172.388 111.154 172.719 110.845C173.05 110.535 173.642 108.885 173.876 107.981C174.105 107.148 174.069 106.27 173.772 105.454Z" fill="white" stroke="#263238" stroke-linecap="round" stroke-linejoin="round"/>
<path d="M164.239 109.181C164.232 108.708 164.363 108.242 164.615 107.832C164.988 107.428 165.484 106.113 165.941 105.863C166.399 105.613 169.448 104.904 171.167 106.162C172.887 107.42 172.679 109.268 172.819 110.154C172.958 111.041 170.752 113.997 170.201 114.106C169.651 114.215 171.674 110.097 169.475 108.854C168.871 108.512 166.113 108.913 164.239 109.181Z" fill="white" stroke="#263238" stroke-linecap="round" stroke-linejoin="round"/>
<path d="M139.367 64.5444C139.367 64.5444 140.231 63.2118 140.543 64.9431C140.854 66.6744 140.108 68.5367 139.108 69.203C138.109 69.8693 137.674 69.203 137.674 68.5367C137.674 67.8703 139.367 64.5444 139.367 64.5444Z" fill="white" stroke="#263238" stroke-linecap="round" stroke-linejoin="round"/>
<path d="M122.585 65.2111C121.977 64.9983 121.299 65.2835 121.07 65.8479C120.998 66.0264 120.976 66.2191 121.009 66.407C121.009 68.0074 123.302 70.2736 124.308 69.7382C125.314 69.2033 122.585 65.2111 122.585 65.2111Z" fill="white" stroke="#263238" stroke-linecap="round" stroke-linejoin="round"/>
<path d="M130.906 49.6159C130.906 49.6159 128.665 53.0786 126.319 54.0121C123.303 55.2138 120.868 58.8126 121.027 61.7399C121.186 64.6671 125.76 74.2624 126.478 74.5301C127.196 74.7978 136.233 74.1315 136.522 73.7329C136.81 73.3342 138.098 69.3367 139.244 65.4702C140.391 61.6036 140.391 59.6104 140.391 59.6104C140.807 58.3607 141.006 57.057 140.979 55.7492C140.891 54.1731 138.048 51.7353 138.048 51.7353C138.048 51.7353 135.579 49.0547 134.541 49.6165C133.52 50.2458 132.603 51.0093 131.818 51.8826L130.906 49.6159Z" fill="#263238" stroke="#263238" stroke-linecap="round" stroke-linejoin="round"/>
<path d="M112.211 136.073C112.211 136.073 114.151 138.804 114.258 139.863C114.363 140.923 114.357 142.9 114.458 143.56C114.557 144.221 114.152 144.702 113.646 144.702C113.308 144.672 113.005 144.496 112.829 144.227C112.888 144.77 112.99 145.308 113.135 145.838C113.335 146.504 114.458 147.072 114.358 147.733C114.258 148.394 113.135 148.683 111.6 148.683C109.705 148.671 108.008 147.591 107.313 145.952C106.396 143.964 105.479 138.273 105.479 137.214C105.478 136.155 111.194 135.315 112.211 136.073Z" fill="white" stroke="#263238" stroke-linecap="round" stroke-linejoin="round"/>
<path d="M110.072 139.578C110.072 139.578 110.478 140.43 109.661 141.762C109.108 142.55 108.695 143.415 108.438 144.324C108.665 144.986 108.972 145.622 109.355 146.219C109.766 146.978 111.119 146.885 111.195 147.551C111.268 147.909 111.195 148.279 110.989 148.589" stroke="#515B60" stroke-linecap="round" stroke-linejoin="round"/>
<path d="M111.359 143.633C111.452 144.378 111.635 145.111 111.906 145.817C112.318 146.768 114.458 147.336 113.67 148.378" stroke="#515B60" stroke-linecap="round" stroke-linejoin="round"/>
<path d="M110.07 144.031C110.169 144.648 110.34 145.252 110.582 145.833C110.888 146.379 112.934 146.969 112.522 148.488" stroke="#515B60" stroke-linecap="round" stroke-linejoin="round"/>
<path d="M112.829 144.225C112.829 144.225 112.624 142.707 112.524 142.138C112.45 141.595 112.415 141.048 112.418 140.5" stroke="#515B60" stroke-linecap="round" stroke-linejoin="round"/>
<path d="M146.317 77.8901C143.632 75.9423 140.485 74.6181 137.138 74.0288C131.399 72.9638 123.796 74.6952 120.785 76.5574C118.968 77.7396 117.771 79.577 117.486 81.6199L146.317 77.8901Z" fill="white" stroke="#263238" stroke-linecap="round" stroke-linejoin="round"/>
<path d="M171.478 110.369C171.723 114.211 163.232 118.399 159.214 113.565C156.245 109.993 151.648 94.9042 151.648 94.9042C151.648 94.9042 150.567 118.201 150.567 119.67C150.567 121.138 149.906 123.357 149.906 123.357C149.906 123.357 149.675 124.985 148.673 125.647C147.678 126.316 147.255 128.275 134.906 129.214C127.539 129.813 120.113 129.227 112.955 127.482C112.39 127.345 112.101 124.282 112.101 124.282L111.67 133.206C111.157 133.738 110.519 134.144 109.806 134.407C108.663 134.807 105.358 134.537 104.645 134.138C103.925 133.738 102.477 122.952 102.633 121.089C102.789 119.22 103.989 93.3962 106.541 87.3443C108.615 82.4281 112.073 80.2015 116.952 78.8636C121.823 77.5325 131.705 77.7574 132.292 77.6265C132.292 77.6265 141.849 78.1576 146.453 77.3646C146.453 77.3646 155.067 77.0198 157.711 81.9371C159.597 85.4356 161.837 92.1692 162.973 95.7633C163.506 97.4523 164.154 99.105 164.91 100.72L166.794 104.742C169.126 105.506 171.337 108.093 171.478 110.369Z" fill="#DE8500" stroke="#263238" stroke-miterlimit="10" stroke-linecap="round" stroke-linejoin="round"/>
<path d="M127.57 86.6562C127.57 86.6562 129.511 93.7557 135.215 96.6555" stroke="#515B60" stroke-linecap="round" stroke-linejoin="round"/>
<path d="M135.969 99.7969C136.4 100.004 136.841 100.207 137.292 100.403" stroke="#515B60" stroke-linecap="round" stroke-linejoin="round"/>
<path d="M127.57 94.0156C129.465 95.8024 131.583 97.3721 133.88 98.6905" stroke="#515B60" stroke-linecap="round" stroke-linejoin="round"/>
<path d="M153.521 122.552C131.575 131.743 111.924 124.283 111.924 124.283C111.924 124.283 112.212 127.347 112.782 127.483C119.938 129.227 127.364 129.813 134.733 129.214C147.082 128.28 152.233 126.549 153.233 125.883C154.232 125.217 154.097 123.218 154.097 123.218C154.097 123.218 154.097 122.913 154.156 122.438L153.521 122.552Z" fill="white" stroke="#263238" stroke-linecap="round" stroke-linejoin="round"/>
<path d="M102.885 132.808C102.885 132.808 106.184 134.14 108.912 133.354C111.64 132.567 112.352 131.753 112.781 131.89C113.21 132.026 113.216 135.216 112.781 136.15C112.346 137.084 111.346 137.75 108.336 138.018C105.325 138.285 103.749 136.925 103.461 136.15C103.193 135.049 103 133.932 102.885 132.808Z" fill="white" stroke="#263238" stroke-linecap="round" stroke-linejoin="round"/>
<path d="M111.629 91.4609C111.667 98.3857 112.408 105.307 113.838 112.104" stroke="#515B60" stroke-linecap="round" stroke-linejoin="round"/>
<path d="M120.864 56.8824C119.518 59.7811 119.505 61.6439 120.687 64.5849C122.176 68.2851 125.639 69.4652 127.746 69.6653C131.624 70.0333 135.404 69.8448 138.686 67.8627C141.967 65.8806 143.384 61.4887 142.744 57.8661C142.194 54.7535 140.222 50.4799 137.098 49.3441C129.876 46.7184 123.829 50.4915 120.864 56.8824Z" fill="#BFBFBF" stroke="#263238" stroke-miterlimit="10" stroke-linecap="round" stroke-linejoin="round"/>
<path d="M122.19 54.1296C120.713 56.7311 120.461 58.5036 121.153 61.4788C122.109 65.5883 125.409 66.9706 127.495 67.1971C131.371 67.6184 135.149 67.3555 138.198 64.9663C141.075 62.7112 141.705 58.1815 140.639 54.8387C139.798 52.2035 137.799 48.904 135.312 48.0972C129.805 46.3115 125.095 49.0149 122.19 54.1296Z" fill="#999999" stroke="#263238" stroke-miterlimit="10" stroke-linecap="round" stroke-linejoin="round"/>
<path d="M131.362 54.8478C132.288 54.8478 133.038 54.1876 133.038 53.3731C133.038 52.5587 132.288 51.8984 131.362 51.8984C130.436 51.8984 129.686 52.5587 129.686 53.3731C129.686 54.1876 130.436 54.8478 131.362 54.8478Z" fill="#263238" stroke="#263238" stroke-miterlimit="10" stroke-linecap="round" stroke-linejoin="round"/>
<path d="M127.064 55.8672C125.078 58.9882 125.144 63.0226 125.582 66.8892" stroke="#263238" stroke-miterlimit="10" stroke-linecap="round" stroke-linejoin="round"/>
<path d="M132.186 56.5469C132.74 60.0707 132.902 63.6474 132.667 67.2019" stroke="#263238" stroke-miterlimit="10" stroke-linecap="round" stroke-linejoin="round"/>
<path d="M136.879 55.1641C138.533 57.7761 139.213 60.9092 138.778 63.9125" stroke="#263238" stroke-miterlimit="10" stroke-linecap="round" stroke-linejoin="round"/>
<path d="M166.787 107.492C167.101 109.061 166.556 110.758 165.367 111.91" stroke="#515B60" stroke-linecap="round" stroke-linejoin="round"/>
<path d="M158.719 90.8828C158.658 91.2672 158.586 91.6495 158.5 92.0296" stroke="#515B60" stroke-linecap="round" stroke-linejoin="round"/>
<path d="M158.033 82.3984C158.82 84.7966 159.096 87.3379 158.852 89.8343" stroke="#515B60" stroke-linecap="round" stroke-linejoin="round"/>
<path d="M114.3 129.143C114.3 129.143 111.776 139.241 112.205 143.506C112.635 147.772 111.886 160.474 113.487 170.219C115.756 184.033 115.11 197.187 115.36 203.88C115.446 206.189 115.235 208.512 114.497 210.718C113.981 212.265 113.825 214.669 115.683 217.714C115.715 218.256 116.884 218.079 117.044 218.6C117.044 218.6 119.196 219.933 120.49 220.064C121.783 220.195 120.158 221.516 126.814 217.806C128.305 216.976 129.116 212.196 128.504 210.238C127.561 207.222 129.045 202.525 128.692 187.94C128.531 181.282 128.096 183.787 129.884 173.541C132.685 157.498 132.105 146.406 132.105 146.406C132.105 146.406 132.525 148.813 132.568 150.098C132.781 156.601 134.346 175.795 134.655 192.093C134.908 205.447 136.355 221.356 136.355 222.421C136.355 223.486 136.093 225.804 136.093 226.738C136.093 227.672 136.007 229.357 136.436 230.023C136.789 230.663 137.076 231.332 137.295 232.021C137.295 232.021 142.463 232.819 143.893 232.819C145.322 232.819 146.939 231.696 146.939 231.696L147.198 230.647C147.814 228.143 148.906 227.607 149.175 225.051C150.857 209.077 151.945 203.014 152.047 156.004C152.051 154.153 150.329 130.342 150.329 130.342L150.04 127.142C150.04 127.142 134.981 129.01 127.807 128.076C120.633 127.142 114.752 126.875 114.752 126.875L114.3 129.143Z" fill="white" stroke="#263238" stroke-linecap="round" stroke-linejoin="round"/>
<path d="M126.713 232C126.713 233.095 124.455 233.551 122.196 233.635C120.768 233.649 119.37 233.27 118.177 232.547C118.177 232.547 116.25 232.694 115.578 231.923C114.906 231.144 115.245 229.354 115.669 228.737C116.092 228.112 117.724 226.681 118.313 225.58C118.683 224.864 117.051 222.19 116.877 217.426C117.149 217.083 117.724 216.823 118.449 216.641L118.751 219.749C118.751 219.749 124.319 218.83 125.663 219.911C125.844 220.058 125.996 220.072 126.124 219.988C125.837 221.335 125.656 223.145 126.207 224.997C127.612 229.706 126.713 231.551 126.713 232Z" fill="#757575" stroke="#263238" stroke-miterlimit="10" stroke-linecap="round" stroke-linejoin="round"/>
<path d="M126.125 219.985C125.996 220.069 125.845 220.055 125.664 219.908C124.319 218.827 118.751 219.746 118.751 219.746L118.449 216.638C120.028 216.231 122.317 216.175 123.745 216.329C124.954 216.455 126.382 217.192 126.624 217.767C126.691 217.929 126.366 218.771 126.125 219.985Z" fill="#263238"/>
<path d="M118.188 232.52C119.381 233.245 120.779 233.623 122.204 233.607C124.465 233.525 126.726 233.063 126.726 231.976C126.726 231.796 126.726 231.496 126.726 231.114C125.557 231.589 124.302 231.854 123.026 231.895C120.013 232.051 118.674 231.195 118.088 231.12C117.615 231.056 116.313 231.351 115.211 230.883C115.227 231.246 115.355 231.597 115.578 231.895C116.251 232.67 118.188 232.52 118.188 232.52Z" fill="#BFBFBF" stroke="#263238" stroke-miterlimit="10" stroke-linecap="round" stroke-linejoin="round"/>
<path d="M118.176 228.781L118.512 232.517" stroke="#515B60" stroke-linecap="round" stroke-linejoin="round"/>
<path d="M136.308 245.31C136.308 246.522 138.809 247.027 141.31 247.12C142.891 247.135 144.438 246.716 145.76 245.916C145.76 245.916 147.893 246.079 148.638 245.224C149.382 244.362 149.006 242.381 148.537 241.697C148.069 241.006 146.262 239.421 145.609 238.202C145.2 237.409 147.007 234.45 147.199 229.175C146.898 228.794 146.262 228.507 145.459 228.305L145.124 231.746C145.124 231.746 138.96 230.729 137.471 231.925C137.27 232.088 137.103 232.103 136.96 232.01C137.278 233.502 137.479 235.506 136.868 237.557C135.312 242.77 136.308 244.813 136.308 245.31Z" fill="#757575" stroke="#263238" stroke-miterlimit="10" stroke-linecap="round" stroke-linejoin="round"/>
<path d="M136.96 232.01C137.103 232.103 137.27 232.087 137.471 231.924C138.96 230.728 145.124 231.746 145.124 231.746L145.459 228.304C143.711 227.854 141.176 227.791 139.596 227.963C138.257 228.102 136.676 228.918 136.409 229.555C136.333 229.733 136.693 230.666 136.96 232.01Z" fill="#263238"/>
<path d="M148.635 245.199C148.883 244.869 149.024 244.48 149.042 244.078C147.821 244.597 146.38 244.27 145.856 244.341C145.208 244.424 143.726 245.372 140.389 245.199C138.977 245.153 137.588 244.86 136.293 244.334C136.293 244.757 136.293 245.09 136.293 245.288C136.293 246.492 138.796 247.004 141.298 247.094C142.877 247.112 144.425 246.693 145.745 245.89C145.745 245.89 147.89 246.057 148.635 245.199Z" fill="#BFBFBF" stroke="#263238" stroke-miterlimit="10" stroke-linecap="round" stroke-linejoin="round"/>
<path d="M145.387 245.886L145.759 241.75" stroke="#515B60" stroke-linecap="round" stroke-linejoin="round"/>
<path d="M117.031 177.562C118.14 182.157 120.778 186.439 124.545 189.596" stroke="#515B60" stroke-miterlimit="10" stroke-linecap="round" stroke-linejoin="round"/>
<path d="M116.451 173.219C116.474 174.118 116.557 175.014 116.698 175.903" stroke="#515B60" stroke-miterlimit="10" stroke-linecap="round" stroke-linejoin="round"/>
<path d="M119.961 179.227C121.328 180.995 123.579 182.149 125.919 182.28" stroke="#515B60" stroke-miterlimit="10" stroke-linecap="round" stroke-linejoin="round"/>
<path d="M137.584 198.181C141.345 197.282 144.702 195.002 146.765 191.945" stroke="#515B60" stroke-miterlimit="10" stroke-linecap="round" stroke-linejoin="round"/>
<path d="M138.746 192.866C140.887 192.713 142.949 191.763 144.375 190.273" stroke="#515B60" stroke-miterlimit="10" stroke-linecap="round" stroke-linejoin="round"/>
<path d="M117.462 100.867L112.945 79.0358L119.218 77.7812L121.226 100.365L117.462 100.867Z" fill="#263238"/>
<path d="M146.649 99.867L151.165 78.0358L144.892 76.7812L142.885 99.3649L146.649 99.867Z" fill="#263238"/>
<path d="M127.372 96.6094V109.588H127.318L125.542 112.447L123.773 109.588H123.719V100.35H123.711V96.6094H127.372Z" fill="#263238" stroke="#263238" stroke-miterlimit="10" stroke-linecap="round" stroke-linejoin="round"/>
<path d="M140.564 76.5312H136.904V81.8794H140.564V76.5312Z" fill="#263238" stroke="#263238" stroke-miterlimit="10" stroke-linecap="round" stroke-linejoin="round"/>
<path d="M140.564 84.5625H136.904V93.9287H140.564V84.5625Z" fill="#263238" stroke="#263238" stroke-miterlimit="10" stroke-linecap="round" stroke-linejoin="round"/>
<path d="M148.858 87.1712L146.699 93.522C145.91 96.53 143.551 98.8912 140.573 100.441V109.587H140.565V96.6082H142.518V93.927H140.565V84.5608H142.518V81.8796H140.565V76.5325H136.905V81.8806H134.952V84.5618H136.905V93.928H134.952V96.6092H136.905V101.865C136.706 101.915 136.507 101.965 136.308 102.014C136.124 102.057 135.94 102.1 135.749 102.135C135.725 102.142 135.695 102.142 135.664 102.15C135.58 102.171 135.503 102.185 135.419 102.199C135.304 102.22 135.182 102.242 135.059 102.263C135.021 102.27 134.975 102.277 134.929 102.284C134.822 102.298 134.707 102.32 134.6 102.334C134.477 102.348 134.355 102.369 134.232 102.383C134.217 102.383 134.202 102.383 134.186 102.39C134.064 102.405 133.941 102.412 133.819 102.426C133.796 102.426 133.765 102.433 133.734 102.433C133.612 102.447 133.489 102.454 133.367 102.468H133.328C133.206 102.476 133.083 102.483 132.953 102.49C132.831 102.496 132.708 102.504 132.578 102.504C132.563 102.504 132.54 102.511 132.524 102.511H132.141C130.556 102.518 128.941 102.284 127.379 101.843V109.587H127.371V96.6087H129.323V93.9275H127.371V84.5613H129.323V81.8801H127.371V76.5325H123.711V81.8806H121.758V84.5618H123.711V93.928H121.758V96.6092H123.711V100.35C120.77 98.736 118.45 96.3035 117.646 93.3023L115.418 87.1723L121.498 76.4766H142.609L148.858 87.1712Z" fill="white" stroke="#263238" stroke-miterlimit="10" stroke-linecap="round" stroke-linejoin="round"/>
<path d="M143.888 112.445V112.552H120.847L132.364 118.391L143.888 112.552V126.69H120.434V112.445H143.888Z" fill="white" stroke="#263238" stroke-miterlimit="10" stroke-linecap="round" stroke-linejoin="round"/>
<path d="M156.907 141.524L145.662 140.177C137.139 139.156 128.568 139.16 120.045 140.19L108.995 141.524L108.69 139.942C107.952 136.124 108.059 132.083 108.995 128.352L126.369 130.001C130.687 130.41 135.019 130.412 139.337 130.005L156.907 128.352C157.906 132.54 157.927 137.063 156.965 141.269L156.907 141.524Z" fill="#263238"/>
<path d="M135.386 127.633H130.773V141.239H135.386V127.633Z" fill="white" stroke="#263238" stroke-miterlimit="10" stroke-linecap="round" stroke-linejoin="round"/>
<path d="M148.858 87.1719V126.372C148.858 128.79 146.752 130.752 144.149 130.752H120.135C117.532 130.752 115.418 128.79 115.418 126.372V87.1719L117.646 93.302C118.45 96.3031 120.77 98.7351 123.711 100.35V109.588H123.765L125.541 112.447H120.434V126.692H143.888V112.447H138.742L140.519 109.588H140.573V100.442C143.551 98.8919 145.91 96.5307 146.699 93.5227L148.858 87.1719Z" fill="#757575" stroke="#263238" stroke-miterlimit="10" stroke-linecap="round" stroke-linejoin="round"/>
<path d="M123.719 100.352H123.711V109.589H123.719V100.352Z" stroke="#515B60" stroke-miterlimit="10" stroke-linecap="round" stroke-linejoin="round"/>
<path d="M125.54 112.445L123.764 109.586H123.772L125.54 112.445Z" stroke="#515B60" stroke-miterlimit="10" stroke-linecap="round" stroke-linejoin="round"/>
<path d="M138.735 112.448H125.549L127.326 109.588H127.379V101.844C128.941 102.285 130.557 102.52 132.142 102.512H132.525C132.54 102.512 132.563 102.505 132.579 102.505C132.709 102.505 132.832 102.497 132.954 102.491C133.084 102.484 133.207 102.476 133.329 102.469H133.367C133.49 102.455 133.612 102.448 133.735 102.434C133.766 102.434 133.796 102.427 133.819 102.427C133.942 102.412 134.064 102.406 134.187 102.391C134.202 102.384 134.218 102.384 134.233 102.384C134.355 102.37 134.478 102.349 134.6 102.335C134.708 102.321 134.823 102.299 134.93 102.285C134.976 102.278 135.022 102.271 135.06 102.264C135.182 102.243 135.305 102.221 135.42 102.2C135.504 102.186 135.581 102.172 135.665 102.151C135.695 102.143 135.726 102.143 135.749 102.136C135.941 102.101 136.125 102.058 136.308 102.015C136.507 101.966 136.707 101.916 136.906 101.866V109.59H136.959L138.735 112.448Z" fill="#757575" stroke="#263238" stroke-miterlimit="10" stroke-linecap="round" stroke-linejoin="round"/>
<path d="M136.912 101.859V109.59H136.904V101.867L136.912 101.859Z" stroke="#515B60" stroke-miterlimit="10" stroke-linecap="round" stroke-linejoin="round"/>
<path d="M138.736 112.445L136.959 109.586H136.966L138.736 112.445Z" stroke="#515B60" stroke-miterlimit="10" stroke-linecap="round" stroke-linejoin="round"/>
<path d="M143.889 112.555L137.513 116.921C134.41 119.046 130.319 119.046 127.217 116.92L120.848 112.555H143.889Z" fill="white" stroke="#263238" stroke-miterlimit="10" stroke-linecap="round" stroke-linejoin="round"/>
<path d="M155.803 117.53V126.69H148.857V112.445H150.335C153.352 112.446 155.803 114.722 155.803 117.53Z" fill="white" stroke="#263238" stroke-miterlimit="10" stroke-linecap="round" stroke-linejoin="round"/>
<path d="M115.418 112.445V126.69H108.473V117.53C108.473 114.722 110.923 112.446 113.94 112.446H115.418V112.445Z" fill="white" stroke="#263238" stroke-miterlimit="10" stroke-linecap="round" stroke-linejoin="round"/>
<path d="M127.371 84.5625H123.711V93.9287H127.371V84.5625Z" fill="#263238" stroke="#263238" stroke-miterlimit="10" stroke-linecap="round" stroke-linejoin="round"/>
<path d="M123.719 100.352H123.711V109.589H123.719V100.352Z" stroke="#515B60" stroke-miterlimit="10" stroke-linecap="round" stroke-linejoin="round"/>
<path d="M125.542 112.445L123.766 109.586H123.774L125.542 112.445Z" stroke="#515B60" stroke-miterlimit="10" stroke-linecap="round" stroke-linejoin="round"/>
<path d="M127.371 76.5312H123.711V81.8794H127.371V76.5312Z" fill="#263238" stroke="#263238" stroke-miterlimit="10" stroke-linecap="round" stroke-linejoin="round"/>
<path d="M140.565 96.6094V109.588H140.511L138.735 112.447L136.966 109.588H136.912V101.858L136.904 101.865V96.6094H140.565Z" fill="#263238" stroke="#263238" stroke-miterlimit="10" stroke-linecap="round" stroke-linejoin="round"/>
<path d="M136.912 101.859V109.59H136.904V101.867L136.912 101.859Z" stroke="#515B60" stroke-miterlimit="10" stroke-linecap="round" stroke-linejoin="round"/>
<path d="M138.734 112.445L136.957 109.586H136.964L138.734 112.445Z" stroke="#515B60" stroke-miterlimit="10" stroke-linecap="round" stroke-linejoin="round"/>
<path d="M129.324 81.875H121.758V84.5562H129.324V81.875Z" fill="#DE8500" stroke="#263238" stroke-miterlimit="10" stroke-linecap="round" stroke-linejoin="round"/>
<path d="M142.517 81.875H134.951V84.5562H142.517V81.875Z" fill="#DE8500" stroke="#263238" stroke-miterlimit="10" stroke-linecap="round" stroke-linejoin="round"/>
<path d="M129.324 93.9297H121.758V96.6109H129.324V93.9297Z" fill="#DE8500" stroke="#263238" stroke-miterlimit="10" stroke-linecap="round" stroke-linejoin="round"/>
<path d="M142.517 93.9297H134.951V96.6109H142.517V93.9297Z" fill="#DE8500" stroke="#263238" stroke-miterlimit="10" stroke-linecap="round" stroke-linejoin="round"/>
<path d="M132.131 148.445C135.659 151.291 140.978 152.057 145.269 150.337" stroke="#515B60" stroke-miterlimit="10" stroke-linecap="round" stroke-linejoin="round"/>
<path d="M132.514 150.898C130.559 155.917 127.524 160.569 123.643 164.503" stroke="#515B60" stroke-miterlimit="10" stroke-linecap="round" stroke-linejoin="round"/>
<path d="M132.169 147.383L131.661 149.267C130.935 151.957 130.4 154.063 129.19 156.573L126.932 160.839L132.264 152.276L132.169 147.383Z" fill="#263238" stroke="#263238" stroke-miterlimit="10" stroke-linecap="round" stroke-linejoin="round"/>
<path d="M132.131 148.445L133.172 159.214L133.727 157.194C134.097 154.697 135.844 152.737 137.783 151.121C136.24 150.788 134.776 150.172 133.46 149.301C133.102 149.065 132.665 148.783 132.131 148.445Z" fill="#263238" stroke="#263238" stroke-miterlimit="10" stroke-linecap="round" stroke-linejoin="round"/>
<path d="M112.549 141C112.777 145.206 114.9 147.955 117.74 149.046" stroke="#515B60" stroke-miterlimit="10" stroke-linecap="round" stroke-linejoin="round"/>
<path d="M150.863 140.875C150.709 145.081 149.272 147.83 147.35 148.921" stroke="#515B60" stroke-miterlimit="10" stroke-linecap="round" stroke-linejoin="round"/>
<path d="M109.873 108.195C110.642 109.703 111.26 111.288 111.714 112.919" stroke="#515B60" stroke-linecap="round" stroke-linejoin="round"/>
<path d="M108.207 105.383C108.44 105.723 108.665 106.069 108.881 106.421" stroke="#515B60" stroke-linecap="round" stroke-linejoin="round"/>
<path d="M103.2 114.422C103.1 116.867 103.706 119.336 104.927 121.456" stroke="#515B60" stroke-linecap="round" stroke-linejoin="round"/>
<path d="M150.27 90.1484C150.94 92.4067 151.61 94.6644 152.28 96.9227" stroke="#515B60" stroke-linecap="round" stroke-linejoin="round"/>
</svg>
