<svg width="104" height="104" viewBox="0 0 104 104" fill="none" xmlns="http://www.w3.org/2000/svg">
<g filter="url(#filter0_d_3043_11692)">
<path d="M100 20V80C100 91.038 91.038 100 80 100H20C8.962 100 0 91.038 0 80V20C0 8.962 8.962 0 20 0H80C91.038 0 100 8.962 100 20Z" fill="#58CF65"/>
</g>
<path d="M50.5402 23.4785C64.789 23.4785 76.3402 35.0297 76.3402 49.2785C76.3402 63.5273 64.789 75.0785 50.5402 75.0785C45.4864 75.0785 40.8838 73.7003 36.904 71.1887C35.7502 71.5235 25.6024 74.7347 25.6024 74.7347C25.6024 74.7347 28.588 64.8863 29.0098 63.5177C26.2426 59.4065 24.7402 54.6065 24.7402 49.2785C24.7402 35.0297 36.2914 23.4785 50.5402 23.4785Z" stroke="white" stroke-width="5.1" stroke-linecap="round" stroke-linejoin="round"/>
<path d="M40.7743 35.4941C40.6128 35.4941 40.1577 35.5086 39.4003 36.1587C38.1881 37.1992 36.5293 39.4226 36.5293 42.4691C36.5293 47.2691 40.5793 52.0391 40.5793 52.0391C40.5793 52.0391 44.2693 57.3191 47.8693 59.4791C51.4693 61.6391 55.9093 63.2591 57.5593 63.4991C59.2093 63.7391 62.7493 62.8091 64.1293 60.8891C65.5093 58.9691 65.2393 56.7191 65.2393 56.7191C65.2393 56.7191 65.0143 56.3591 64.5493 56.1041C64.0843 55.8491 59.4043 53.2391 58.5493 53.0141C57.6943 52.7891 57.3643 53.4191 57.3643 53.4191C57.3643 53.4191 55.1593 56.2091 54.6643 56.5241C54.2293 56.6591 53.6893 56.5391 53.6893 56.5391C53.6893 56.5391 49.9393 54.8891 47.5393 52.3991C45.1393 49.9091 43.9693 47.6591 43.7593 46.9091C43.6693 46.4891 44.3293 45.9491 44.3293 45.9491C44.3293 45.9491 45.9493 44.2541 46.1293 43.8191C46.3093 43.3841 46.3693 42.8291 46.2643 42.4541C46.1593 42.0791 44.0893 36.7091 44.0893 36.7091C44.0893 36.7091 43.7893 35.6291 43.1143 35.6291C42.4393 35.6291 41.1943 35.4941 40.7743 35.4941Z" fill="white"/>
<defs>
<filter id="filter0_d_3043_11692" x="0" y="0" width="104" height="104" filterUnits="userSpaceOnUse" color-interpolation-filters="sRGB">
<feFlood flood-opacity="0" result="BackgroundImageFix"/>
<feColorMatrix in="SourceAlpha" type="matrix" values="0 0 0 0 0 0 0 0 0 0 0 0 0 0 0 0 0 0 127 0" result="hardAlpha"/>
<feOffset dx="2" dy="2"/>
<feGaussianBlur stdDeviation="1"/>
<feComposite in2="hardAlpha" operator="out"/>
<feColorMatrix type="matrix" values="0 0 0 0 0.027451 0 0 0 0 0.027451 0 0 0 0 0.0627451 0 0 0 0.12 0"/>
<feBlend mode="normal" in2="BackgroundImageFix" result="effect1_dropShadow_3043_11692"/>
<feBlend mode="normal" in="SourceGraphic" in2="effect1_dropShadow_3043_11692" result="shape"/>
</filter>
</defs>
</svg>
