<svg width="40" height="40" viewBox="0 0 40 40" fill="none" xmlns="http://www.w3.org/2000/svg">
<path d="M39.2 33.6H0.8C0.587827 33.6 0.384344 33.5157 0.234315 33.3657C0.0842855 33.2157 0 33.0122 0 32.8C0 32.5878 0.0842855 32.3843 0.234315 32.2343C0.384344 32.0843 0.587827 32 0.8 32H39.2C39.4122 32 39.6157 32.0843 39.7657 32.2343C39.9157 32.3843 40 32.5878 40 32.8C40 33.0122 39.9157 33.2157 39.7657 33.3657C39.6157 33.5157 39.4122 33.6 39.2 33.6Z" fill="#DE8500"/>
<path d="M26.3995 33.5973H3.99953C3.85261 33.5974 3.70852 33.557 3.58305 33.4805C3.45758 33.4041 3.35558 33.2946 3.28823 33.164C3.22088 33.0335 3.19079 32.8869 3.20125 32.7404C3.21171 32.5938 3.26232 32.453 3.34753 32.3333L11.3475 21.1333C11.4215 21.0293 11.5193 20.9445 11.6327 20.8859C11.7461 20.8274 11.8719 20.7969 11.9995 20.7969C12.1272 20.7969 12.2529 20.8274 12.3664 20.8859C12.4798 20.9445 12.5776 21.0293 12.6515 21.1333L17.5675 28.0173L20.1435 24.3373C20.2173 24.2317 20.3154 24.1454 20.4296 24.0859C20.5438 24.0263 20.6707 23.9952 20.7995 23.9952C20.9283 23.9952 21.0552 24.0263 21.1694 24.0859C21.2837 24.1454 21.3818 24.2317 21.4555 24.3373L27.0555 32.3373C27.1398 32.4572 27.1895 32.598 27.1992 32.7443C27.209 32.8906 27.1783 33.0367 27.1106 33.1667C27.0429 33.2968 26.9408 33.4057 26.8154 33.4816C26.69 33.5576 26.5461 33.5976 26.3995 33.5973ZM5.55553 31.9973H24.8635L20.7995 26.1933L18.2315 29.8613C18.1584 29.9667 18.061 30.053 17.9475 30.1129C17.834 30.1728 17.7078 30.2045 17.5795 30.2053C17.4519 30.2054 17.3262 30.1749 17.2127 30.1164C17.0993 30.058 17.0015 29.9732 16.9275 29.8693L11.9995 22.9733L5.55553 31.9973Z" fill="#DE8500"/>
<path d="M36.0008 33.6025C35.8694 33.6022 35.7401 33.5696 35.6243 33.5075C35.5085 33.4454 35.4097 33.3558 35.3368 33.2465L23.2008 15.0465L15.7008 26.2945C15.6425 26.3819 15.5675 26.4571 15.4802 26.5155C15.3929 26.574 15.2949 26.6148 15.1918 26.6354C15.0887 26.656 14.9826 26.6561 14.8795 26.6357C14.7764 26.6153 14.6783 26.5748 14.5908 26.5165C14.5033 26.4582 14.4282 26.3832 14.3697 26.2959C14.3112 26.2085 14.2705 26.1105 14.2499 26.0075C14.2293 25.9044 14.2292 25.7983 14.2496 25.6951C14.27 25.592 14.3105 25.4939 14.3688 25.4065L22.5368 13.1585C22.61 13.0496 22.7088 12.9603 22.8246 12.8987C22.9404 12.837 23.0696 12.8047 23.2008 12.8047C23.332 12.8047 23.4612 12.837 23.577 12.8987C23.6928 12.9603 23.7916 13.0496 23.8648 13.1585L36.6648 32.3585C36.7451 32.4788 36.7913 32.6187 36.7984 32.7633C36.8055 32.9078 36.7732 33.0515 36.7051 33.1792C36.6369 33.3068 36.5355 33.4136 36.4114 33.4882C36.2874 33.5627 36.1455 33.6022 36.0008 33.6025Z" fill="#DE8500"/>
<path d="M23.2004 14.3984C22.9882 14.3984 22.7847 14.3142 22.6347 14.1641C22.4847 14.0141 22.4004 13.8106 22.4004 13.5984V7.19844C22.4004 6.98626 22.4847 6.78278 22.6347 6.63275C22.7847 6.48272 22.9882 6.39844 23.2004 6.39844C23.4126 6.39844 23.616 6.48272 23.7661 6.63275C23.9161 6.78278 24.0004 6.98626 24.0004 7.19844V13.5984C24.0004 13.8106 23.9161 14.0141 23.7661 14.1641C23.616 14.3142 23.4126 14.3984 23.2004 14.3984Z" fill="#DE8500"/>
<path d="M28.1712 12.629C26.257 12.6078 24.3847 12.0658 22.7552 11.061C22.6459 10.988 22.5563 10.8893 22.4942 10.7735C22.4321 10.6577 22.3995 10.5284 22.3992 10.397V7.19696C22.3995 7.05226 22.439 6.91034 22.5135 6.78632C22.5881 6.6623 22.6949 6.56082 22.8225 6.49268C22.9502 6.42455 23.0939 6.39231 23.2384 6.3994C23.383 6.40649 23.5229 6.45265 23.6432 6.53296C23.8192 6.64896 28.0712 9.38496 32.3552 6.53296C32.4756 6.45265 32.6155 6.40649 32.76 6.3994C32.9045 6.39231 33.0483 6.42455 33.1759 6.49268C33.3036 6.56082 33.4104 6.6623 33.4849 6.78632C33.5594 6.91034 33.599 7.05226 33.5992 7.19696V10.397C33.599 10.5284 33.5664 10.6577 33.5043 10.7735C33.4422 10.8893 33.3525 10.988 33.2432 11.061C31.7488 12.0819 29.9811 12.6284 28.1712 12.629ZM23.9992 9.94096C25.0912 10.537 28.4992 12.045 31.9992 9.94096V8.56896C28.7272 10.117 25.6472 9.24496 23.9992 8.52096V9.94096ZM25.7272 22.221C24.9272 22.221 24.0552 21.821 23.1432 21.021C22.7098 21.2465 22.2273 21.3613 21.7387 21.355C21.2501 21.3487 20.7707 21.2216 20.3432 20.985C19.7766 20.7123 19.2558 20.3533 18.7992 19.921C18.6771 19.7672 18.6158 19.5738 18.627 19.3778C18.6382 19.1817 18.7211 18.9966 18.86 18.8577C18.9989 18.7189 19.184 18.6359 19.38 18.6247C19.5761 18.6135 19.7694 18.6748 19.9232 18.797C19.9912 18.861 21.6192 20.449 22.6352 19.437C22.7851 19.288 22.9879 19.2043 23.1992 19.2043C23.4106 19.2043 23.6133 19.288 23.7632 19.437C24.6352 20.305 25.3952 20.717 25.9032 20.605C26.4112 20.493 26.7032 19.749 26.7032 19.741C26.7731 19.5413 26.9192 19.3774 27.1096 19.2852C27.3 19.193 27.5192 19.18 27.7192 19.249C27.9176 19.3173 28.0811 19.4609 28.1746 19.6487C28.2682 19.8365 28.2842 20.0535 28.2192 20.253C28.1672 20.413 27.6592 21.833 26.2712 22.161C26.0926 22.2006 25.9102 22.2207 25.7272 22.221ZM10.3992 19.197H3.99922C3.78705 19.197 3.58356 19.1127 3.43353 18.9626C3.2835 18.8126 3.19922 18.6091 3.19922 18.397C3.19922 17.3361 3.62065 16.3187 4.37079 15.5685C5.12094 14.8184 6.13835 14.397 7.19922 14.397C8.26008 14.397 9.2775 14.8184 10.0276 15.5685C10.7778 16.3187 11.1992 17.3361 11.1992 18.397C11.1992 18.6091 11.1149 18.8126 10.9649 18.9626C10.8149 19.1127 10.6114 19.197 10.3992 19.197ZM4.93522 17.597H9.46322C9.29831 17.1282 8.99194 16.7221 8.5864 16.4349C8.18087 16.1477 7.69617 15.9934 7.19922 15.9934C6.70227 15.9934 6.21757 16.1477 5.81203 16.4349C5.4065 16.7221 5.10013 17.1282 4.93522 17.597ZM18.3992 12.797H8.79922C8.58705 12.797 8.38356 12.7127 8.23353 12.5626C8.0835 12.4126 7.99922 12.2091 7.99922 11.997C7.99938 11.2187 8.22657 10.4574 8.65293 9.80638C9.07929 9.15533 9.68631 8.6428 10.3996 8.33158C11.1129 8.02036 11.9015 7.92398 12.6688 8.05424C13.436 8.1845 14.1486 8.53576 14.7192 9.06496C15.1226 8.88746 15.5585 8.79618 15.9992 8.79696C16.8479 8.79696 17.6618 9.1341 18.262 9.73422C18.8621 10.3343 19.1992 11.1483 19.1992 11.997C19.1992 12.2091 19.1149 12.4126 18.9649 12.5626C18.8149 12.7127 18.6114 12.797 18.3992 12.797ZM9.73522 11.197H17.3832C17.2429 10.954 17.0412 10.7521 16.7983 10.6117C16.5554 10.4713 16.2798 10.3972 15.9992 10.397C15.6526 10.3981 15.3157 10.5118 15.0392 10.721C14.8698 10.848 14.6569 10.9026 14.4472 10.873C14.343 10.8582 14.2427 10.8231 14.1521 10.7696C14.0615 10.716 13.9824 10.6451 13.9192 10.561C13.659 10.2131 13.3093 9.9424 12.9073 9.77771C12.5053 9.61301 12.0662 9.56051 11.6367 9.62579C11.2073 9.69107 10.8036 9.8717 10.4687 10.1484C10.1338 10.4251 9.88031 10.7875 9.73522 11.197Z" fill="#DE8500"/>
<path d="M19.9996 12.8031H7.19961C6.98744 12.8031 6.78395 12.7188 6.63392 12.5688C6.4839 12.4188 6.39961 12.2153 6.39961 12.0031C6.39961 11.791 6.4839 11.5875 6.63392 11.4374C6.78395 11.2874 6.98744 11.2031 7.19961 11.2031H19.9996C20.2118 11.2031 20.4153 11.2874 20.5653 11.4374C20.7153 11.5875 20.7996 11.791 20.7996 12.0031C20.7996 12.2153 20.7153 12.4188 20.5653 12.5688C20.4153 12.7188 20.2118 12.8031 19.9996 12.8031ZM11.9996 19.2031H2.39961C2.18744 19.2031 1.98395 19.1188 1.83392 18.9688C1.68389 18.8188 1.59961 18.6153 1.59961 18.4031C1.59961 18.191 1.68389 17.9875 1.83392 17.8374C1.98395 17.6874 2.18744 17.6031 2.39961 17.6031H11.9996C12.2118 17.6031 12.4153 17.6874 12.5653 17.8374C12.7153 17.9875 12.7996 18.191 12.7996 18.4031C12.7996 18.6153 12.7153 18.8188 12.5653 18.9688C12.4153 19.1188 12.2118 19.2031 11.9996 19.2031Z" fill="#DE8500"/>
</svg>
