<svg width="40" height="40" viewBox="0 0 40 40" fill="none" xmlns="http://www.w3.org/2000/svg">
<path d="M11.4614 3.77802L11.6777 2.54693C10.8101 2.39459 9.9287 2.33475 9.04842 2.36841C7.09373 2.45833 5.52045 3.08599 4.37311 4.23443C3.54436 5.06255 2.98178 6.12661 2.70123 7.39685C2.70061 7.3995 2.70006 7.40216 2.69952 7.40466C2.50245 8.35514 2.44576 9.32938 2.53123 10.2963L3.77639 10.1863C3.70181 9.34253 3.75102 8.49239 3.92248 7.66286C4.15116 6.63091 4.59998 5.77489 5.25686 5.11841C6.17709 4.19755 7.47209 3.69263 9.10061 3.61771C9.89099 3.58776 10.6823 3.6415 11.4614 3.77802ZM6.40561 18.0185C6.02881 17.3314 5.68506 16.6411 5.38389 15.9666L4.24217 16.4766C4.55725 17.1819 4.91623 17.9029 5.3092 18.6197L6.40561 18.0185ZM2.88084 12.5133C3.01053 13.0723 3.17444 13.6518 3.36819 14.2358L4.55467 13.8423C4.37303 13.2947 4.21959 12.7526 4.09858 12.2309L2.88084 12.5133ZM7.02639 21.421C7.41702 21.9968 7.83577 22.5794 8.27139 23.1522C8.3215 23.2182 8.37183 23.284 8.42241 23.3498L9.41311 22.5875C9.36415 22.5239 9.31538 22.4601 9.26678 22.3961C8.84436 21.8407 8.43866 21.2766 8.06108 20.7195L7.02639 21.421ZM12.0058 25.6347C11.6939 25.3011 11.3854 24.9608 11.089 24.6233C11.0164 24.5407 10.9443 24.4579 10.8726 24.375L9.92733 25.1926C10.0009 25.2778 10.0751 25.3629 10.1498 25.448C10.4548 25.7954 10.7723 26.1455 11.0931 26.4886C11.2369 26.6423 11.3823 26.7956 11.5294 26.9483L12.4297 26.0815C12.2868 25.9329 12.1455 25.784 12.0058 25.6347ZM35.6719 23.25L34.5273 23.7523C35.2391 25.3743 35.7158 26.9206 35.9442 28.3481C36.3723 31.0234 35.9031 33.133 34.5872 34.449C33.936 35.1 33.0887 35.5468 32.0688 35.7771C31.2433 35.9628 30.3065 36.0073 29.2847 35.9092C29.0328 35.885 28.7728 35.8518 28.512 35.8106L28.3167 37.045C28.6027 37.0903 28.8883 37.1267 29.1655 37.1533C29.5567 37.1908 29.9378 37.2096 30.3088 37.2095C30.9929 37.2137 31.6754 37.1422 32.3437 36.9963C33.598 36.7135 34.6503 36.154 35.4712 35.3331C37.0824 33.7218 37.6729 31.2383 37.1787 28.1508C36.9334 26.6183 36.4266 24.9695 35.6719 23.25ZM34.2665 20.4688L33.1805 21.0883C33.4696 21.5947 33.7419 22.105 33.99 22.6048L35.1096 22.049C34.8511 21.5275 34.5673 20.9958 34.2665 20.4688ZM32.9367 18.3236C32.5083 17.6881 32.0566 17.0561 31.5939 16.4454L30.5975 17.2002C31.0464 17.7927 31.4847 18.4058 31.9002 19.0222L32.9367 18.3236ZM28.5108 12.824L27.6066 13.6871C28.1358 14.2413 28.6557 14.818 29.152 15.4011L30.1039 14.5908C29.5923 13.9897 29.0562 13.3953 28.5108 12.824ZM26.914 33.186C26.8917 33.1068 26.854 33.0328 26.803 32.9683C26.752 32.9037 26.6887 32.8499 26.6169 32.8098C26.545 32.7698 26.466 32.7443 26.3843 32.7348C26.3025 32.7254 26.2198 32.7322 26.1407 32.7548C26.0616 32.7774 25.9877 32.8154 25.9233 32.8667C25.859 32.9179 25.8054 32.9813 25.7656 33.0533C25.7257 33.1253 25.7006 33.2045 25.6914 33.2862C25.6823 33.368 25.6893 33.4507 25.7123 33.5297L26.2076 35.2611C24.7921 34.8097 23.421 34.2296 22.1113 33.528C20.277 32.548 18.5327 31.4081 16.8986 30.1218C15.6861 29.1721 14.5261 28.1572 13.4237 27.0815L12.5505 27.9766C13.685 29.0835 14.8788 30.128 16.1265 31.1054C17.8189 32.4374 19.6254 33.6177 21.525 34.6325C22.6124 35.2111 23.7384 35.7142 24.895 36.138L23.8723 36.4307C23.7926 36.4525 23.7179 36.4899 23.6528 36.5408C23.5876 36.5917 23.5331 36.655 23.4926 36.727C23.452 36.7991 23.4262 36.8785 23.4165 36.9606C23.4069 37.0427 23.4136 37.1259 23.4364 37.2054C23.4591 37.2849 23.4974 37.3591 23.549 37.4237C23.6006 37.4883 23.6646 37.542 23.7371 37.5817C23.8096 37.6214 23.8893 37.6463 23.9715 37.655C24.0537 37.6637 24.1369 37.656 24.2161 37.6324L27.2846 36.7543C27.444 36.7087 27.5787 36.6017 27.6591 36.4568C27.7395 36.3118 27.7591 36.1409 27.7135 35.9815L26.914 33.186ZM17.3328 2.83818C17.3156 2.75788 17.2828 2.68174 17.2362 2.61413C17.1897 2.54652 17.1302 2.48874 17.0613 2.44412C16.9923 2.39949 16.9153 2.36888 16.8345 2.35404C16.7538 2.3392 16.6709 2.34042 16.5906 2.35763L13.4694 3.02474C13.3073 3.05939 13.1657 3.15701 13.0755 3.29612C12.9854 3.43523 12.9543 3.60444 12.9889 3.76653L13.597 6.60943C13.6329 6.77027 13.7308 6.91043 13.8696 6.99941C14.0083 7.08839 14.1765 7.11899 14.3377 7.08455C14.4988 7.0501 14.6398 6.95341 14.7301 6.8155C14.8203 6.67759 14.8524 6.50963 14.8194 6.34818L14.4412 4.57864C15.5266 4.96617 16.5828 5.43127 17.6015 5.97036C19.4122 6.92613 21.1356 8.03869 22.752 9.29528C23.5145 9.88364 24.2823 10.5218 25.0338 11.1918C25.4508 11.5641 25.8705 11.954 26.2813 12.3508C26.4619 12.5253 26.644 12.7042 26.8223 12.8825L27.7062 11.9987C27.5228 11.8153 27.3356 11.6315 27.1498 11.4518C26.7273 11.0437 26.2955 10.6426 25.866 10.259C25.0926 9.56927 24.3015 8.912 23.5175 8.30708C22.7651 7.722 21.9862 7.167 21.1873 6.64161C21.6362 6.3895 22.0858 6.15075 22.5261 5.93193L21.9705 4.81255C21.4322 5.07982 20.882 5.37403 20.3353 5.68755L20.7025 6.32818C19.8823 5.80734 19.0434 5.31982 18.186 4.8656C17.4341 4.46805 16.6625 4.10876 15.8743 3.78911L16.8523 3.58005C16.9325 3.56289 17.0086 3.5301 17.0762 3.48353C17.1438 3.43696 17.2016 3.37753 17.2462 3.30864C17.2908 3.23975 17.3214 3.16275 17.3363 3.08202C17.3511 3.0013 17.35 2.91844 17.3328 2.83818ZM7.5842 35.9988C6.55295 35.7707 5.69655 35.3221 5.03983 34.6654C4.11905 33.7447 3.61405 32.4496 3.53905 30.8211C3.50916 30.0308 3.563 29.2395 3.69967 28.4605L2.46873 28.2443C2.31656 29.1119 2.25675 29.9932 2.2903 30.8735C2.38014 32.8282 3.0078 34.4014 4.15623 35.5493C4.98506 36.3781 6.04912 36.94 7.31905 37.2204L7.32686 37.2219C7.99048 37.3596 8.66645 37.429 9.3442 37.429C9.63561 37.429 9.92699 37.4162 10.2183 37.3905L10.1085 36.1454C9.26442 36.2199 8.41398 36.1705 7.5842 35.9988ZM12.1528 35.8233L12.435 37.0411C12.9937 36.9117 13.5733 36.7477 14.1576 36.5538L13.764 35.3672C13.2162 35.5491 12.6741 35.7025 12.1528 35.8233ZM15.8884 34.5381L16.3984 35.6797C17.104 35.3645 17.825 35.0055 18.5415 34.6127L17.9405 33.5167C17.2535 33.8929 16.5631 34.2367 15.8884 34.5381Z" fill="#DE8500"/>
<path d="M22.317 30.6518C21.783 31.0581 21.2409 31.4487 20.7054 31.8132L21.4085 32.8465C21.9621 32.4696 22.5223 32.066 23.0734 31.6469C23.1391 31.5969 23.2048 31.5467 23.2705 31.4962L22.5084 30.5055C22.4449 30.5545 22.3811 30.6032 22.317 30.6518ZM25.369 29.7689C25.7171 29.4632 26.0671 29.1458 26.4094 28.8257C26.5632 28.6819 26.7165 28.5365 26.8692 28.3895L26.0026 27.4889C25.854 27.6318 25.705 27.7732 25.5556 27.913C25.2227 28.2244 24.8825 28.5328 24.5442 28.8299C24.4616 28.9025 24.3788 28.9746 24.296 29.0461L25.1135 29.9914C25.1987 29.9177 25.2839 29.8435 25.369 29.7689ZM35.7313 11.4065L36.9657 11.6018C37.0109 11.3156 37.0473 11.0301 37.0739 10.7532C37.1847 9.5994 37.1319 8.53018 36.9169 7.57495C36.6341 6.32057 36.0745 5.26839 35.2537 4.44737C33.6424 2.83635 31.1589 2.24581 28.0713 2.73987C26.539 2.9851 24.8902 3.49206 23.171 4.24667L23.6734 5.39128C25.2952 4.6794 26.8414 4.20268 28.2691 3.97424C30.9443 3.54628 33.0541 4.01542 34.37 5.33128C35.0211 5.98245 35.4678 6.82987 35.6981 7.84971C35.8838 8.67526 35.9284 9.61198 35.8302 10.6339C35.8058 10.8854 35.7726 11.1451 35.7313 11.4065ZM17.1212 9.32112C17.7139 8.87206 18.3269 8.43378 18.9432 8.01839L18.2446 6.98182C17.6092 7.4101 16.9773 7.8619 16.3663 8.32471L17.1212 9.32112ZM13.608 12.3119C14.1623 11.7828 14.7389 11.2628 15.322 10.7665L14.5117 9.81464C13.9106 10.3264 13.3164 10.8624 12.7449 11.4078L13.608 12.3119ZM36.8334 12.4851C36.8111 12.4031 36.7723 12.3265 36.7194 12.26C36.6664 12.1935 36.6005 12.1385 36.5256 12.0984C36.4507 12.0582 36.3684 12.0338 36.2837 12.0265C36.199 12.0193 36.1138 12.0294 36.0331 12.0562L33.1598 13.0123C33.004 13.0658 32.8757 13.1787 32.8027 13.3263C32.7296 13.4739 32.7179 13.6444 32.7698 13.8007C32.8218 13.957 32.9334 14.0864 33.0803 14.1608C33.2272 14.2353 33.3976 14.2488 33.5544 14.1983L35.2011 13.6504C34.7476 15.0874 34.1611 16.479 33.4492 17.8071C32.4692 19.6414 31.3294 21.3858 30.043 23.0199C29.0933 24.2324 28.0784 25.3924 27.0029 26.4948L27.8976 27.368C29.0045 26.2335 30.049 25.0397 31.0264 23.7919C32.3585 22.0996 33.5387 20.2931 34.5534 18.3935C35.178 17.2214 35.7133 16.004 36.155 14.7515L36.5054 16.0383C36.5503 16.1967 36.6558 16.331 36.7991 16.412C36.9424 16.493 37.1119 16.5142 37.2708 16.471C37.4296 16.4278 37.565 16.3236 37.6475 16.1812C37.73 16.0387 37.753 15.8695 37.7115 15.7102L36.8334 12.4851ZM3.55624 26.9432C3.60034 26.9431 3.6443 26.9384 3.68741 26.9292L6.53038 26.3216C6.69249 26.2869 6.83419 26.1893 6.92432 26.0502C7.01444 25.9111 7.04561 25.7419 7.01097 25.5798C6.97633 25.4177 6.87871 25.2759 6.73958 25.1858C6.60046 25.0957 6.43124 25.0645 6.26913 25.0992L4.49952 25.4774C4.88706 24.3919 5.35217 23.3357 5.89124 22.317C6.84706 20.5064 7.95965 18.783 9.21624 17.1666C9.80421 16.4046 10.4428 15.6367 11.1128 14.8847C11.4851 14.4676 11.8751 14.0479 12.2717 13.6373C12.4444 13.4585 12.6233 13.2765 12.8035 13.0964L11.9197 12.2124C11.7344 12.3977 11.5504 12.5849 11.3728 12.7688C10.9648 13.1911 10.5636 13.623 10.1801 14.0526C9.48984 14.8268 8.83265 15.6175 8.22812 16.4011C6.92734 18.0745 5.77562 19.8586 4.78616 21.733C4.38876 22.4848 4.0296 23.2561 3.71007 24.0442L3.50101 23.0663C3.48448 22.9854 3.45209 22.9086 3.40571 22.8403C3.35934 22.772 3.2999 22.7136 3.23082 22.6684C3.16174 22.6232 3.0844 22.5922 3.00325 22.577C2.9221 22.5619 2.83876 22.563 2.75804 22.5803C2.67732 22.5975 2.60081 22.6306 2.53294 22.6776C2.46507 22.7245 2.40718 22.7845 2.36261 22.854C2.31804 22.9235 2.28768 23.0011 2.27327 23.0824C2.25886 23.1636 2.26069 23.247 2.27866 23.3275L2.9457 26.4486C2.97554 26.5885 3.05244 26.7138 3.16354 26.8038C3.27465 26.8938 3.41326 26.943 3.55624 26.9432Z" fill="#DE8500"/>
<path d="M25.2992 21.0958C25.2979 20.4099 25.1552 19.7317 24.8799 19.1036C24.6046 18.4754 24.2027 17.9108 23.6993 17.445C23.1612 16.9442 22.5268 16.5581 21.8348 16.3101C21.1428 16.0621 20.4076 15.9574 19.6739 16.0023C18.3493 16.0787 17.1008 16.646 16.1722 17.5936C15.2378 18.5467 14.7059 19.7844 14.7012 21.078C14.6945 22.9572 15.781 24.6721 17.4216 25.5536V28.4716C17.4216 28.8167 17.7291 29.0653 18.0742 29.0653H21.9251C22.2703 29.0653 22.5778 28.817 22.5778 28.4716V25.5653C24.2185 24.6657 25.2992 22.9523 25.2992 21.0958ZM15.9642 21.0821C15.9742 20.1006 16.3688 19.1622 17.0632 18.4685C17.774 17.743 18.7297 17.3086 19.7437 17.2502C20.3069 17.215 20.8713 17.2947 21.4027 17.4846C21.9341 17.6744 22.4214 17.9703 22.8348 18.3544C23.2128 18.7041 23.5145 19.1281 23.7211 19.5998C23.9276 20.0715 24.0346 20.5808 24.0353 21.0958C24.0353 22.592 23.1212 23.9693 21.686 24.6047C21.5769 24.6545 21.4848 24.7351 21.4212 24.8367C21.3575 24.9383 21.3251 25.0564 21.3278 25.1762V25.2372H18.6716V25.1591C18.6744 25.0378 18.6411 24.9185 18.576 24.8161C18.5109 24.7138 18.4169 24.6331 18.3059 24.5843C17.6137 24.2966 17.022 23.8105 16.6053 23.1874C16.1887 22.5642 15.9656 21.8317 15.9642 21.0821ZM18.6716 27.8153V26.4872H21.3278V27.8153H18.6716Z" fill="#DE8500"/>
<path d="M19.3749 12.3125V14.6016C19.3749 14.7673 19.4408 14.9263 19.558 15.0435C19.6752 15.1607 19.8342 15.2266 19.9999 15.2266C20.1657 15.2266 20.3247 15.1607 20.4419 15.0435C20.5591 14.9263 20.6249 14.7673 20.6249 14.6016V12.3125C20.6249 12.1467 20.5591 11.9878 20.4419 11.8706C20.3247 11.7533 20.1657 11.6875 19.9999 11.6875C19.8342 11.6875 19.6752 11.7533 19.558 11.8706C19.4408 11.9878 19.3749 12.1467 19.3749 12.3125ZM11.0996 20.2344C10.9338 20.2344 10.7749 20.3002 10.6577 20.4174C10.5405 20.5346 10.4746 20.6936 10.4746 20.8594C10.4746 21.0251 10.5405 21.1841 10.6577 21.3013C10.7749 21.4185 10.9338 21.4844 11.0996 21.4844H13.482C13.6477 21.4844 13.8067 21.4185 13.9239 21.3013C14.0411 21.1841 14.107 21.0251 14.107 20.8594C14.107 20.6936 14.0411 20.5346 13.9239 20.4174C13.8067 20.3002 13.6477 20.2344 13.482 20.2344H11.0996ZM29.5252 20.8594C29.5252 20.6936 29.4594 20.5346 29.3422 20.4174C29.225 20.3002 29.066 20.2344 28.9002 20.2344H26.5179C26.3521 20.2344 26.1932 20.3002 26.0759 20.4174C25.9587 20.5346 25.8929 20.6936 25.8929 20.8594C25.8929 21.0251 25.9587 21.1841 26.0759 21.3013C26.1932 21.4185 26.3521 21.4844 26.5179 21.4844H28.9002C29.066 21.4844 29.225 21.4185 29.3422 21.3013C29.4594 21.1841 29.5252 21.0251 29.5252 20.8594ZM15.4067 17.0575C15.5317 17.0575 15.6538 17.0201 15.7573 16.95C15.8608 16.8799 15.9409 16.7804 15.9873 16.6643C16.0337 16.5483 16.0441 16.4209 16.0174 16.2988C15.9907 16.1767 15.928 16.0655 15.8373 15.9794L14.1412 14.3679C14.021 14.2537 13.8604 14.192 13.6947 14.1962C13.529 14.2004 13.3717 14.2703 13.2575 14.3905C13.1434 14.5107 13.0816 14.6713 13.0858 14.837C13.0901 15.0027 13.16 15.16 13.2802 15.2741L14.9765 16.8856C15.0925 16.9961 15.2465 17.0576 15.4067 17.0575ZM25.8587 14.3679L24.1625 15.9794C24.0423 16.0936 23.9724 16.2508 23.9682 16.4165C23.9639 16.5822 24.0257 16.7428 24.1399 16.863C24.2541 16.9832 24.4113 17.0531 24.577 17.0573C24.7427 17.0616 24.9033 16.9998 25.0235 16.8856L26.7197 15.2741C26.8399 15.16 26.9098 15.0027 26.914 14.837C26.9182 14.6713 26.8565 14.5107 26.7423 14.3905C26.6281 14.2703 26.4709 14.2004 26.3052 14.1962C26.1395 14.192 25.9788 14.2537 25.8587 14.3679Z" fill="#DE8500"/>
</svg>
