<svg width="33" height="33" viewBox="0 0 33 33" fill="none" xmlns="http://www.w3.org/2000/svg">
<path d="M16.5 6.70312C14.5624 6.70313 12.6682 7.2777 11.0572 8.3542C9.44606 9.43069 8.19037 10.9608 7.44887 12.7509C6.70737 14.541 6.51336 16.5109 6.89137 18.4113C7.26939 20.3117 8.20245 22.0573 9.57257 23.4274C10.9427 24.7976 12.6883 25.7306 14.5887 26.1086C16.4891 26.4866 18.459 26.2926 20.2491 25.5511C22.0393 24.8096 23.5693 23.5539 24.6458 21.9429C25.7223 20.3318 26.2969 18.4376 26.2969 16.5C26.294 13.9026 25.2609 11.4124 23.4243 9.57573C21.5876 7.73908 19.0974 6.70599 16.5 6.70312ZM16.5 25.2656C14.7663 25.2656 13.0716 24.7515 11.6301 23.7883C10.1886 22.8252 9.06507 21.4562 8.40162 19.8545C7.73817 18.2527 7.56458 16.4903 7.90281 14.7899C8.24103 13.0895 9.07588 11.5277 10.3018 10.3018C11.5277 9.07587 13.0896 8.24103 14.7899 7.9028C16.4903 7.56458 18.2528 7.73817 19.8545 8.40162C21.4562 9.06507 22.8252 10.1886 23.7884 11.6301C24.7515 13.0716 25.2656 14.7663 25.2656 16.5C25.263 18.824 24.3387 21.0521 22.6954 22.6954C21.0521 24.3387 18.824 25.263 16.5 25.2656Z" fill="#DE8500"/>
<path d="M6.70312 10.8281V5.67188H5.67188V10.3125H5.15625V5.67188H4.125V10.3125H3.60938V5.67188H2.57812V10.3125H2.0625V5.67188H1.03125V13.4062C1.03164 13.7261 1.13096 14.038 1.31559 14.2991C1.50022 14.5603 1.76111 14.7579 2.0625 14.865V26.8125C2.0625 27.2228 2.22547 27.6162 2.51557 27.9063C2.80566 28.1964 3.19912 28.3594 3.60938 28.3594H4.125C4.53526 28.3594 4.92871 28.1964 5.21881 27.9063C5.5089 27.6162 5.67188 27.2228 5.67188 26.8125V14.865C5.97326 14.7579 6.23416 14.5603 6.41879 14.2991C6.60342 14.038 6.70273 13.7261 6.70312 13.4062V10.8281ZM5.67188 13.4062C5.67188 13.543 5.61755 13.6742 5.52085 13.7709C5.42415 13.8676 5.293 13.9219 5.15625 13.9219C5.0195 13.9219 4.88835 13.9762 4.79165 14.0729C4.69495 14.1696 4.64062 14.3007 4.64062 14.4375V26.8125C4.64062 26.9493 4.5863 27.0804 4.4896 27.1771C4.3929 27.2738 4.26175 27.3281 4.125 27.3281H3.60938C3.47262 27.3281 3.34147 27.2738 3.24477 27.1771C3.14807 27.0804 3.09375 26.9493 3.09375 26.8125V14.4375C3.09375 14.3007 3.03943 14.1696 2.94273 14.0729C2.84603 13.9762 2.71488 13.9219 2.57812 13.9219C2.44137 13.9219 2.31022 13.8676 2.21352 13.7709C2.11682 13.6742 2.0625 13.543 2.0625 13.4062V11.3438H5.67188V13.4062ZM31.4531 5.15625C30.2228 5.15761 29.0432 5.64697 28.1732 6.51697C27.3032 7.38696 26.8139 8.56652 26.8125 9.79688V16.5C26.8125 16.9103 26.9755 17.3037 27.2656 17.5938C27.5557 17.8839 27.9491 18.0469 28.3594 18.0469V27.8438C28.3594 27.9805 28.4137 28.1117 28.5104 28.2084C28.6071 28.305 28.7382 28.3594 28.875 28.3594H31.4531C31.5899 28.3594 31.721 28.305 31.8177 28.2084C31.9144 28.1117 31.9688 27.9805 31.9688 27.8438V5.67188C31.9688 5.53512 31.9144 5.40397 31.8177 5.30727C31.721 5.21057 31.5899 5.15625 31.4531 5.15625ZM30.9375 27.3281H29.3906V17.5312C29.3906 17.3945 29.3363 17.2633 29.2396 17.1666C29.1429 17.0699 29.0118 17.0156 28.875 17.0156H28.3594C28.2226 17.0156 28.0915 16.9613 27.9948 16.8646C27.8981 16.7679 27.8438 16.6368 27.8438 16.5V9.79688C27.8448 8.9292 28.158 8.09086 28.7259 7.43493C29.2939 6.77899 30.0789 6.34923 30.9375 6.22411V27.3281Z" fill="#DE8500"/>
<path d="M29.3906 8.25H28.3594V15.9844H29.3906V8.25Z" fill="#DE8500"/>
<path d="M16.5 11.3438C15.4802 11.3438 14.4833 11.6462 13.6353 12.2127C12.7874 12.7793 12.1265 13.5846 11.7362 14.5268C11.346 15.469 11.2439 16.5057 11.4428 17.5059C11.6418 18.5061 12.1329 19.4249 12.854 20.146C13.5751 20.8671 14.4939 21.3582 15.4941 21.5572C16.4943 21.7561 17.531 21.654 18.4732 21.2638C19.4154 20.8735 20.2207 20.2126 20.7873 19.3647C21.3538 18.5167 21.6563 17.5198 21.6563 16.5C21.6548 15.1329 21.111 13.8223 20.1444 12.8556C19.1777 11.889 17.8671 11.3453 16.5 11.3438ZM16.5 20.625C15.6842 20.625 14.8866 20.3831 14.2083 19.9298C13.5299 19.4766 13.0012 18.8323 12.689 18.0786C12.3768 17.3248 12.2951 16.4954 12.4543 15.6953C12.6134 14.8951 13.0063 14.1601 13.5832 13.5832C14.1601 13.0063 14.8951 12.6134 15.6953 12.4543C16.4954 12.2951 17.3248 12.3768 18.0786 12.689C18.8323 13.0012 19.4766 13.5299 19.9298 14.2083C20.3831 14.8866 20.625 15.6842 20.625 16.5C20.6238 17.5936 20.1888 18.6421 19.4155 19.4155C18.6421 20.1888 17.5936 20.6238 16.5 20.625Z" fill="#DE8500"/>
</svg>
