<svg width="39" height="39" viewBox="0 0 39 39" fill="none" xmlns="http://www.w3.org/2000/svg">
<g clip-path="url(#clip0_5319_4908)">
<path d="M17.0625 11.5781C17.0615 10.0682 17.3914 8.57638 18.0291 7.20771C18.6668 5.83904 19.5968 4.62678 20.7535 3.65625H15.8438L15.2344 4.875H11.5781L10.9688 3.65625H5.48438C4.99953 3.65625 4.53454 3.84886 4.1917 4.1917C3.84886 4.53454 3.65625 4.99953 3.65625 5.48438V33.5156C3.65625 34.0005 3.84886 34.4655 4.1917 34.8083C4.53454 35.1511 4.99953 35.3438 5.48438 35.3438H21.3281C21.813 35.3438 22.278 35.1511 22.6208 34.8083C22.9636 34.4655 23.1562 34.0005 23.1562 33.5156V21.0112C21.3408 20.1917 19.8002 18.8658 18.7194 17.1926C17.6385 15.5195 17.0632 13.57 17.0625 11.5781ZM18.355 27.9575C17.5273 28.785 16.4048 29.2499 15.2344 29.2499C14.064 29.2499 12.9415 28.785 12.1138 27.9575L8.10469 23.9484C7.27299 23.1168 6.7772 22.0076 6.71221 20.8333C6.64722 19.6589 7.01761 18.5018 7.75247 17.5835L9.14062 15.8438L12.1875 18.8906L10.3594 20.7188L15.2344 25.5938L17.0625 23.7656L20.1094 26.2031L18.355 27.9575Z" fill="white"/>
<path d="M27.4219 0.60943C26.4726 0.612836 25.5278 0.74005 24.6114 0.987852C24.166 0.741247 23.6654 0.611085 23.1562 0.60943H3.65625C2.84847 0.610397 2.07404 0.931717 1.50285 1.50291C0.931662 2.0741 0.610343 2.84852 0.609375 3.6563V35.3438C0.610343 36.1516 0.931662 36.926 1.50285 37.4972C2.07404 38.0684 2.84847 38.3897 3.65625 38.3907H23.1562C23.964 38.3897 24.7385 38.0684 25.3096 37.4972C25.8808 36.926 26.2022 36.1516 26.2031 35.3438V22.475C27.6881 22.6458 29.1923 22.5113 30.6234 22.0798C32.0545 21.6482 33.3823 20.9287 34.5253 19.9654C35.6683 19.0021 36.6023 17.8154 37.27 16.478C37.9378 15.1407 38.3251 13.681 38.4083 12.1886C38.4915 10.6961 38.2688 9.20241 37.7538 7.79916C37.2388 6.3959 36.4424 5.11272 35.4136 4.02837C34.3848 2.94402 33.1451 2.08141 31.7709 1.49347C30.3966 0.905542 28.9166 0.604704 27.4219 0.60943ZM24.9844 35.3438C24.9844 35.8287 24.7918 36.2936 24.4489 36.6365C24.1061 36.9793 23.6411 37.1719 23.1562 37.1719H3.65625C3.1714 37.1719 2.70641 36.9793 2.36357 36.6365C2.02073 36.2936 1.82812 35.8287 1.82812 35.3438V3.6563C1.82812 3.17146 2.02073 2.70647 2.36357 2.36363C2.70641 2.02079 3.1714 1.82818 3.65625 1.82818H22.4195C21.7542 2.16969 21.1253 2.57805 20.5426 3.04693H15.8438C15.7305 3.04688 15.6195 3.07838 15.5232 3.1379C15.4268 3.19743 15.349 3.28262 15.2984 3.38391L14.8578 4.26568H11.9547L11.5172 3.38391C11.4663 3.28215 11.388 3.19665 11.2911 3.1371C11.1942 3.07754 11.0825 3.04631 10.9688 3.04693H5.48438C4.83791 3.04693 4.21792 3.30374 3.7608 3.76086C3.30368 4.21798 3.04688 4.83796 3.04688 5.48443V33.5157C3.04688 34.1621 3.30368 34.7821 3.7608 35.2393C4.21792 35.6964 4.83791 35.9532 5.48438 35.9532H21.3281C21.9746 35.9532 22.5946 35.6964 23.0517 35.2393C23.5088 34.7821 23.7656 34.1621 23.7656 33.5157V21.9071C24.1645 22.05 24.5715 22.1692 24.9844 22.2642V35.3438ZM19.2697 4.26568C18.1377 5.51973 17.3118 7.01913 16.857 8.64614C16.4022 10.2731 16.3308 11.9834 16.6483 13.6427C16.9659 15.302 17.6638 16.865 18.6873 18.2091C19.7107 19.5532 21.0318 20.6417 22.5469 21.3891V33.5157C22.5469 33.8389 22.4185 34.1489 22.1899 34.3775C21.9614 34.606 21.6514 34.7344 21.3281 34.7344H5.48438C5.16114 34.7344 4.85115 34.606 4.62259 34.3775C4.39403 34.1489 4.26562 33.8389 4.26562 33.5157V5.48443C4.26562 5.1612 4.39403 4.8512 4.62259 4.62264C4.85115 4.39408 5.16114 4.26568 5.48438 4.26568H10.5922L11.0327 5.14745C11.0834 5.24874 11.1612 5.33393 11.2575 5.39346C11.3539 5.45298 11.4649 5.48448 11.5781 5.48443H15.2344C15.3476 5.48448 15.4586 5.45298 15.555 5.39346C15.6513 5.33393 15.7291 5.24874 15.7798 5.14745L16.2203 4.26568H19.2697ZM27.4219 21.3282C25.4935 21.3282 23.6084 20.7564 22.0051 19.685C20.4017 18.6137 19.152 17.0909 18.414 15.3093C17.6761 13.5278 17.483 11.5674 17.8592 9.67605C18.2354 7.78473 19.164 6.04745 20.5276 4.68389C21.8911 3.32033 23.6284 2.39173 25.5197 2.01552C27.4111 1.63932 29.3715 1.8324 31.153 2.57035C32.9346 3.30831 34.4574 4.55799 35.5287 6.16137C36.6 7.76475 37.1719 9.64981 37.1719 11.5782C37.1688 14.1631 36.1406 16.6413 34.3128 18.4691C32.485 20.2969 30.0068 21.3251 27.4219 21.3282Z" fill="#DE8500"/>
<path d="M11.2218 20.7186L12.6191 19.3213C12.7334 19.207 12.7975 19.0521 12.7975 18.8905C12.7975 18.7289 12.7334 18.5739 12.6191 18.4597L9.57223 15.4128C9.51165 15.3522 9.43896 15.305 9.35892 15.2744C9.27887 15.2438 9.19326 15.2304 9.10769 15.2351C9.02212 15.2398 8.9385 15.2625 8.86231 15.3018C8.78611 15.341 8.71904 15.3959 8.66548 15.4628L7.2755 17.2007C6.44775 18.236 6.03066 19.5401 6.10395 20.8637C6.17725 22.1872 6.7358 23.4373 7.67281 24.3749L11.6837 28.3858C12.1501 28.8522 12.7038 29.2221 13.3131 29.4745C13.9225 29.7269 14.5756 29.8568 15.2352 29.8568C15.8947 29.8568 16.5478 29.7269 17.1572 29.4745C17.7665 29.2221 18.3202 28.8522 18.7866 28.3858L20.541 26.6314C20.6016 26.5708 20.6488 26.4981 20.6794 26.4181C20.71 26.338 20.7234 26.2524 20.7187 26.1668C20.7139 26.0813 20.6912 25.9977 20.652 25.9215C20.6128 25.8453 20.5579 25.7782 20.491 25.7246L17.4441 23.2871C17.327 23.1934 17.1794 23.1462 17.0297 23.1546C16.8799 23.1629 16.7385 23.2261 16.6325 23.3322L15.2352 24.732L11.2218 20.7186ZM17.1084 24.5821L19.1961 26.2536L17.9231 27.5266C17.2097 28.2398 16.2422 28.6405 15.2333 28.6405C14.2245 28.6405 13.257 28.2398 12.5435 27.5266L8.53203 23.5157C8.1441 23.1291 7.83665 22.6694 7.62746 22.1633C7.41827 21.6571 7.31148 21.1145 7.31328 20.5669C7.31459 19.6201 7.63682 18.7018 8.22734 17.9618L9.19198 16.7577L11.3248 18.8905L9.9275 20.2878C9.81326 20.4021 9.74908 20.557 9.74908 20.7186C9.74908 20.8802 9.81326 21.0352 9.9275 21.1494L14.8025 26.0244C14.9168 26.1387 15.0717 26.2029 15.2333 26.2029C15.3949 26.2029 15.5499 26.1387 15.6642 26.0244L17.1084 24.5821ZM33.3379 7.49092L31.5097 5.66279C31.3955 5.54855 31.2405 5.48438 31.0789 5.48438C30.9173 5.48438 30.7624 5.54855 30.6481 5.66279L27.4227 8.88821L24.1972 5.66279C24.083 5.54855 23.928 5.48438 23.7664 5.48438C23.6048 5.48438 23.4499 5.54855 23.3356 5.66279L21.5075 7.49092C21.3932 7.60519 21.329 7.76016 21.329 7.92174C21.329 8.08333 21.3932 8.2383 21.5075 8.35257L24.7329 11.578L21.5075 14.8034C21.3932 14.9177 21.329 15.0727 21.329 15.2342C21.329 15.3958 21.3932 15.5508 21.5075 15.6651L23.3356 17.4932C23.4499 17.6074 23.6048 17.6716 23.7664 17.6716C23.928 17.6716 24.083 17.6074 24.1972 17.4932L27.4227 14.2678L30.6481 17.4932C30.7624 17.6074 30.9173 17.6716 31.0789 17.6716C31.2405 17.6716 31.3955 17.6074 31.5097 17.4932L33.3379 15.6651C33.4521 15.5508 33.5163 15.3958 33.5163 15.2342C33.5163 15.0727 33.4521 14.9177 33.3379 14.8034L30.1124 11.578L33.3379 8.35257C33.4521 8.2383 33.5163 8.08333 33.5163 7.92174C33.5163 7.76016 33.4521 7.60519 33.3379 7.49092ZM28.82 11.1472C28.7057 11.2614 28.6415 11.4164 28.6415 11.578C28.6415 11.7396 28.7057 11.8945 28.82 12.0088L32.0454 15.2342L31.0789 16.2007L27.8535 12.9753C27.7392 12.8611 27.5842 12.7969 27.4227 12.7969C27.2611 12.7969 27.1061 12.8611 26.9918 12.9753L23.7664 16.2007L22.7999 15.2342L26.0254 12.0088C26.1396 11.8945 26.2038 11.7396 26.2038 11.578C26.2038 11.4164 26.1396 11.2614 26.0254 11.1472L22.7999 7.92174L23.7664 6.95528L26.9918 10.1807C27.1061 10.2949 27.2611 10.3591 27.4227 10.3591C27.5842 10.3591 27.7392 10.2949 27.8535 10.1807L31.0789 6.95528L32.0454 7.92174L28.82 11.1472Z" fill="#DE8500"/>
</g>
<defs>
<clipPath id="clip0_5319_4908">
<rect width="39" height="39" fill="white"/>
</clipPath>
</defs>
</svg>
