<svg width="40" height="40" viewBox="0 0 40 40" fill="none" xmlns="http://www.w3.org/2000/svg">
<path d="M20.0002 24.8832C18.9997 24.8832 18.0216 24.5865 17.1897 24.0307C16.3578 23.4748 15.7094 22.6847 15.3265 21.7603C14.9436 20.836 14.8434 19.8188 15.0386 18.8375C15.2338 17.8562 15.7156 16.9548 16.4231 16.2473C17.1306 15.5398 18.032 15.058 19.0133 14.8628C19.9946 14.6676 21.0118 14.7678 21.9361 15.1507C22.8605 15.5336 23.6506 16.182 24.2064 17.0139C24.7623 17.8458 25.059 18.8239 25.059 19.8244C25.0575 21.1656 24.5241 22.4515 23.5757 23.3999C22.6273 24.3483 21.3414 24.8817 20.0002 24.8832ZM20.0002 16.0456C19.2528 16.0456 18.5222 16.2672 17.9008 16.6825C17.2794 17.0977 16.7951 17.6879 16.5091 18.3783C16.223 19.0688 16.1482 19.8286 16.294 20.5616C16.4398 21.2946 16.7997 21.968 17.3282 22.4964C17.8567 23.0249 18.53 23.3848 19.263 23.5306C19.996 23.6764 20.7558 23.6016 21.4463 23.3156C22.1368 23.0296 22.7269 22.5452 23.1422 21.9238C23.5574 21.3024 23.779 20.5718 23.779 19.8244C23.7778 18.8226 23.3793 17.8621 22.6709 17.1537C21.9625 16.4453 21.0021 16.0468 20.0002 16.0456ZM15.633 36.122C15.4633 36.122 15.3005 36.0546 15.1805 35.9346C15.0604 35.8146 14.993 35.6518 14.993 35.482V33.1692C14.993 32.9995 15.0604 32.8367 15.1805 32.7167C15.3005 32.5967 15.4633 32.5292 15.633 32.5292C15.8027 32.5292 15.9655 32.5967 16.0856 32.7167C16.2056 32.8367 16.273 32.9995 16.273 33.1692V35.482C16.273 35.6518 16.2056 35.8146 16.0856 35.9346C15.9655 36.0546 15.8027 36.122 15.633 36.122ZM24.3674 36.122C24.1977 36.122 24.0349 36.0546 23.9149 35.9346C23.7948 35.8146 23.7274 35.6518 23.7274 35.482V33.1692C23.7274 32.9995 23.7948 32.8367 23.9149 32.7167C24.0349 32.5967 24.1977 32.5292 24.3674 32.5292C24.5371 32.5292 24.6999 32.5967 24.82 32.7167C24.94 32.8367 25.0074 32.9995 25.0074 33.1692V35.482C25.0074 35.6518 24.94 35.8146 24.82 35.9346C24.6999 36.0546 24.5371 36.122 24.3674 36.122Z" fill="#DE8500"/>
<path d="M27.4133 36.6417H12.5853C12.4156 36.6417 12.2528 36.5743 12.1328 36.4543C12.0127 36.3342 11.9453 36.1715 11.9453 36.0017V31.9453C11.9453 28.6361 14.6377 25.9453 17.9453 25.9453H22.0517C25.3609 25.9453 28.0517 28.6373 28.0517 31.9453V36.0017C28.0517 36.1712 27.9845 36.3337 27.8648 36.4537C27.7452 36.5737 27.5828 36.6413 27.4133 36.6417ZM13.2253 35.3617H26.7733V31.9453C26.7716 30.694 26.2738 29.4944 25.389 28.6096C24.5042 27.7248 23.3046 27.227 22.0533 27.2253H17.9469C16.6956 27.227 15.496 27.7248 14.6112 28.6096C13.7264 29.4944 13.2286 30.694 13.2269 31.9453L13.2253 35.3617Z" fill="#DE8500"/>
<path d="M17.7332 27.2263C17.6238 27.2262 17.5163 27.1981 17.4208 27.1446C17.3254 27.0911 17.2453 27.014 17.1881 26.9208C17.1309 26.8275 17.0986 26.7211 17.0943 26.6118C17.0899 26.5025 17.1136 26.3938 17.1632 26.2963C17.892 24.8627 17.2656 24.0631 17.2388 24.0299C17.2436 24.0359 17.2464 24.0387 17.2464 24.0387L18.2088 23.1947C18.2596 23.2527 19.4408 24.6407 18.3044 26.8747C18.2511 26.9804 18.1694 27.0693 18.0686 27.1313C17.9677 27.1934 17.8516 27.2263 17.7332 27.2263ZM22.2656 27.2263C22.1474 27.2263 22.0315 27.1936 21.9307 27.1317C21.83 27.0699 21.7483 26.9813 21.6948 26.8759C20.5584 24.6407 21.7396 23.2527 21.7904 23.1959L22.7528 24.0391C22.7528 24.0391 22.7556 24.0363 22.7604 24.0303C22.7336 24.0635 22.1072 24.8631 22.836 26.2963C22.8857 26.3939 22.9095 26.5026 22.9052 26.612C22.9009 26.7214 22.8685 26.8279 22.8113 26.9212C22.7541 27.0146 22.6739 27.0917 22.5783 27.1452C22.4828 27.1986 22.3751 27.2267 22.2656 27.2267V27.2263ZM9.44282 20.7023C8.86188 20.7023 8.29398 20.53 7.81096 20.2073C7.32793 19.8845 6.95146 19.4258 6.72916 18.889C6.50686 18.3523 6.44872 17.7617 6.56209 17.1919C6.67545 16.6222 6.95523 16.0988 7.36605 15.6881C7.77686 15.2773 8.30026 14.9976 8.87004 14.8843C9.43983 14.771 10.0304 14.8292 10.5671 15.0516C11.1038 15.274 11.5625 15.6505 11.8852 16.1336C12.2079 16.6167 12.3801 17.1846 12.38 17.7655C12.3792 18.5442 12.0694 19.2908 11.5188 19.8414C10.9681 20.3919 10.2215 20.7016 9.44282 20.7023ZM9.44282 16.1083C9.11506 16.1083 8.79465 16.2055 8.52213 16.3876C8.2496 16.5697 8.03719 16.8285 7.91177 17.1313C7.78634 17.4341 7.75352 17.7674 7.81746 18.0888C7.8814 18.4103 8.03924 18.7056 8.271 18.9373C8.50276 19.1691 8.79805 19.3269 9.11951 19.3909C9.44098 19.4548 9.77419 19.422 10.077 19.2966C10.3798 19.1711 10.6386 18.9587 10.8207 18.6862C11.0028 18.4137 11.1 18.0933 11.1 17.7655C11.0996 17.3261 10.9249 16.9049 10.6142 16.5942C10.3035 16.2835 9.88221 16.1087 9.44282 16.1083ZM13.2968 27.2087H5.58922C5.41948 27.2087 5.25669 27.1413 5.13667 27.0213C5.01665 26.9012 4.94922 26.7385 4.94922 26.5687V25.5287C4.96039 24.3442 5.43877 23.2121 6.28031 22.3784C7.12184 21.5448 8.25848 21.0771 9.44302 21.0771C10.6276 21.0771 11.7642 21.5448 12.6057 22.3784C13.4473 23.2121 13.9256 24.3442 13.9368 25.5287V26.5687C13.9368 26.7385 13.8694 26.9012 13.7494 27.0213C13.6293 27.1413 13.4666 27.2087 13.2968 27.2087ZM6.22922 25.9287H12.6568V25.5287C12.6474 24.6826 12.3046 23.8743 11.7029 23.2793C11.1013 22.6843 10.2892 22.3506 9.44302 22.3506C8.59682 22.3506 7.78477 22.6843 7.18309 23.2793C6.58141 23.8743 6.23866 24.6826 6.22922 25.5287V25.9287ZM30.5564 20.7023C29.9755 20.7024 29.4075 20.5302 28.9244 20.2075C28.4414 19.8848 28.0648 19.426 27.8425 18.8893C27.6201 18.3526 27.5619 17.762 27.6752 17.1922C27.7886 16.6224 28.0683 16.099 28.4791 15.6882C28.8899 15.2774 29.4133 14.9977 29.9831 14.8843C30.5529 14.771 31.1435 14.8292 31.6802 15.0516C32.2169 15.2739 32.6757 15.6505 32.9984 16.1335C33.3211 16.6166 33.4933 17.1846 33.4932 17.7655C33.4924 18.5441 33.1827 19.2906 32.6321 19.8412C32.0815 20.3918 31.335 20.7015 30.5564 20.7023ZM30.5564 16.1083C30.2286 16.1082 29.9082 16.2054 29.6356 16.3874C29.363 16.5695 29.1506 16.8282 29.0251 17.1311C28.8996 17.4339 28.8667 17.7671 28.9306 18.0886C28.9945 18.4101 29.1523 18.7054 29.3841 18.9372C29.6158 19.169 29.9111 19.3269 30.2326 19.3908C30.554 19.4548 30.8873 19.422 31.1901 19.2966C31.4929 19.1712 31.7518 18.9588 31.9339 18.6862C32.116 18.4137 32.2132 18.0933 32.2132 17.7655C32.2127 17.3262 32.038 16.9051 31.7274 16.5944C31.4168 16.2838 30.9957 16.1089 30.5564 16.1083ZM34.41 27.2087H26.7024C26.5327 27.2087 26.3699 27.1413 26.2499 27.0213C26.1298 26.9012 26.0624 26.7385 26.0624 26.5687V25.5287C26.0736 24.3442 26.552 23.2121 27.3935 22.3784C28.235 21.5448 29.3717 21.0771 30.5562 21.0771C31.7408 21.0771 32.8774 21.5448 33.7189 22.3784C34.5605 23.2121 35.0388 24.3442 35.05 25.5287V26.5687C35.05 26.7385 34.9826 26.9012 34.8626 27.0213C34.7425 27.1413 34.5798 27.2087 34.41 27.2087ZM27.3424 25.9287H33.77V25.5287C33.7606 24.6826 33.4178 23.8743 32.8161 23.2793C32.2145 22.6843 31.4024 22.3506 30.5562 22.3506C29.71 22.3506 28.898 22.6843 28.2963 23.2793C27.6946 23.8743 27.3519 24.6826 27.3424 25.5287V25.9287ZM23.0084 13.8995C22.9048 13.8996 22.8026 13.8745 22.7108 13.8263L19.9996 12.3991L17.2884 13.8247C17.1828 13.8802 17.0638 13.9051 16.9449 13.8966C16.8259 13.888 16.7117 13.8464 16.6151 13.7764C16.5185 13.7064 16.4434 13.6108 16.3983 13.5004C16.3531 13.39 16.3397 13.2691 16.3596 13.1515L16.8796 10.1327L14.6864 7.99471C14.6009 7.91145 14.5404 7.80596 14.5118 7.69013C14.4831 7.57431 14.4873 7.45277 14.5241 7.33924C14.5608 7.22571 14.6285 7.12472 14.7196 7.04765C14.8107 6.97058 14.9216 6.92052 15.0396 6.90311L18.0704 6.46311L19.426 3.71631C19.4789 3.60918 19.5606 3.51897 19.6621 3.45589C19.7635 3.39281 19.8806 3.35938 20 3.35938C20.1195 3.35938 20.2365 3.39281 20.338 3.45589C20.4394 3.51897 20.5212 3.60918 20.574 3.71631L21.9296 6.46311L24.9604 6.90311C25.0786 6.92028 25.1896 6.97016 25.2809 7.04713C25.3722 7.12409 25.4402 7.22507 25.4771 7.33864C25.514 7.45221 25.5184 7.57384 25.4898 7.68978C25.4612 7.80572 25.4007 7.91135 25.3152 7.99471L23.122 10.1327L23.6396 13.1515C23.6553 13.2434 23.6508 13.3375 23.6264 13.4275C23.6019 13.5174 23.5581 13.6009 23.498 13.6721C23.438 13.7433 23.3631 13.8006 23.2786 13.8399C23.1941 13.8792 23.102 13.8995 23.0088 13.8995H23.0084ZM19.9996 11.0391C20.1034 11.0391 20.2057 11.0642 20.2976 11.1123L22.1596 12.0899L21.8044 10.0175C21.7868 9.9152 21.7944 9.81014 21.8264 9.71139C21.8585 9.61265 21.9141 9.52318 21.9884 9.45071L23.494 7.98311L21.414 7.68071C21.3117 7.66552 21.2145 7.62574 21.1309 7.56478C21.0474 7.50382 20.9798 7.42351 20.934 7.33071L19.9996 5.44511L19.0692 7.33071C19.0231 7.42346 18.9551 7.50362 18.8711 7.5643C18.7872 7.62499 18.6898 7.66438 18.5872 7.67911L16.5072 7.98151L18.0128 9.44911C18.0872 9.52158 18.1428 9.61105 18.1748 9.70979C18.2069 9.80854 18.2144 9.9136 18.1968 10.0159L17.8396 12.0899L19.7004 11.1111C19.7928 11.0632 19.8955 11.0385 19.9996 11.0391Z" fill="#DE8500"/>
</svg>
