<svg width="31" height="31" viewBox="0 0 31 31" fill="none" xmlns="http://www.w3.org/2000/svg">
<g clip-path="url(#clip0_5321_4946)">
<path d="M8.41894 27.3672H4.60449C4.48406 27.3672 4.36855 27.415 4.28339 27.5002C4.19823 27.5854 4.15039 27.7009 4.15039 27.8213C4.15039 27.9417 4.19823 28.0572 4.28339 28.1424C4.36855 28.2275 4.48406 28.2754 4.60449 28.2754H8.41894C8.53938 28.2754 8.65488 28.2275 8.74004 28.1424C8.8252 28.0572 8.87305 27.9417 8.87305 27.8213C8.87305 27.7009 8.8252 27.5854 8.74004 27.5002C8.65488 27.415 8.53938 27.3672 8.41894 27.3672ZM7.11719 8.6582C7.70396 8.6582 8.27756 8.4842 8.76545 8.15821C9.25334 7.83221 9.6336 7.36886 9.85815 6.82675C10.0827 6.28464 10.1415 5.68812 10.027 5.11261C9.9125 4.53711 9.62994 4.00848 9.21503 3.59356C8.80012 3.17865 8.27148 2.89609 7.69598 2.78162C7.12048 2.66714 6.52395 2.72589 5.98184 2.95044C5.43973 3.17499 4.97638 3.55526 4.65039 4.04314C4.32439 4.53103 4.15039 5.10463 4.15039 5.69141C4.15129 6.47797 4.46415 7.23207 5.02034 7.78826C5.57652 8.34445 6.33062 8.65731 7.11719 8.6582ZM7.11719 3.63281C7.52434 3.63281 7.92235 3.75355 8.26088 3.97975C8.59941 4.20595 8.86327 4.52746 9.01908 4.90362C9.17489 5.27978 9.21566 5.69369 9.13623 6.09302C9.05679 6.49235 8.86073 6.85915 8.57283 7.14705C8.28493 7.43495 7.91813 7.63101 7.5188 7.71044C7.11947 7.78988 6.70556 7.74911 6.3294 7.5933C5.95324 7.43749 5.63173 7.17363 5.40553 6.8351C5.17933 6.49657 5.05859 6.09856 5.05859 5.69141C5.0592 5.14562 5.27628 4.62236 5.66221 4.23643C6.04814 3.8505 6.5714 3.63342 7.11719 3.63281ZM14.7764 21.373H4.60449C4.48406 21.373 4.36855 21.4209 4.28339 21.5061C4.19823 21.5912 4.15039 21.7067 4.15039 21.8271C4.15039 21.9476 4.19823 22.0631 4.28339 22.1482C4.36855 22.2334 4.48406 22.2812 4.60449 22.2812H14.7764C14.8968 22.2812 15.0123 22.2334 15.0975 22.1482C15.1826 22.0631 15.2305 21.9476 15.2305 21.8271C15.2305 21.7067 15.1826 21.5912 15.0975 21.5061C15.0123 21.4209 14.8968 21.373 14.7764 21.373ZM28.6133 8.26483C28.3983 8.03415 28.1953 7.81618 28.0744 7.60729C27.9456 7.38466 27.853 7.09022 27.7551 6.77859C27.5596 6.15629 27.3378 5.45085 26.7169 5.09157C26.115 4.74336 25.4025 4.89818 24.7737 5.03478C24.6151 5.06929 24.4607 5.10265 24.3125 5.1282V2.27051C24.3118 1.66854 24.0724 1.09142 23.6467 0.66576C23.2211 0.240103 22.644 0.000673076 22.042 0L3.69629 0C3.09432 0.000673076 2.5172 0.240103 2.09154 0.66576C1.66588 1.09142 1.42645 1.66854 1.42578 2.27051V28.7295C1.42645 29.3315 1.66588 29.9086 2.09154 30.3342C2.5172 30.7599 3.09432 30.9993 3.69629 31H22.042C22.644 30.9993 23.2211 30.7599 23.6467 30.3342C24.0724 29.9086 24.3118 29.3315 24.3125 28.7295V21.2835L25.3308 22.034C25.4254 22.1038 25.5376 22.146 25.6548 22.1559C25.772 22.1658 25.8896 22.1429 25.9946 22.0899C26.0996 22.0369 26.1878 21.9558 26.2495 21.8557C26.3111 21.7555 26.3438 21.6402 26.3438 21.5226V15.143C26.4744 15.1093 26.5999 15.0582 26.7169 14.991C27.3378 14.6318 27.5596 13.9264 27.7551 13.304C27.853 12.9923 27.9456 12.6979 28.0745 12.4753C28.1953 12.2664 28.3984 12.0485 28.6133 11.8178C29.0634 11.3348 29.5734 10.7874 29.5734 10.0413C29.5734 9.29528 29.0634 8.74775 28.6133 8.26483ZM23.4043 28.7295C23.4039 29.0907 23.2602 29.4369 23.0048 29.6923C22.7494 29.9477 22.4032 30.0914 22.042 30.0918H3.69629C3.33511 30.0914 2.98885 29.9477 2.73345 29.6923C2.47806 29.4369 2.3344 29.0907 2.33398 28.7295V2.27051C2.3344 1.90933 2.47806 1.56306 2.73345 1.30767C2.98885 1.05228 3.33511 0.90862 3.69629 0.908203H22.042C22.4032 0.90862 22.7494 1.05228 23.0048 1.30767C23.2602 1.56306 23.4039 1.90933 23.4043 2.27051V5.1282C23.256 5.10265 23.1017 5.06929 22.9431 5.03478C22.3145 4.89812 21.6019 4.74324 20.9999 5.09157C20.379 5.45079 20.1573 6.15622 19.9617 6.77859C19.8637 7.09028 19.7712 7.38466 19.6425 7.60729C19.5215 7.81618 19.3185 8.03403 19.1036 8.26477C18.6535 8.74775 18.1434 9.29528 18.1434 10.0413C18.1437 10.1878 18.1639 10.3336 18.2033 10.4746H4.60449C4.48406 10.4746 4.36855 10.5225 4.28339 10.6076C4.19823 10.6928 4.15039 10.8083 4.15039 10.9287C4.15039 11.0491 4.19823 11.1646 4.28339 11.2498C4.36855 11.335 4.48406 11.3828 4.60449 11.3828H18.7152C18.8407 11.5351 18.9744 11.6792 19.1035 11.8178C19.3185 12.0485 19.5215 12.2664 19.6424 12.4753C19.7625 12.7061 19.8585 12.9487 19.9286 13.1992H4.60449C4.48406 13.1992 4.36855 13.2471 4.28339 13.3322C4.19823 13.4174 4.15039 13.5329 4.15039 13.6533C4.15039 13.7738 4.19823 13.8893 4.28339 13.9744C4.36855 14.0596 4.48406 14.1074 4.60449 14.1074H20.2533C20.4173 14.462 20.6421 14.7841 20.9998 14.991C21.1168 15.0582 21.2423 15.1092 21.3729 15.1428V15.9238H4.30176C4.18132 15.9238 4.06582 15.9717 3.98066 16.0568C3.8955 16.142 3.84766 16.2575 3.84766 16.3779C3.84766 16.4984 3.8955 16.6139 3.98066 16.699C4.06582 16.7842 4.18132 16.832 4.30176 16.832H21.3729V18.6484H4.30176C4.18132 18.6484 4.06582 18.6963 3.98066 18.7814C3.8955 18.8666 3.84766 18.9821 3.84766 19.1025C3.84766 19.223 3.8955 19.3385 3.98066 19.4236C4.06582 19.5088 4.18132 19.5566 4.30176 19.5566H21.3729V21.5226C21.3728 21.6403 21.4053 21.7557 21.4669 21.856C21.5285 21.9563 21.6167 22.0375 21.7218 22.0905C21.8269 22.1436 21.9446 22.1664 22.0618 22.1564C22.1791 22.1465 22.2913 22.1041 22.3859 22.0341L23.4043 21.2836V28.7295ZM25.4356 20.9831L24.2354 20.0986C24.1263 20.0177 23.9941 19.974 23.8583 19.9741C23.7225 19.9741 23.5903 20.0177 23.4813 20.0987L22.2812 20.9831V15.1727C22.5064 15.1426 22.7296 15.0942 22.9431 15.0478C23.2722 14.9763 23.5831 14.9086 23.8584 14.9086C24.1337 14.9086 24.4445 14.9763 24.7737 15.0478C24.9872 15.0942 25.2104 15.1422 25.4356 15.1724L25.4356 20.9831ZM27.9488 11.1986C27.7088 11.4562 27.4607 11.7225 27.2883 12.0205C27.1093 12.3299 26.9971 12.6867 26.8886 13.0317C26.7286 13.5412 26.5773 14.0225 26.2621 14.2048C25.9644 14.3773 25.4798 14.2719 24.9666 14.1603C24.6051 14.0817 24.2312 14.0004 23.8584 14.0004C23.4856 14.0004 23.1117 14.0817 22.7501 14.1603C22.237 14.2718 21.7524 14.3772 21.4546 14.2048C21.1394 14.0225 20.9882 13.5412 20.8281 13.0317C20.7197 12.6867 20.6076 12.3299 20.4285 12.0206C20.2562 11.7225 20.008 11.4563 19.768 11.1987C19.3995 10.8033 19.0516 10.4299 19.0516 10.0413C19.0516 9.65281 19.3996 9.27929 19.768 8.88392C20.008 8.62636 20.2562 8.36001 20.4286 8.06206C20.6075 7.75266 20.7197 7.39586 20.8281 7.05093C20.9882 6.54136 21.1395 6.06008 21.4547 5.87771C21.5822 5.81164 21.7248 5.78024 21.8682 5.78665C22.1263 5.78665 22.4328 5.85325 22.7501 5.92227C23.1117 6.00086 23.4855 6.08212 23.8584 6.08212C24.2312 6.08212 24.6051 6.00086 24.9666 5.92227C25.4796 5.8108 25.9642 5.70533 26.2621 5.87765C26.5773 6.06008 26.7286 6.54136 26.8887 7.05093C26.9971 7.39586 27.1093 7.75266 27.2883 8.06206C27.4607 8.36007 27.7088 8.62636 27.9489 8.88392C28.3173 9.27929 28.6652 9.65281 28.6652 10.0413C28.6652 10.4299 28.3173 10.8033 27.9488 11.1986ZM26.6138 8.96627C26.4775 8.8775 26.2713 8.74333 26.2301 8.67201C26.1833 8.59136 26.1688 8.34621 26.1582 8.16723C26.1326 7.73432 26.1007 7.19545 25.652 6.93595C25.2144 6.68268 24.7396 6.91839 24.3581 7.10778C24.1919 7.19024 23.9643 7.30322 23.8584 7.30322C23.7525 7.30322 23.5249 7.19024 23.3587 7.10778C22.9772 6.91845 22.5025 6.68274 22.0647 6.93595C21.6161 7.19545 21.5842 7.73426 21.5586 8.16729C21.548 8.34627 21.5335 8.59136 21.4868 8.67207C21.4455 8.74339 21.2394 8.8775 21.103 8.96627C20.733 9.20688 20.2727 9.50646 20.2727 10.0413C20.2727 10.5761 20.7331 10.8757 21.103 11.1163C21.2394 11.205 21.4455 11.3392 21.4868 11.4105C21.5335 11.4913 21.548 11.7364 21.5586 11.9154C21.5842 12.3483 21.6161 12.8872 22.0646 13.1466C22.5024 13.3999 22.9772 13.1642 23.3588 12.9748C23.5249 12.8924 23.7525 12.7793 23.8584 12.7793C23.9643 12.7793 24.1919 12.8924 24.3581 12.9748C24.6204 13.1051 24.9267 13.2572 25.2349 13.2572C25.3814 13.2584 25.5255 13.2202 25.6521 13.1467C26.1007 12.8872 26.1326 12.3483 26.1583 11.9154C26.1688 11.7364 26.1833 11.4913 26.23 11.4105C26.2713 11.3392 26.4775 11.205 26.6139 11.1163C26.9838 10.8757 27.4441 10.5761 27.4441 10.0413C27.4441 9.50646 26.9838 9.20694 26.6138 8.96627ZM26.1186 10.355C25.8607 10.5229 25.594 10.6964 25.4439 10.9557C25.2895 11.2227 25.2702 11.5476 25.2516 11.8617C25.2429 12.0087 25.229 12.2427 25.1922 12.3445C25.0433 12.2973 24.8992 12.2359 24.7619 12.1613C24.4745 12.0187 24.1773 11.8711 23.8584 11.8711C23.5395 11.8711 23.2423 12.0187 22.9549 12.1613C22.8176 12.2359 22.6734 12.2972 22.5245 12.3445C22.4878 12.2427 22.4739 12.0087 22.4652 11.8617C22.4466 11.5476 22.4274 11.2227 22.2729 10.9557C22.1229 10.6964 21.8561 10.5228 21.5982 10.3551C21.4728 10.2735 21.2471 10.1266 21.1885 10.0413C21.2471 9.95596 21.4728 9.80914 21.5983 9.72746C21.8562 9.55975 22.1229 9.38622 22.2729 9.1269C22.4273 8.85988 22.4466 8.53511 22.4652 8.22093C22.4739 8.07399 22.4878 7.83991 22.5246 7.73813C22.6735 7.78538 22.8176 7.84669 22.9549 7.92123C23.2423 8.06394 23.5395 8.21143 23.8584 8.21143C24.1773 8.21143 24.4745 8.06394 24.7619 7.92123C24.8993 7.8467 25.0434 7.78537 25.1923 7.73807C25.229 7.83991 25.2429 8.07393 25.2516 8.22087C25.2702 8.53505 25.2894 8.85982 25.4439 9.12684C25.594 9.38616 25.8606 9.55975 26.1186 9.72752C26.244 9.80914 26.4697 9.95603 26.5285 10.0413C26.4697 10.1266 26.244 10.2735 26.1186 10.355ZM20.1491 26.8457C20.1262 26.8683 19.5822 27.3961 18.8223 27.2589C18.5345 27.2065 18.2694 27.0682 18.0619 26.8621C17.8237 26.6341 17.5138 26.496 17.185 26.4713C16.8562 26.4466 16.5291 26.5368 16.2595 26.7266L15.3352 27.3718C15.2863 27.4059 15.2446 27.4494 15.2125 27.4996C15.1804 27.5499 15.1585 27.6059 15.148 27.6647C15.1376 27.7234 15.1388 27.7836 15.1516 27.8418C15.1644 27.9001 15.1886 27.9552 15.2227 28.0041C15.2569 28.053 15.3003 28.0947 15.3506 28.1268C15.4008 28.159 15.4569 28.1809 15.5156 28.1913C15.5743 28.2017 15.6345 28.2005 15.6928 28.1877C15.751 28.1749 15.8062 28.1507 15.8551 28.1166L16.7794 27.4713C16.8759 27.402 16.9935 27.3683 17.1121 27.3761C17.2308 27.3839 17.343 27.4327 17.4296 27.5141C17.766 27.8465 18.1953 28.0692 18.6609 28.1527C19.8582 28.3685 20.696 27.582 20.7875 27.4916C20.8719 27.4066 20.9193 27.2918 20.9195 27.1721C20.9196 27.0523 20.8725 26.9374 20.7883 26.8522C20.7042 26.7671 20.5898 26.7186 20.47 26.7174C20.3503 26.7162 20.235 26.7623 20.1491 26.8457Z" fill="#DE8500"/>
</g>
<defs>
<clipPath id="clip0_5321_4946">
<rect width="31" height="31" fill="white"/>
</clipPath>
</defs>
</svg>
